<svg width="1056" height="430" viewBox="0 0 1056 430" fill="none" xmlns="http://www.w3.org/2000/svg">
<path d="M527.643 429.249C818.973 429.249 1055.14 413.614 1055.14 394.328C1055.14 375.041 818.973 359.406 527.643 359.406C236.312 359.406 0.142578 375.041 0.142578 394.328C0.142578 413.614 236.312 429.249 527.643 429.249Z" fill="white" fill-opacity="0.1"/>
<path d="M507.424 12.028C421.48 12.028 359.773 67.1673 359.773 195.826C359.773 341.639 421.48 380.236 507.424 380.236C593.368 380.236 658.751 337.963 658.751 195.826C658.751 43.8863 593.368 12.028 507.424 12.028ZM507.989 331.836C448.462 331.836 417.363 296.913 417.363 195.92C417.363 106.808 449.736 59.8154 509.262 59.8154C568.789 59.8154 601.161 90.6832 601.161 195.92C601.161 294.367 567.516 331.836 507.989 331.836Z" fill="white" fill-opacity="0.3"/>
<path d="M308.311 278.535H272.776V173.896C272.776 168.338 270.569 163.007 266.639 159.077C262.709 155.148 257.378 152.94 251.821 152.94H243.494C240.742 152.94 238.017 153.482 235.475 154.535C232.932 155.588 230.622 157.132 228.676 159.077C226.73 161.023 225.187 163.334 224.133 165.876C223.08 168.419 222.538 171.144 222.538 173.896V278.535H122.308C120.246 278.535 118.219 278.002 116.424 276.988C114.629 275.974 113.126 274.513 112.062 272.747C110.997 270.981 110.408 268.969 110.35 266.908C110.292 264.847 110.767 262.806 111.731 260.983L217.813 60.2026C219.136 57.6993 219.937 54.9541 220.17 52.1325C220.402 49.3109 220.06 46.4715 219.165 43.7857C218.269 41.0999 216.839 38.6233 214.96 36.5055C213.081 34.3877 210.793 32.6726 208.233 31.4637L201.97 28.5065C197.108 26.2103 190.606 21.8117 185.5 23.5C180.394 25.1883 177.076 32.8341 174.541 37.5765L45.1595 279.609C42.9564 283.731 41.8037 288.332 41.8037 293.005C41.8037 296.737 42.5387 300.432 43.9667 303.879C45.3948 307.327 47.4879 310.46 50.1265 313.098C52.7652 315.737 55.8977 317.83 59.3453 319.258C62.7928 320.686 66.4879 321.421 70.2195 321.421H222.538V387.588C222.538 390.887 223.188 394.153 224.45 397.201C225.713 400.248 227.563 403.018 229.895 405.35C232.228 407.683 234.997 409.533 238.045 410.795C241.092 412.058 244.359 412.707 247.657 412.707C250.956 412.707 254.222 412.058 257.27 410.795C260.318 409.533 263.087 407.683 265.419 405.35C267.752 403.018 269.602 400.248 270.864 397.201C272.127 394.153 272.776 390.887 272.776 387.588V321.421H308.311C313.998 321.421 319.452 319.162 323.473 315.14C327.495 311.119 329.754 305.665 329.754 299.978C329.754 294.291 327.495 288.837 323.473 284.815C319.452 280.794 313.998 278.535 308.311 278.535Z" fill="#19C0E6"/>
<path d="M966.307 278.535H930.773V173.895C930.773 168.338 928.565 163.007 924.635 159.077C920.705 155.147 915.374 152.94 909.817 152.94H901.49C898.738 152.94 896.013 153.482 893.471 154.535C890.928 155.588 888.618 157.132 886.672 159.077C884.726 161.023 883.183 163.334 882.13 165.876C881.076 168.419 880.534 171.144 880.534 173.895V278.535H780.304C778.242 278.535 776.215 278.002 774.42 276.988C772.625 275.974 771.122 274.513 770.058 272.747C768.994 270.981 768.404 268.969 768.346 266.908C768.288 264.847 768.763 262.806 769.727 260.983L875.809 60.2026C877.132 57.6993 877.933 54.9541 878.166 52.1325C878.398 49.3109 878.056 46.4715 877.161 43.7857C876.265 41.0998 874.835 38.6233 872.956 36.5055C871.077 34.3877 868.789 32.6726 866.229 31.4636L859.966 28.5065C855.104 26.2102 849.545 25.8712 844.439 27.5594C839.333 29.2477 835.072 32.8341 832.537 37.5765L703.156 279.609C700.952 283.731 699.8 288.332 699.8 293.005V293.005C699.8 300.542 702.794 307.769 708.123 313.098C713.452 318.427 720.679 321.421 728.216 321.421H880.534V387.588C880.534 394.25 883.181 400.639 887.892 405.35C892.602 410.061 898.991 412.707 905.653 412.707V412.707C912.315 412.707 918.704 410.061 923.415 405.35C928.126 400.639 930.772 394.25 930.772 387.588V321.421H966.307C971.994 321.421 977.448 319.162 981.469 315.14C985.491 311.119 987.75 305.665 987.75 299.978V299.978C987.75 294.291 985.491 288.837 981.469 284.815C977.448 280.794 971.994 278.535 966.307 278.535Z" fill="#19C0E6"/>
<path d="M318.112 266.282H282.578V161.642C282.578 158.89 282.036 156.165 280.983 153.623C279.93 151.08 278.386 148.77 276.44 146.824C274.494 144.878 272.184 143.335 269.642 142.282C267.099 141.229 264.374 140.686 261.622 140.686H253.296C247.738 140.686 242.408 142.894 238.478 146.824C234.548 150.754 232.34 156.084 232.34 161.642V266.282H132.11C130.048 266.282 128.021 265.749 126.226 264.735C124.431 263.72 122.928 262.259 121.864 260.493C120.799 258.727 120.209 256.716 120.151 254.655C120.093 252.594 120.569 250.553 121.532 248.73L227.615 47.9494C228.937 45.4462 229.739 42.7009 229.971 39.8793C230.204 37.0577 229.862 34.2183 228.966 31.5325C228.071 28.8466 226.641 26.3701 224.762 24.2523C222.883 22.1345 220.594 20.4194 218.034 19.2105L211.772 16.2533C206.91 13.9571 201.35 13.618 196.245 15.3063C191.139 16.9945 186.878 20.5808 184.343 25.3233L54.9613 267.356C52.7581 271.477 51.6055 276.079 51.6055 280.752V280.752C51.6055 288.288 54.5993 295.516 59.9283 300.845C65.2573 306.174 72.4849 309.168 80.0213 309.168H232.34V375.335C232.34 378.634 232.99 381.9 234.252 384.948C235.514 387.995 237.365 390.764 239.697 393.097C242.03 395.429 244.799 397.28 247.846 398.542C250.894 399.804 254.16 400.454 257.459 400.454H257.459C264.121 400.454 270.51 397.808 275.221 393.097C279.932 388.386 282.578 381.997 282.578 375.335V309.168H318.112C320.928 309.168 323.717 308.613 326.318 307.536C328.92 306.458 331.284 304.879 333.275 302.887C335.266 300.896 336.846 298.532 337.923 295.931C339.001 293.329 339.555 290.541 339.555 287.725V287.725C339.555 284.909 339.001 282.12 337.923 279.519C336.846 276.917 335.266 274.553 333.275 272.562C331.284 270.571 328.92 268.992 326.318 267.914C323.717 266.836 320.928 266.282 318.112 266.282V266.282Z" stroke="white" stroke-opacity="0.3" stroke-width="2" stroke-miterlimit="10"/>
<path d="M984.687 266.282H949.152V161.642C949.152 156.084 946.945 150.754 943.015 146.824C939.085 142.894 933.754 140.686 928.197 140.686H919.87C917.118 140.686 914.393 141.229 911.851 142.282C909.308 143.335 906.998 144.878 905.052 146.824C903.106 148.77 901.563 151.08 900.509 153.623C899.456 156.165 898.914 158.89 898.914 161.642V266.282H798.684C796.622 266.282 794.595 265.749 792.8 264.735C791.005 263.72 789.502 262.259 788.438 260.493C787.373 258.727 786.784 256.716 786.726 254.655C786.668 252.594 787.143 250.553 788.107 248.73L894.189 47.9494C895.512 45.4462 896.313 42.7009 896.546 39.8793C896.778 37.0577 896.436 34.2183 895.541 31.5325C894.645 28.8466 893.215 26.3701 891.336 24.2523C889.457 22.1345 887.169 20.4194 884.609 19.2105L878.346 16.2533C873.484 13.9571 867.925 13.618 862.819 15.3063C857.713 16.9945 853.452 20.5808 850.917 25.3233L721.536 267.356C719.332 271.477 718.18 276.079 718.18 280.752C718.18 288.288 721.174 295.516 726.503 300.845C731.832 306.174 739.059 309.168 746.596 309.168H898.914V375.335C898.914 381.997 901.561 388.386 906.271 393.097C910.982 397.808 917.371 400.454 924.033 400.454V400.454C930.695 400.454 937.084 397.808 941.795 393.097C946.506 388.386 949.152 381.997 949.152 375.335V309.168H984.687C987.503 309.168 990.291 308.613 992.892 307.536C995.494 306.458 997.858 304.879 999.849 302.887C1001.84 300.896 1003.42 298.532 1004.5 295.931C1005.58 293.329 1006.13 290.541 1006.13 287.725V287.725C1006.13 282.038 1003.87 276.584 999.849 272.562C995.828 268.541 990.374 266.282 984.687 266.282V266.282Z" stroke="white" stroke-opacity="0.3" stroke-width="2" stroke-miterlimit="10"/>
<path d="M527.03 1C441.086 1 379.379 56.1394 379.379 184.798C379.379 330.611 441.086 369.208 527.03 369.208C612.974 369.208 678.357 326.935 678.357 184.798C678.357 32.8583 612.974 1 527.03 1ZM527.595 320.808C468.068 320.808 436.969 285.886 436.969 184.892C436.969 95.7802 469.341 48.7875 528.868 48.7875C588.395 48.7875 620.767 79.6552 620.767 184.892C620.767 283.339 587.122 320.808 527.595 320.808V320.808Z" stroke="white" stroke-opacity="0.3" stroke-width="2" stroke-miterlimit="10"/>
</svg>
