<svg width="619" height="596" viewBox="0 0 619 596" fill="none" xmlns="http://www.w3.org/2000/svg">
<path fill-rule="evenodd" clip-rule="evenodd" d="M274.636 1.92523C379.536 -10.0664 478.686 54.2778 543.308 137.775C606.761 219.76 640.007 330.029 603.735 427.149C571.078 514.588 442.806 523.579 357.51 561.483C277.567 597.009 188.648 608.896 108 575C24.5116 539.91 16.6046 503.545 3.29898 413.965C-8.7181 333.06 16.5154 215.311 61.4999 147C114.834 66.0096 178.29 12.9391 274.636 1.92523Z" fill="white" fill-opacity="0.05"/>
<path d="M158.21 487.222C168.602 487.222 177.026 484.062 177.026 480.165C177.026 476.267 168.602 473.108 158.21 473.108C147.819 473.108 139.395 476.267 139.395 480.165C139.395 484.062 147.819 487.222 158.21 487.222Z" fill="#2C292D"/>
<path d="M203.37 486.281C213.761 486.281 222.186 483.121 222.186 479.224C222.186 475.326 213.761 472.167 203.37 472.167C192.978 472.167 184.554 475.326 184.554 479.224C184.554 483.121 192.978 486.281 203.37 486.281Z" fill="#2C292D"/>
<path d="M263.319 367.667C281.099 357.415 292.905 344.579 289.687 338.997C286.469 333.414 269.446 337.199 251.666 347.45C233.885 357.702 222.079 370.538 225.297 376.121C228.515 381.704 245.538 377.919 263.319 367.667Z" fill="#2C292D"/>
<path d="M246.627 392.804C253.202 352.281 225.686 314.1 185.169 307.524C144.651 300.948 106.475 328.468 99.9003 368.99C93.3253 409.513 120.841 447.694 161.358 454.27C201.876 460.846 240.052 433.327 246.627 392.804Z" fill="#2C292D"/>
<path d="M161.974 439.234H139.395V479.694H161.974V439.234Z" fill="#2C292D"/>
<path d="M207.133 439.234H184.554V479.694H207.133V439.234Z" fill="#2C292D"/>
<path d="M175.146 387.484C189.175 387.484 200.547 376.11 200.547 362.079C200.547 348.048 189.175 336.674 175.146 336.674C161.117 336.674 149.744 348.048 149.744 362.079C149.744 376.11 161.117 387.484 175.146 387.484Z" fill="white" fill-opacity="0.85"/>
<path d="M175.145 370.547C179.821 370.547 183.612 366.756 183.612 362.079C183.612 357.402 179.821 353.61 175.145 353.61C170.469 353.61 166.678 357.402 166.678 362.079C166.678 366.756 170.469 370.547 175.145 370.547Z" fill="#1A181B"/>
<path d="M101.167 311.77C95.1659 284.89 114.349 257.729 144.015 251.104C173.68 244.479 202.594 260.899 208.595 287.779C214.596 314.659 194.936 324.572 165.27 331.197C135.605 337.822 107.168 338.65 101.167 311.77Z" fill="white" fill-opacity="0.85"/>
<path d="M123.127 362.333C125.888 356.511 113.093 344.661 94.5495 335.864C76.0057 327.068 58.7349 324.657 55.9739 330.48C53.2129 336.302 66.0072 348.152 84.5509 356.949C103.095 365.745 120.366 368.156 123.127 362.333Z" fill="#2C292D"/>
<path d="M136.756 407.714C136.756 414.989 155.486 429.355 176.269 429.355C197.053 429.355 216.54 408.873 216.54 401.598C216.54 394.323 197.053 403.009 176.269 403.009C155.486 403.009 136.756 400.438 136.756 407.714Z" fill="white" fill-opacity="0.85"/>
<path d="M432.421 487.222C442.813 487.222 451.237 484.062 451.237 480.165C451.237 476.267 442.813 473.108 432.421 473.108C422.03 473.108 413.605 476.267 413.605 480.165C413.605 484.062 422.03 487.222 432.421 487.222Z" fill="#4C474D"/>
<path d="M387.263 486.281C397.655 486.281 406.079 483.121 406.079 479.224C406.079 475.326 397.655 472.167 387.263 472.167C376.871 472.167 368.447 475.326 368.447 479.224C368.447 483.121 376.871 486.281 387.263 486.281Z" fill="#4C474D"/>
<path d="M365.335 376.121C368.553 370.538 356.748 357.702 338.967 347.45C321.186 337.199 304.163 333.414 300.946 338.996C297.728 344.579 309.533 357.415 327.314 367.667C345.095 377.919 362.118 381.704 365.335 376.121Z" fill="#4C474D"/>
<path d="M417.369 455.23C458.416 455.23 491.692 421.95 491.692 380.897C491.692 339.844 458.416 306.564 417.369 306.564C376.321 306.564 343.046 339.844 343.046 380.897C343.046 421.95 376.321 455.23 417.369 455.23Z" fill="#4C474D"/>
<path d="M451.237 439.234H428.658V479.694H451.237V439.234Z" fill="#4C474D"/>
<path d="M406.079 439.234H383.5V479.694H406.079V439.234Z" fill="#4C474D"/>
<path d="M399.955 387.484C413.984 387.484 425.357 376.11 425.357 362.079C425.357 348.048 413.984 336.674 399.955 336.674C385.926 336.674 374.554 348.048 374.554 362.079C374.554 376.11 385.926 387.484 399.955 387.484Z" fill="white" fill-opacity="0.85"/>
<path d="M393.835 364.592C397.153 361.277 397.174 355.919 393.883 352.624C390.592 349.329 385.234 349.346 381.916 352.661C378.599 355.976 378.577 361.334 381.869 364.629C385.16 367.924 390.518 367.908 393.835 364.592Z" fill="#1F1D20"/>
<path d="M425.36 331.197C395.695 324.572 376.035 314.659 382.036 287.779C388.037 260.899 416.951 244.479 446.616 251.104C476.281 257.729 495.465 284.89 489.464 311.77C483.462 338.65 455.026 337.822 425.36 331.197Z" fill="#1AC0E5"/>
<path d="M495.089 437.559C501.317 435.904 502.094 418.481 496.825 398.642C491.557 378.804 482.238 364.062 476.011 365.717C469.783 367.371 469.006 384.794 474.275 404.633C479.543 424.471 488.862 439.213 495.089 437.559Z" fill="#4C474D"/>
<path d="M400.531 403.01C386.886 403.01 374.093 394.324 374.093 401.599C374.093 408.874 386.886 429.356 400.531 429.356C414.176 429.356 426.473 414.99 426.473 407.715C426.473 400.439 414.176 403.01 400.531 403.01Z" fill="white" fill-opacity="0.85"/>
<path d="M304.48 257.651H297.88C291.967 257.644 286.299 255.292 282.118 251.11C277.937 246.929 275.585 241.26 275.578 235.346V229.804C275.578 216.077 278.179 204.584 283.308 195.643C289.524 185.243 296.775 175.498 304.952 166.558C310.381 161.098 315.306 155.16 319.669 148.817C322.799 143.888 324.415 138.15 324.317 132.312C324.317 118.542 315.347 111.848 296.894 111.848C286.658 111.964 276.487 113.491 266.667 116.386C262.881 117.467 258.895 117.654 255.023 116.933C251.152 116.212 247.501 114.602 244.357 112.23C241.213 109.858 238.663 106.788 236.907 103.263C235.151 99.7378 234.237 95.8531 234.237 91.9145V80.6957C234.215 75.8662 235.594 71.1341 238.208 67.073C240.821 63.0119 244.557 59.7962 248.961 57.8157C266.302 50.414 285.004 46.7344 303.857 47.0149C323.607 47.0149 341.435 50.3328 356.849 56.8752C372.29 63.4327 384.49 72.6794 393.109 84.3592C401.701 95.9563 406.269 110.045 406.114 124.478C406.114 139.977 401.883 153.476 393.539 164.601C385.286 175.612 373.456 187.667 358.376 200.432C350.43 207.041 342.901 214.135 335.832 221.673C331.265 226.592 328.038 232.601 326.459 239.125C325.579 244.314 322.888 249.024 318.864 252.416C314.839 255.808 309.743 257.662 304.48 257.651Z" fill="#12C1A2"/>
<path d="M300.81 362.54H299.94C288.982 362.533 278.475 358.175 270.73 350.423C262.984 342.671 258.633 332.16 258.633 321.201C258.633 310.242 262.984 299.731 270.73 291.98C278.475 284.228 288.982 279.869 299.94 279.862H300.81C306.24 279.859 311.618 280.925 316.636 283.001C321.654 285.077 326.213 288.122 330.054 291.961C333.895 295.8 336.942 300.358 339.021 305.375C341.1 310.393 342.17 315.77 342.17 321.201C342.17 326.632 341.1 332.01 339.021 337.027C336.942 342.044 333.895 346.603 330.054 350.442C326.213 354.281 321.654 357.325 316.636 359.401C311.618 361.477 306.24 362.544 300.81 362.54Z" fill="#12C1A2"/>
<path d="M136.649 195.685C142.813 195.685 147.81 190.687 147.81 184.523C147.81 178.359 142.813 173.361 136.649 173.361C130.486 173.361 125.489 178.359 125.489 184.523C125.489 190.687 130.486 195.685 136.649 195.685Z" fill="white" fill-opacity="0.85"/>
</svg>
