<svg width="541" height="441" viewBox="0 0 541 441" fill="none" xmlns="http://www.w3.org/2000/svg">
<path d="M127.211 440.222C137.603 440.222 146.027 437.062 146.027 433.165C146.027 429.267 137.603 426.108 127.211 426.108C116.819 426.108 108.395 429.267 108.395 433.165C108.395 437.062 116.819 440.222 127.211 440.222Z" fill="#2C292D"/>
<path d="M172.37 439.281C182.761 439.281 191.186 436.121 191.186 432.224C191.186 428.326 182.761 425.167 172.37 425.167C161.978 425.167 153.554 428.326 153.554 432.224C153.554 436.121 161.978 439.281 172.37 439.281Z" fill="#2C292D"/>
<path d="M232.319 320.667C250.099 310.415 261.905 297.579 258.687 291.997C255.469 286.414 238.446 290.199 220.666 300.45C202.885 310.702 191.079 323.538 194.297 329.121C197.515 334.704 214.538 330.919 232.319 320.667Z" fill="#2C292D"/>
<path d="M215.627 345.804C222.202 305.281 194.687 267.1 154.169 260.524C113.652 253.948 75.4759 281.468 68.9008 321.991C62.3258 362.513 89.8415 400.695 130.359 407.27C170.876 413.846 209.052 386.327 215.627 345.804Z" fill="#2C292D"/>
<path d="M130.974 392.234H108.395V432.694H130.974V392.234Z" fill="#2C292D"/>
<path d="M176.133 392.234H153.554V432.694H176.133V392.234Z" fill="#2C292D"/>
<path d="M144.146 340.484C158.175 340.484 169.547 329.11 169.547 315.079C169.547 301.048 158.175 289.674 144.146 289.674C130.117 289.674 118.744 301.048 118.744 315.079C118.744 329.11 130.117 340.484 144.146 340.484Z" fill="white" fill-opacity="0.85"/>
<path d="M144.145 323.547C148.822 323.547 152.613 319.756 152.613 315.079C152.613 310.402 148.822 306.611 144.145 306.611C139.469 306.611 135.678 310.402 135.678 315.079C135.678 319.756 139.469 323.547 144.145 323.547Z" fill="#1A181B"/>
<path d="M70.1681 264.77C64.1669 237.89 83.3504 210.729 113.016 204.104C142.681 197.479 171.595 213.899 177.596 240.779C183.597 267.659 163.937 277.572 134.271 284.197C104.606 290.822 76.1693 291.65 70.1681 264.77Z" fill="white" fill-opacity="0.85"/>
<path d="M92.1281 315.333C94.8891 309.511 82.0947 297.661 63.5509 288.864C45.0072 280.068 27.7364 277.657 24.9753 283.48C22.2143 289.302 35.0087 301.152 53.5524 309.949C72.0962 318.745 89.3671 321.156 92.1281 315.333Z" fill="#2C292D"/>
<path d="M105.756 360.714C105.756 367.989 124.486 382.355 145.27 382.355C166.053 382.355 185.54 361.873 185.54 354.598C185.54 347.322 166.053 356.009 145.27 356.009C124.486 356.009 105.756 353.438 105.756 360.714Z" fill="white" fill-opacity="0.85"/>
<path d="M401.421 440.222C411.813 440.222 420.237 437.062 420.237 433.165C420.237 429.267 411.813 426.108 401.421 426.108C391.03 426.108 382.605 429.267 382.605 433.165C382.605 437.062 391.03 440.222 401.421 440.222Z" fill="#4C474D"/>
<path d="M356.263 439.281C366.655 439.281 375.079 436.121 375.079 432.224C375.079 428.326 366.655 425.167 356.263 425.167C345.871 425.167 337.447 428.326 337.447 432.224C337.447 436.121 345.871 439.281 356.263 439.281Z" fill="#4C474D"/>
<path d="M334.336 329.121C337.554 323.538 325.748 310.702 307.967 300.45C290.187 290.199 273.164 286.414 269.946 291.996C266.728 297.579 278.534 310.415 296.315 320.667C314.095 330.919 331.118 334.704 334.336 329.121Z" fill="#4C474D"/>
<path d="M386.369 408.23C427.416 408.23 460.692 374.95 460.692 333.897C460.692 292.844 427.416 259.564 386.369 259.564C345.321 259.564 312.046 292.844 312.046 333.897C312.046 374.95 345.321 408.23 386.369 408.23Z" fill="#4C474D"/>
<path d="M420.238 392.234H397.659V432.694H420.238V392.234Z" fill="#4C474D"/>
<path d="M375.079 392.234H352.5V432.694H375.079V392.234Z" fill="#4C474D"/>
<path d="M368.955 340.484C382.984 340.484 394.357 329.11 394.357 315.079C394.357 301.048 382.984 289.674 368.955 289.674C354.926 289.674 343.554 301.048 343.554 315.079C343.554 329.11 354.926 340.484 368.955 340.484Z" fill="white" fill-opacity="0.85"/>
<path d="M362.835 317.592C366.153 314.277 366.174 308.919 362.883 305.624C359.592 302.329 354.234 302.346 350.916 305.661C347.599 308.976 347.577 314.335 350.869 317.629C354.16 320.924 359.518 320.908 362.835 317.592Z" fill="#1F1D20"/>
<path d="M394.361 284.197C364.696 277.572 345.035 267.659 351.037 240.779C357.038 213.899 385.951 197.479 415.617 204.104C445.282 210.729 464.465 237.89 458.464 264.77C452.463 291.65 424.026 290.822 394.361 284.197Z" fill="#1AC0E5"/>
<path d="M464.089 390.559C470.316 388.904 471.093 371.481 465.825 351.643C460.556 331.804 451.237 317.062 445.01 318.717C438.783 320.371 438.006 337.794 443.274 357.633C448.543 377.471 457.862 392.213 464.089 390.559Z" fill="#4C474D"/>
<path d="M369.531 356.01C355.886 356.01 343.092 347.324 343.092 354.599C343.092 361.874 355.886 382.356 369.531 382.356C383.176 382.356 395.472 367.99 395.472 360.715C395.472 353.44 383.176 356.01 369.531 356.01Z" fill="white" fill-opacity="0.85"/>
<path d="M273.481 210.651H266.88C260.968 210.644 255.299 208.292 251.118 204.11C246.937 199.929 244.586 194.26 244.579 188.346V182.804C244.579 169.077 247.179 157.584 252.308 148.643C258.524 138.243 265.776 128.498 273.953 119.558C279.381 114.098 284.307 108.16 288.669 101.817C291.8 96.8884 293.416 91.15 293.317 85.3122C293.317 71.5424 284.348 64.8483 265.894 64.8483C255.658 64.964 245.487 66.4909 235.668 69.3857C231.881 70.4668 227.895 70.6541 224.024 69.9329C220.152 69.2118 216.501 67.6018 213.358 65.2297C210.214 62.8576 207.664 59.7882 205.908 56.263C204.151 52.7378 203.237 48.8531 203.237 44.9145V33.6957C203.215 28.8662 204.595 24.1341 207.208 20.073C209.822 16.0119 213.557 12.7962 217.961 10.8157C235.303 3.41401 254.005 -0.265558 272.857 0.0149085C292.607 0.0149085 310.436 3.33284 325.849 9.87518C341.291 16.4327 353.491 25.6794 362.109 37.3592C370.702 48.9563 375.269 63.0445 375.115 77.4779C375.115 92.9771 370.884 106.476 362.54 117.601C354.287 128.612 342.456 140.667 327.376 153.432C319.431 160.041 311.902 167.135 304.832 174.673C300.266 179.592 297.039 185.601 295.459 192.125C294.58 197.314 291.888 202.024 287.864 205.416C283.84 208.808 278.743 210.662 273.481 210.651Z" fill="#12C1A2"/>
<path d="M269.81 315.54H268.94C257.982 315.533 247.476 311.175 239.73 303.423C231.984 295.671 227.633 285.16 227.633 274.201C227.633 263.242 231.984 252.731 239.73 244.98C247.476 237.228 257.982 232.869 268.94 232.862H269.81C275.241 232.859 280.618 233.925 285.636 236.001C290.654 238.077 295.214 241.122 299.055 244.961C302.896 248.8 305.943 253.358 308.022 258.375C310.101 263.393 311.171 268.77 311.171 274.201C311.171 279.632 310.101 285.01 308.022 290.027C305.943 295.044 302.896 299.603 299.055 303.442C295.214 307.281 290.654 310.325 285.636 312.401C280.618 314.477 275.241 315.544 269.81 315.54Z" fill="#12C1A2"/>
<path d="M538.43 441H1.72574C1.26804 441 0.82912 440.818 0.505482 440.494C0.181843 440.171 0 439.732 0 439.274C0 438.816 0.181843 438.377 0.505482 438.054C0.82912 437.73 1.26804 437.548 1.72574 437.548H538.43C538.888 437.548 539.326 437.73 539.65 438.054C539.974 438.377 540.156 438.816 540.156 439.274C540.156 439.732 539.974 440.171 539.65 440.494C539.326 440.818 538.888 441 538.43 441Z" fill="#454149"/>
<path d="M105.65 148.685C111.813 148.685 116.81 143.687 116.81 137.523C116.81 131.359 111.813 126.361 105.65 126.361C99.4863 126.361 94.4897 131.359 94.4897 137.523C94.4897 143.687 99.4863 148.685 105.65 148.685Z" fill="white" fill-opacity="0.85"/>
</svg>
