<svg width="618" height="644" viewBox="0 0 618 644" fill="none" xmlns="http://www.w3.org/2000/svg">
<path fill-rule="evenodd" clip-rule="evenodd" d="M273.626 1.44184C378.525 -10.5498 477.676 53.7944 542.298 137.291C605.75 219.277 638.997 329.546 602.725 426.665C570.068 514.105 465.172 534.277 379.876 572.181C299.932 607.707 218.647 667.079 137.999 633.182C54.5103 598.092 15.5942 503.061 2.2886 413.481C-9.72847 332.576 27.3381 259.328 72.3226 191.017C125.657 110.026 177.279 12.4557 273.626 1.44184Z" fill="#1C1A1E"/>
<path d="M147.21 502.222C157.602 502.222 166.026 499.062 166.026 495.165C166.026 491.267 157.602 488.108 147.21 488.108C136.819 488.108 128.395 491.267 128.395 495.165C128.395 499.062 136.819 502.222 147.21 502.222Z" fill="#2C292D"/>
<path d="M192.37 501.281C202.761 501.281 211.186 498.121 211.186 494.224C211.186 490.326 202.761 487.167 192.37 487.167C181.978 487.167 173.554 490.326 173.554 494.224C173.554 498.121 181.978 501.281 192.37 501.281Z" fill="#2C292D"/>
<path d="M252.319 382.667C270.099 372.415 281.905 359.579 278.687 353.997C275.469 348.414 258.446 352.199 240.666 362.45C222.885 372.702 211.079 385.538 214.297 391.121C217.515 396.704 234.538 392.919 252.319 382.667Z" fill="#2C292D"/>
<path d="M235.628 407.804C242.203 367.281 214.687 329.1 174.17 322.524C133.652 315.948 95.4764 343.468 88.9013 383.991C82.3262 424.513 109.842 462.695 150.359 469.27C190.877 475.846 229.053 448.327 235.628 407.804Z" fill="#2C292D"/>
<path d="M150.974 454.234H128.395V494.694H150.974V454.234Z" fill="#2C292D"/>
<path d="M196.133 454.234H173.554V494.694H196.133V454.234Z" fill="#2C292D"/>
<path d="M164.146 402.484C178.175 402.484 189.547 391.11 189.547 377.079C189.547 363.048 178.175 351.674 164.146 351.674C150.117 351.674 138.744 363.048 138.744 377.079C138.744 391.11 150.117 402.484 164.146 402.484Z" fill="white" fill-opacity="0.85"/>
<path d="M164.145 385.547C168.821 385.547 172.612 381.756 172.612 377.079C172.612 372.402 168.821 368.61 164.145 368.61C159.469 368.61 155.678 372.402 155.678 377.079C155.678 381.756 159.469 385.547 164.145 385.547Z" fill="#1A181B"/>
<path d="M90.1681 326.77C84.1669 299.89 103.35 272.729 133.016 266.104C162.681 259.479 191.595 275.899 197.596 302.779C203.597 329.659 183.937 339.572 154.271 346.197C124.606 352.822 96.1693 353.65 90.1681 326.77Z" fill="white" fill-opacity="0.85"/>
<path d="M112.128 377.333C114.889 371.511 102.094 359.661 83.5505 350.864C65.0067 342.068 47.7359 339.657 44.9749 345.48C42.2138 351.302 55.0082 363.152 73.5519 371.949C92.0957 380.745 109.367 383.156 112.128 377.333Z" fill="#2C292D"/>
<path d="M125.756 422.714C125.756 429.989 144.486 444.355 165.269 444.355C186.053 444.355 205.54 423.873 205.54 416.598C205.54 409.323 186.053 418.009 165.269 418.009C144.486 418.009 125.756 415.438 125.756 422.714Z" fill="white" fill-opacity="0.85"/>
<path d="M421.421 502.222C431.813 502.222 440.237 499.062 440.237 495.165C440.237 491.267 431.813 488.108 421.421 488.108C411.03 488.108 402.605 491.267 402.605 495.165C402.605 499.062 411.03 502.222 421.421 502.222Z" fill="#4C474D"/>
<path d="M376.263 501.281C386.655 501.281 395.079 498.121 395.079 494.224C395.079 490.326 386.655 487.167 376.263 487.167C365.871 487.167 357.447 490.326 357.447 494.224C357.447 498.121 365.871 501.281 376.263 501.281Z" fill="#4C474D"/>
<path d="M354.335 391.121C357.553 385.538 345.748 372.702 327.967 362.45C310.186 352.199 293.163 348.414 289.946 353.996C286.728 359.579 298.533 372.415 316.314 382.667C334.095 392.919 351.118 396.704 354.335 391.121Z" fill="#4C474D"/>
<path d="M406.369 470.23C447.416 470.23 480.692 436.95 480.692 395.897C480.692 354.844 447.416 321.564 406.369 321.564C365.321 321.564 332.046 354.844 332.046 395.897C332.046 436.95 365.321 470.23 406.369 470.23Z" fill="#4C474D"/>
<path d="M440.237 454.234H417.658V494.694H440.237V454.234Z" fill="#4C474D"/>
<path d="M395.079 454.234H372.5V494.694H395.079V454.234Z" fill="#4C474D"/>
<path d="M388.955 402.484C402.984 402.484 414.357 391.11 414.357 377.079C414.357 363.048 402.984 351.674 388.955 351.674C374.926 351.674 363.554 363.048 363.554 377.079C363.554 391.11 374.926 402.484 388.955 402.484Z" fill="white" fill-opacity="0.85"/>
<path d="M382.835 379.592C386.153 376.277 386.174 370.919 382.883 367.624C379.592 364.329 374.234 364.346 370.916 367.661C367.599 370.976 367.577 376.334 370.869 379.629C374.16 382.924 379.518 382.908 382.835 379.592Z" fill="#1F1D20"/>
<path d="M414.36 346.197C384.695 339.572 365.035 329.659 371.036 302.779C377.037 275.899 405.951 259.479 435.616 266.104C465.281 272.729 484.465 299.89 478.464 326.77C472.462 353.65 444.026 352.822 414.36 346.197Z" fill="#1AC0E5"/>
<path d="M484.089 452.559C490.317 450.904 491.094 433.481 485.825 413.643C480.557 393.804 471.238 379.062 465.011 380.717C458.783 382.371 458.006 399.794 463.275 419.633C468.543 439.471 477.862 454.213 484.089 452.559Z" fill="#4C474D"/>
<path d="M389.531 418.01C375.886 418.01 363.093 409.324 363.093 416.599C363.093 423.874 375.886 444.356 389.531 444.356C403.176 444.356 415.473 429.99 415.473 422.715C415.473 415.44 403.176 418.01 389.531 418.01Z" fill="white" fill-opacity="0.85"/>
<path d="M293.48 272.651H286.88C280.967 272.644 275.299 270.292 271.118 266.11C266.937 261.929 264.585 256.26 264.578 250.346V244.804C264.578 231.077 267.179 219.584 272.308 210.643C278.524 200.243 285.775 190.498 293.952 181.558C299.381 176.098 304.306 170.16 308.669 163.817C311.799 158.888 313.415 153.15 313.317 147.312C313.317 133.542 304.347 126.848 285.894 126.848C275.658 126.964 265.487 128.491 255.667 131.386C251.881 132.467 247.895 132.654 244.023 131.933C240.152 131.212 236.501 129.602 233.357 127.23C230.213 124.858 227.663 121.788 225.907 118.263C224.151 114.738 223.237 110.853 223.237 106.915V95.6957C223.215 90.8662 224.594 86.1341 227.208 82.073C229.821 78.0119 233.557 74.7962 237.961 72.8157C255.302 65.414 274.004 61.7344 292.857 62.0149C312.607 62.0149 330.435 65.3328 345.849 71.8752C361.29 78.4327 373.49 87.6794 382.109 99.3592C390.701 110.956 395.269 125.045 395.114 139.478C395.114 154.977 390.883 168.476 382.539 179.601C374.286 190.612 362.456 202.667 347.376 215.432C339.43 222.041 331.901 229.135 324.832 236.673C320.265 241.592 317.038 247.601 315.459 254.125C314.579 259.314 311.888 264.024 307.864 267.416C303.839 270.808 298.743 272.662 293.48 272.651Z" fill="#12C1A2"/>
<path d="M289.811 377.54H288.94C277.983 377.533 267.476 373.175 259.731 365.423C251.985 357.671 247.634 347.16 247.634 336.201C247.634 325.242 251.985 314.731 259.731 306.98C267.476 299.228 277.983 294.869 288.94 294.862H289.811C295.241 294.859 300.619 295.925 305.637 298.001C310.655 300.077 315.214 303.122 319.055 306.961C322.896 310.8 325.943 315.358 328.022 320.375C330.101 325.393 331.171 330.77 331.171 336.201C331.171 341.632 330.101 347.01 328.022 352.027C325.943 357.044 322.896 361.603 319.055 365.442C315.214 369.281 310.655 372.325 305.637 374.401C300.619 376.477 295.241 377.544 289.811 377.54Z" fill="#12C1A2"/>
<path d="M125.65 210.685C131.814 210.685 136.811 205.687 136.811 199.523C136.811 193.359 131.814 188.361 125.65 188.361C119.487 188.361 114.49 193.359 114.49 199.523C114.49 205.687 119.487 210.685 125.65 210.685Z" fill="white" fill-opacity="0.85"/>
</svg>
