<svg xmlns="http://www.w3.org/2000/svg" xmlns:xlink="http://www.w3.org/1999/xlink" viewBox="0 0 218.69 140.96"><defs><style>.cls-1{fill:none;}.cls-2{isolation:isolate;}.cls-3{fill:#0f3b66;}.cls-4{clip-path:url(#clip-path);}.cls-5{fill:#14528f;}.cls-6{fill:#14508b;}.cls-7{fill:#134d87;}.cls-8{fill:#134b83;}.cls-9{fill:#12497e;}.cls-10{fill:#11467a;}.cls-11{fill:#114476;}.cls-12{fill:#104272;}.cls-13{fill:#103f6e;}.cls-14{fill:#0f3d6a;}.cls-15{clip-path:url(#clip-path-2);}.cls-16{clip-path:url(#clip-path-3);}.cls-17{clip-path:url(#clip-path-4);}.cls-18{clip-path:url(#clip-path-5);}.cls-19{clip-path:url(#clip-path-6);}.cls-20{clip-path:url(#clip-path-7);}.cls-21{clip-path:url(#clip-path-8);}.cls-22{clip-path:url(#clip-path-9);}.cls-23{clip-path:url(#clip-path-10);}.cls-24{clip-path:url(#clip-path-11);}.cls-25{fill:#165799;}.cls-26{fill:#14518c;}.cls-27{clip-path:url(#clip-path-12);}.cls-28{fill:#155493;}.cls-29{fill:#155797;}.cls-30{fill:#16599b;}.cls-31{fill:#175b9f;}.cls-32{fill:#175ea3;}.cls-33{fill:#1860a7;}.cls-34{clip-path:url(#clip-path-13);}.cls-35{fill:#1862ab;}.cls-36{fill:#1965af;}.cls-37{fill:#1a67b4;}.cls-38{fill:#1a69b8;}.cls-39{clip-path:url(#clip-path-14);}.cls-40{clip-path:url(#clip-path-15);}.cls-41{fill:#1965b0;}.cls-42{clip-path:url(#clip-path-16);}.cls-43{fill:#1b6cbc;}.cls-44{fill:#1b6ec0;}.cls-45{fill:#1c70c4;}.cls-46{fill:#1c73c8;}.cls-47{fill:#1d75cc;}.cls-48{fill:#3886d2;}.cls-49{fill:#438cd5;}.cls-50{fill:#4c92d7;}.cls-51{fill:#5396d8;}.cls-52{fill:#5a9ada;}.cls-53{fill:#5f9edb;}.cls-54{fill:#65a1dc;}.cls-55{fill:#6aa4dd;}.cls-56{fill:#6ea7de;}.cls-57{fill:#73a9df;}.cls-58{fill:#77ace0;}.cls-59{fill:#7baee1;}.cls-60{fill:#7fb1e2;}.cls-61{fill:#82b3e3;}.cls-62{fill:#86b5e4;}.cls-63{fill:#89b7e4;}.cls-64{fill:#8db9e5;}.cls-65{clip-path:url(#clip-path-17);}.cls-66{clip-path:url(#clip-path-18);}.cls-67{clip-path:url(#clip-path-19);}.cls-68{clip-path:url(#clip-path-20);}.cls-69{fill:#165899;}.cls-70{clip-path:url(#clip-path-21);}.cls-71{clip-path:url(#clip-path-22);}</style><clipPath id="clip-path" transform="translate(0)"><path class="cls-1" d="M86,17.27,110.94.09a1.91,1.91,0,0,0-.56,1.25L89.12,16A7.9,7.9,0,0,0,86,17.27Z"/></clipPath><clipPath id="clip-path-2" transform="translate(0)"><path class="cls-1" d="M88.84,17.33a4.09,4.09,0,0,0-.81.92,7.46,7.46,0,0,0-.69,1.32,12.73,12.73,0,0,0-.85,3.89,19.28,19.28,0,0,0,.09,3.66,21.78,21.78,0,0,0,1,4.35l-4.49-2C80.91,23.06,83.62,17,89.12,16l1.11.49A5.18,5.18,0,0,0,88.84,17.33Z"/></clipPath><clipPath id="clip-path-3" transform="translate(0)"><path class="cls-1" d="M38.33,68.88a13.43,13.43,0,0,1,.57,1.94h0c.06.3.17.68.23,1,.27,1.38.28,1.44.35,1.94a26,26,0,0,1,.25,3.71,19,19,0,0,1-.32,3.26,11.66,11.66,0,0,1-1.09,3.14c1.41-3.1,1.12-9.56-.82-15.33Z"/></clipPath><clipPath id="clip-path-4" transform="translate(0)"><path class="cls-1" d="M25.66,58.93l3-2a1.9,1.9,0,0,0-.56,1.24l-1.14.79A1.24,1.24,0,0,0,25.66,58.93Z"/></clipPath><clipPath id="clip-path-5" transform="translate(0)"><path class="cls-1" d="M31,57.74a1.93,1.93,0,0,0-1.3.19,2.51,2.51,0,0,0-.66.61l-.93-.41c.2-1.11.6-1.5,1.13-1.27,2.82,1.23,2.82,1.23,3,1.35a8,8,0,0,1,1.9,1.64A17.83,17.83,0,0,1,37.36,66l-.83-.36c-1.4-4.18-3.32-7-5-7.74l.25.11A3.59,3.59,0,0,0,31,57.74Z"/></clipPath><clipPath id="clip-path-6" transform="translate(0)"><path class="cls-1" d="M3.72,74.07,25.66,58.93a1.24,1.24,0,0,1,1.26,0L6.79,72.81A7.77,7.77,0,0,0,3.72,74.07Z"/></clipPath><clipPath id="clip-path-7" transform="translate(0)"><path class="cls-1" d="M81.17,50.21q2.43-13.74,4.88-27.5c.52-3,2-5.32,4.18-6.21L84.59,48.32C82.69,47.49,81.51,48.28,81.17,50.21Z"/></clipPath><clipPath id="clip-path-8" transform="translate(0)"><path class="cls-1" d="M30.27,57.69,82.86,48a3,3,0,0,1,1.73.3L29,58.54A2.07,2.07,0,0,1,30.27,57.69Z"/></clipPath><clipPath id="clip-path-9" transform="translate(0)"><path class="cls-1" d="M121,86.23,89.38,92l-5.1.94-9.44,1.73-2.19.41-2.11.38a12,12,0,0,1-2,.38c6.08-1.12,9.37-5.26,7.62-10.47L121.68,77C123.42,82.25,123,85.85,121,86.23Z"/></clipPath><clipPath id="clip-path-10" transform="translate(0)"><path class="cls-1" d="M189.51,84.1l-27.8-12.17-6.45-2.82-6.2-2.71-5.95-2.6-5.66-2.48L132.09,59l-5-2.2c.83.36.6-1.7-.8-5.88l59.46,26C187.11,81.08,188.53,83.67,189.51,84.1Z"/></clipPath><clipPath id="clip-path-11" transform="translate(0)"><path class="cls-1" d="M127.51,56.45q-1,5.67-2,11.33c-.38,2.21-.77,4.41-1.15,6.61-.2,1.11-.45,2.58-.65,3.69L123.38,80c-.21,1.2-.13,2.93-.7,4a15.3,15.3,0,0,0-1-7l4.57-26.15C127.24,53.82,127.64,55.71,127.51,56.45Z"/></clipPath><clipPath id="clip-path-12" transform="translate(0)"><path class="cls-1" d="M110.47,59.7c3.49,1.53,8.07,8,10.23,14.42L75.15,82.5C73,76.06,64,70.42,55,69.9Z"/></clipPath><clipPath id="clip-path-13" transform="translate(0)"><path class="cls-1" d="M116.05,27.79A114.94,114.94,0,0,1,125.28,48L120.7,74.12c-2.16-6.44-6.74-12.89-10.23-14.42Z"/></clipPath><clipPath id="clip-path-14" transform="translate(0)"><path class="cls-1" d="M111.5.06C144,14.28,170.25,42.7,209,42.7a10.08,10.08,0,0,0-5.84-.79L110.38,1.34C110.58.23,111-.17,111.5.06Z"/></clipPath><clipPath id="clip-path-15" transform="translate(0)"><path class="cls-1" d="M215,66.89l-24.9,17.18c-.93.64-2.67-2.08-4.37-7.17L218,54.66C219.65,59.74,218.32,64.58,215,66.89Z"/></clipPath><clipPath id="clip-path-16" transform="translate(0)"><path class="cls-1" d="M203.11,41.91c5.5-1,11.71,3.39,13.86,9.83L184.74,74c-2.16-6.44-3.45-14.24-2.89-17.41Z"/></clipPath><clipPath id="clip-path-17" transform="translate(0)"><path class="cls-1" d="M181.85,56.58c-.56,3.17.73,11,2.89,17.41L125.28,48a114.94,114.94,0,0,0-9.23-20.18Z"/></clipPath><clipPath id="clip-path-18" transform="translate(0)"><path class="cls-1" d="M64.13,72.15,92.37,84.5l13.12,5.74L123,97.91c1.09.47,2.44,1.58,3.63,1.58a10,10,0,0,0-5.84-.78L55,69.9A27,27,0,0,1,64.13,72.15Z"/></clipPath><clipPath id="clip-path-19" transform="translate(0)"><path class="cls-1" d="M132.66,123.68l-24.91,17.18c-.93.65-2.66-2.08-4.36-7.16l32.24-22.25C137.33,116.54,136,121.37,132.66,123.68Z"/></clipPath><clipPath id="clip-path-20" transform="translate(0)"><path class="cls-1" d="M107.19,140.89l-9.92-4.33-4.91-2.15-9.76-4.27L77.75,128l-9.65-4.23-4.82-2.11-14.45-6.32L44,113.25l-4.84-2.12-9.71-4.25-9.8-4.28L9.74,98.26a15.22,15.22,0,0,1-8-9.05L103.39,133.7C104.79,137.88,106.21,140.47,107.19,140.89Z"/></clipPath><clipPath id="clip-path-21" transform="translate(0)"><path class="cls-1" d="M120.79,98.71c5.5-1,11.71,3.39,13.87,9.83l-32.25,22.24c-2.16-6.44-3.45-14.23-2.88-17.4Z"/></clipPath><clipPath id="clip-path-22" transform="translate(0)"><path class="cls-1" d="M99.53,113.38c-.57,3.17.72,11,2.88,17.4L.74,86.3c-2.16-6.44.56-12.48,6.05-13.49Z"/></clipPath></defs><title>Asset 1mdpi</title><g id="Layer_2" data-name="Layer 2"><g id="Layer_1-2" data-name="Layer 1"><g class="cls-2"><polygon class="cls-3" points="86.8 31.13 87.78 34.05 84.04 32.41 83.07 29.5 86.8 31.13"/><g class="cls-2"><g class="cls-4"><g class="cls-2"><path class="cls-5" d="M110.38,1.34,89.12,16h0L110.38,1.33h0" transform="translate(0)"/><path class="cls-6" d="M110.38,1.33,89.11,16l-.24,0L110.41,1.2l0,.13" transform="translate(0)"/><path class="cls-7" d="M110.41,1.2,88.87,16.06l-.23.05,21.8-15,0,.12" transform="translate(0)"/><path class="cls-8" d="M110.44,1.08l-21.8,15-.22.06L110.46,1a.5.5,0,0,0,0,.12" transform="translate(0)"/><path class="cls-9" d="M110.46,1l-22,15.21-.26.07L110.5.83a.93.93,0,0,1,0,.13" transform="translate(0)"/><path class="cls-10" d="M110.5.83,88.16,16.24l-.28.1L110.54.7l0,.13" transform="translate(0)"/><path class="cls-11" d="M110.54.7h0l-1.16.8-1.15.8-1.15.79-1.14.79-1.13.78-1.12.77-1.13.78L101.45,7l-1.12.77-1.12.77-1.11.77L97,10.06l-1.12.77-1.12.78-1.13.77-1.13.78L91.34,14l-1.14.79-1.15.79-1.17.81-.27.1,23-15.86,0,.12" transform="translate(0)"/><path class="cls-12" d="M110.59.58l-23,15.86-.38.16L110.66.43a1,1,0,0,0-.07.15" transform="translate(0)"/><path class="cls-13" d="M110.66.43,87.23,16.6l-.39.19L110.74.3l-.08.13" transform="translate(0)"/><path class="cls-14" d="M110.74.3,86.84,16.79a6.52,6.52,0,0,0-.8.48l1.32-.91,1.3-.9,1.28-.88,1.25-.87,1.25-.85L93.66,12l1.22-.84,1.21-.83,1.2-.83,1.2-.83,1.2-.83,1.2-.83,1.21-.83,1.22-.84,1.22-.85,1.24-.85L107,2.78l1.28-.88,1.3-.89,1.32-.92a.81.81,0,0,0-.2.21" transform="translate(0)"/></g></g></g><g class="cls-2"><g class="cls-15"><g class="cls-2"><path class="cls-5" d="M89.12,16l1.11.49,0,0L89.05,16h.07" transform="translate(0)"/><path class="cls-6" d="M89.05,16l1.14.5a5.28,5.28,0,0,0-.75.38L88,16.28c.33-.1.67-.19,1-.26" transform="translate(0)"/><path class="cls-7" d="M88,16.28l1.41.62a4.67,4.67,0,0,0-.51.36l-1.6-.71a7.26,7.26,0,0,1,.7-.27" transform="translate(0)"/><path class="cls-8" d="M87.33,16.55l1.6.71-.09.07-.23.2-.1.11-1.79-.79.61-.3" transform="translate(0)"/><path class="cls-9" d="M86.72,16.85l1.79.79h0l-.2.23-.16.21-2-.88c.19-.12.38-.24.58-.35" transform="translate(0)"/><path class="cls-10" d="M86.14,17.2l2,.88h0l-.17.25-.18.29h0l0,0,0,0-.07,0-.09,0-.1,0-.13-.06-.14-.06L87,18.27l-.19-.09-.2-.09-.24-.1-.25-.11-.28-.12-.28-.12c.19-.16.39-.3.59-.44" transform="translate(0)"/><path class="cls-11" d="M85.55,17.64l.31.13.27.12.26.11.23.1.21.09.18.08.16.07.15.07.12.05.1.05.09,0,.06,0,0,0,0,0h0l-.27.53-.08.17-2.53-1.11q.3-.3.63-.57" transform="translate(0)"/><path class="cls-12" d="M84.92,18.21l2.53,1.11h0l-.11.25-.25.67,0,.06L84.2,19a8.08,8.08,0,0,1,.72-.83" transform="translate(0)"/><path class="cls-13" d="M84.2,19l2.87,1.26h0l-.2.71h0l-.17.77,0,.1-3.32-1.45A8.85,8.85,0,0,1,84.2,19" transform="translate(0)"/><path class="cls-14" d="M83.36,20.43l3.32,1.45h0l-.11.74-.08.84,0,.88h0v.9l0,.93h0l.09.94.14,1h0l.18,1,.23,1h0l.28,1,.15.49h0l-4.49-2a12,12,0,0,1,.29-9.07" transform="translate(0)"/></g></g></g><g class="cls-2"><g class="cls-16"><g class="cls-2"><path class="cls-14" d="M37.5,68.52l.83.36.31,1,.26,1h0l.23,1,.19,1h0l.16,1,.11,1h0l.08.94,0,.92h0v.89l0,.87h0l-.07.82-.09.8v0l-.13.74-.16.7v0l-.17.58-.19.54-.07.18-.1.26-.11.24-.11.23-.11.23-.06.13c1.41-3.1,1.12-9.56-.82-15.33" transform="translate(0)"/></g></g></g><g class="cls-2"><g class="cls-17"><g class="cls-2"><polyline class="cls-5" points="28.06 58.13 26.92 58.92 26.92 58.92 28.06 58.13 28.06 58.13"/><path class="cls-6" d="M28.06,58.12l-1.14.8-.11-.05L28.09,58l0,.13" transform="translate(0)"/><path class="cls-7" d="M28.09,58l-1.28.88-.1,0,.06,0,.06,0,.05,0,.06,0,.06,0,.06,0,.06,0,.06-.05.07,0,.06,0,.07,0,.07-.05.08,0,.07-.06.08,0,.08-.05.08-.06.09-.06.09-.07.1-.06,0,.12" transform="translate(0)"/><path class="cls-8" d="M28.12,57.87l-1.41,1-.1,0,.06,0,.06,0,.05,0,.06,0,.06,0,.07,0,.06,0,.06,0,.07,0,.07,0,.08-.05.07,0,.08-.06.09,0,.08-.07.1-.06.09-.07.11-.07.1-.07.12-.08,0,.12" transform="translate(0)"/><path class="cls-9" d="M28.15,57.75l-1.54,1.06-.11,0,1.68-1.16,0,.13" transform="translate(0)"/><path class="cls-10" d="M28.18,57.62,26.5,58.78l-.12,0,1.84-1.26a.56.56,0,0,1,0,.12" transform="translate(0)"/><path class="cls-11" d="M28.22,57.5l-1.84,1.26h-.11l.06,0,.06,0,.06,0,.06,0,.06,0,.07,0,.07,0,.07-.05.08,0,.09-.06.09-.07.1-.06.11-.08.11-.08.13-.08.13-.1.15-.1.15-.1.17-.12.18-.12a.73.73,0,0,0-.05.12" transform="translate(0)"/><path class="cls-12" d="M28.27,57.38l-2,1.38h-.15l2.22-1.53a1.07,1.07,0,0,0-.07.15" transform="translate(0)"/><path class="cls-13" d="M28.34,57.23l-2.22,1.53-.16,0,2.46-1.7s-.05.09-.08.14" transform="translate(0)"/><path class="cls-14" d="M28.42,57.09,26,58.79a.83.83,0,0,0-.3.14l.06,0,.06,0,.06-.05.06,0,.07,0,.08-.05.09-.06.09-.07.11-.07.12-.08.13-.09.15-.11.16-.11.18-.12.2-.14.22-.15.25-.17L28,57.3l.29-.2.32-.21a.63.63,0,0,0-.2.2" transform="translate(0)"/></g></g></g><g class="cls-2"><g class="cls-18"><g class="cls-2"><path class="cls-5" d="M29,58.54l-.93-.41a3.65,3.65,0,0,1,.25-.85l.17.07.15.06.14.06.13.06.11,0,.11.05.1,0,.08,0,.08,0,.07,0,.06,0,0,0,.05,0,0,0h.08l-.07,0a2.51,2.51,0,0,0-.66.61" transform="translate(0)"/><path class="cls-6" d="M28.31,57.28a1.42,1.42,0,0,1,.24-.34l1.8.78h0l-.2,0-.18,0-.16.06,0,0-.05,0h-.07l0,0h0l-.05,0-.06,0-.06,0-.08,0-.09,0-.09,0-.11,0-.11-.05-.13,0-.13-.06-.15-.07-.16-.07h0" transform="translate(0)"/><path class="cls-7" d="M28.55,56.94a.71.71,0,0,1,.22-.13l2.11.92h0l-.34,0h-.19l-1.8-.78" transform="translate(0)"/><path class="cls-8" d="M31,57.74h-.07l-2.11-.92a.65.65,0,0,1,.24,0l2.39,1.05h0l-.33-.08-.12,0" transform="translate(0)"/><path class="cls-9" d="M31.49,57.86l.09,0,0,0,.07,0,.06,0-.32-.12h0L29,56.8l.18.06h0l.38.16.35.16.31.13.28.13.25.11.23.09.19.09.16.07.14.06.11,0,.08,0,.07,0,.22.11L31.68,58l-.19-.09" transform="translate(0)"/><path class="cls-10" d="M31.68,58l.28.13h0l.48.27.21.15-.39-.17a4.41,4.41,0,0,0-.58-.38" transform="translate(0)"/><path class="cls-11" d="M32.26,58.33l.39.17h0l.48.37.36.33L33,59a6,6,0,0,0-.72-.65" transform="translate(0)"/><path class="cls-12" d="M33,59l.51.22h0l.47.49.46.55.12.14-.64-.28A11,11,0,0,0,33,59" transform="translate(0)"/><path class="cls-13" d="M33.9,60.1l.64.28h0L35,61l.44.68.42.74.08.15-.77-.34A17.14,17.14,0,0,0,33.9,60.1" transform="translate(0)"/><path class="cls-14" d="M35.15,62.23l.77.34h0l.4.79.38.85.35.89.31.86-.83-.36a27,27,0,0,0-1.38-3.37" transform="translate(0)"/></g></g></g><g class="cls-2"><g class="cls-19"><g class="cls-2"><path class="cls-5" d="M26.92,58.92,6.79,72.81h0L26.92,58.92h0" transform="translate(0)"/><path class="cls-6" d="M26.92,58.92,6.78,72.81l-.23,0,20.26-14,.11.05" transform="translate(0)"/><path class="cls-7" d="M26.81,58.87l-20.26,14-.23,0L26.71,58.84l.1,0" transform="translate(0)"/><path class="cls-8" d="M26.71,58.84,6.32,72.91,6.09,73,26.61,58.81l.1,0" transform="translate(0)"/><path class="cls-9" d="M26.61,58.81h0l-1,.69-1,.7-1,.69-1,.7-1,.7-1,.69-1,.7-1,.7-1,.7-1,.71-1,.7-1,.71-1,.71-1,.71-1,.72-1,.72-1.05.72-1,.72-1.06.73L6.09,73,5.84,73,26.5,58.78l.11,0" transform="translate(0)"/><path class="cls-10" d="M26.5,58.78,5.84,73l-.28.09L26.38,58.76l.12,0" transform="translate(0)"/><path class="cls-11" d="M26.38,58.76,5.56,73.13l-.27.1,21-14.47h.11" transform="translate(0)"/><path class="cls-12" d="M26.27,58.76l-21,14.47-.38.16L26.12,58.76h.15" transform="translate(0)"/><path class="cls-13" d="M26.12,58.76,4.91,73.39c-.14.06-.27.13-.4.2L26,58.79l.16,0" transform="translate(0)"/><path class="cls-14" d="M26,58.79,4.51,73.59a6.4,6.4,0,0,0-.79.48h0L5,73.19l1.24-.85,1.22-.84,1.19-.82,1.17-.81L11,69.08l1.13-.78,1.11-.77,1.1-.76L15.37,66l1.07-.74,1-.73,1.05-.72,1-.71,1-.71,1-.71,1-.7,1-.69,1-.7,1-.69a.83.83,0,0,1,.3-.14" transform="translate(0)"/></g></g></g><g class="cls-2"><g class="cls-20"><g class="cls-2"><polyline class="cls-5" points="90.23 16.5 84.59 48.32 84.58 48.31 90.22 16.5 90.23 16.5"/><path class="cls-6" d="M90.22,16.5,84.58,48.31l-.18-.07L90,16.59l.2-.09" transform="translate(0)"/><path class="cls-7" d="M90,16.59,84.4,48.24l-.17-.06,5.58-31.49.21-.1" transform="translate(0)"/><path class="cls-8" d="M89.81,16.69,84.23,48.18l-.18-.06L89.61,16.8l.2-.11" transform="translate(0)"/><path class="cls-9" d="M89.61,16.8,84.05,48.12l-.19,0,5.53-31.14.22-.13" transform="translate(0)"/><path class="cls-10" d="M89.39,16.93,83.86,48.07l-.18,0,5.49-30.95.22-.15" transform="translate(0)"/><path class="cls-11" d="M89.17,17.08,83.68,48l-.22,0,5.45-30.73.26-.19" transform="translate(0)"/><path class="cls-12" d="M88.91,17.27h0l-.28,1.55-.27,1.55-.28,1.55-.27,1.56L87.53,25l-.27,1.56L87,28.15,86.7,29.7l-.27,1.56-.28,1.55-.27,1.55L85.6,35.9l-.27,1.54L85.06,39l-.27,1.53L84.52,42l-.27,1.51L84,45l-.26,1.49L83.46,48h-.24L88.63,17.5l.28-.23" transform="translate(0)"/><path class="cls-13" d="M88.63,17.5,83.22,48a1.73,1.73,0,0,0-.32,0l5.35-30.14.38-.38" transform="translate(0)"/><path class="cls-14" d="M88.25,17.88,82.9,48c-.92.14-1.51.92-1.73,2.19l.2-1.15.21-1.2.22-1.24L82,45.35,82.26,44l.24-1.33.24-1.36L83,40l.25-1.41.26-1.42.25-1.43L84,34.25l.26-1.45.25-1.46.26-1.45L85,28.43,85.29,27l.25-1.44.26-1.43.25-1.41a9.38,9.38,0,0,1,2.2-4.83" transform="translate(0)"/></g></g></g><g class="cls-2"><g class="cls-21"><g class="cls-2"><path class="cls-5" d="M84.59,48.32,29,58.54h0L84.58,48.31h0" transform="translate(0)"/><path class="cls-6" d="M84.58,48.31,29,58.53l.14-.16L84.35,48.22l.23.09" transform="translate(0)"/><path class="cls-7" d="M84.35,48.22,29.13,58.37l.13-.14,2.75-.5,2.75-.51,2.76-.5,2.75-.51L43,55.7l2.76-.5,2.76-.51,2.75-.51,2.76-.5,2.75-.51,2.75-.51,2.75-.5,2.75-.51,2.74-.5,2.74-.5,2.73-.51,2.73-.5,2.72-.5,2.71-.5,2.71-.49.21.07" transform="translate(0)"/><path class="cls-8" d="M84.14,48.15,29.26,58.23l.15-.12,54.51-10,.22.07" transform="translate(0)"/><path class="cls-9" d="M83.92,48.08l-54.51,10,.15-.12,2.72-.5L35,57l2.73-.5,2.73-.5,2.74-.51,2.73-.5,2.74-.5L51.4,54l2.73-.51,2.73-.5,2.72-.5L62.3,52l2.71-.5,2.7-.49,2.7-.5L73.09,50l2.68-.49L78.43,49l2.65-.49L83.71,48l.21,0" transform="translate(0)"/><path class="cls-10" d="M83.71,48,29.56,58l.17-.11L83.48,48l.23,0" transform="translate(0)"/><path class="cls-11" d="M83.48,48h0l-2.59.48L78.27,49l-2.62.48L73,49.93l-2.66.49-2.67.49L65,51.4l-2.69.5-2.7.49-2.71.5-2.71.5-2.72.5-2.72.5-2.72.5-2.72.5-2.72.5-2.72.5-2.72.5-2.71.5-2.7.49.2-.09L83.24,48h.24" transform="translate(0)"/><path class="cls-12" d="M83.24,48l-53.31,9.8.25-.08L83,48l.29,0" transform="translate(0)"/><path class="cls-13" d="M83,48l-52.77,9.7.09,0,2.65-.49,2.67-.49,2.67-.49,2.68-.49h0l2.69-.5,2.68-.49L49,54.25l2.68-.5,2.68-.49L57,52.77l2.66-.49,2.65-.49L65,51.31l2.62-.48,2.6-.48,2.58-.48,2.56-.47,2.53-.46,2.51-.46L82.86,48H83" transform="translate(0)"/></g></g></g><g class="cls-2"><g class="cls-22"><g class="cls-2"><path class="cls-9" d="M76.12,85.41,121.68,77c.16.5.31,1,.44,1.47l-3.77.69-3.65.67-3.54.66-3.41.62-3.28.6-3.14.58-3,.55-2.83.52-2.66.49-2.5.46-2.31.42-2.13.4L84,85.52l-1.74.32-1.52.28-1.31.24-1.09.2-.85.16-.62.11-.37.07a8.76,8.76,0,0,0-.37-1.49" transform="translate(0)"/><path class="cls-10" d="M76.49,86.9l45.63-8.39c.15.52.26,1,.36,1.49l-3.74.69-3.64.67-3.52.64-3.39.63-3.26.6-3.13.57-3,.55L96,84.87l-2.66.49-2.5.46-2.33.43-2.15.39L84.4,87l-1.76.33-1.56.28-1.35.25-1.13.21-.91.16-.67.13-.44.08a6.74,6.74,0,0,0-.09-1.54" transform="translate(0)"/><path class="cls-11" d="M76.58,88.44h0l.44-.08.67-.13.91-.16,1.13-.21,1.35-.25,1.56-.28L84.4,87l1.95-.36,2.15-.39,2.33-.43,2.5-.46L96,84.87l2.83-.52,3-.55,3.13-.57,3.26-.6,3.39-.63,3.52-.64,3.64-.67,3.74-.69c.1.49.17,1,.22,1.41L76.35,89.94a6.71,6.71,0,0,0,.23-1.5" transform="translate(0)"/><path class="cls-12" d="M76.35,89.94l46.35-8.53a10.62,10.62,0,0,1,.08,1.33l-47,8.65a7,7,0,0,0,.59-1.45" transform="translate(0)"/><path class="cls-13" d="M75.76,91.39l47-8.65a7.11,7.11,0,0,1-.1,1.27l-48,8.82a7.62,7.62,0,0,0,1.06-1.44" transform="translate(0)"/><path class="cls-14" d="M74.7,92.83h0l.94-.18,1.14-.2,1.31-.24,1.49-.28,1.66-.3,1.82-.34,2-.36,2.13-.4,2.29-.42,2.42-.44,2.56-.47,2.69-.5,2.82-.51,2.93-.54,3.05-.56,3.16-.59,3.26-.59,3.35-.62,3.45-.64,3.53-.64c-.21,1.27-.79,2-1.7,2.22l-3.08.56-3,.56h0l-3,.56-3,.54h0L106,89l-2.89.53-2.84.52-2.79.52-2.74.5-2.69.5L89.38,92l-2.58.47L84.28,93l-2.46.45-2.39.44-2.33.43h0l-2.26.41-2.19.41h0l-2.11.38-2,.38h0a11.16,11.16,0,0,0,6.2-3" transform="translate(0)"/></g></g></g><g class="cls-2"><g class="cls-23"><g class="cls-2"><path class="cls-14" d="M126.25,50.89l59.46,26c1.4,4.18,2.82,6.77,3.8,7.2l-3.62-1.59-3.59-1.57-3.55-1.55-3.5-1.54-3.46-1.51-3.41-1.49L165,73.38l-3.31-1.45-3.25-1.42-3.2-1.4-3.13-1.37-3.07-1.34-3-1.32-2.94-1.28-5.66-2.48h0l-2.72-1.19L132.09,59l-2.56-1.12-2.48-1.08c.83.36.6-1.7-.8-5.88" transform="translate(0)"/></g></g></g><g class="cls-2"><g class="cls-24"><g class="cls-2"><path class="cls-5" d="M121.68,77l4.57-26.15c.14.39.26.77.37,1.13L122,78.2c-.11-.38-.23-.77-.36-1.16" transform="translate(0)"/><path class="cls-6" d="M122,78.2,126.62,52c.11.36.22.71.31,1l-4.6,26.27c-.09-.36-.18-.74-.29-1.12" transform="translate(0)"/><path class="cls-7" d="M122.33,79.32l4.6-26.27c.09.32.17.63.24.91l-4.62,26.41c-.06-.34-.13-.69-.22-1.05" transform="translate(0)"/><path class="cls-8" d="M122.55,80.37,127.17,54q.1.42.18.78L122.7,81.35c0-.32-.09-.64-.15-1" transform="translate(0)"/><path class="cls-9" d="M122.7,81.35l4.65-26.61c.05.25.09.47.12.67l-4.7,26.84c0-.29,0-.59-.07-.9" transform="translate(0)"/><path class="cls-10" d="M122.77,82.25l4.7-26.84c0,.2,0,.37.06.53l-4.75,27.13c0-.26,0-.53,0-.82" transform="translate(0)"/><path class="cls-11" d="M122.78,83.07l4.75-27.13a2.8,2.8,0,0,1,0,.42l-4.81,27.47a6,6,0,0,0,.07-.76" transform="translate(0)"/><path class="cls-12" d="M122.71,83.83l4.81-27.47s0,.06,0,.09l-.1.54-.11.65-.13.75-.15.86-.17,1-.18,1-.2,1.14-.21,1.23L126,64.92l-.25,1.39-.26,1.47-.27,1.55L125,71l-.29,1.69-.31,1.75-.32,1.81-.33,1.88L123.38,80h0L123,82l-.36,2h0l0-.19" transform="translate(0)"/></g></g></g><polygon class="cls-25" points="125.28 47.97 126.25 50.88 121.67 77.04 120.7 74.12 125.28 47.97"/><polygon class="cls-26" points="120.7 74.12 121.67 77.04 76.13 85.41 75.15 82.5 120.7 74.12"/><g class="cls-2"><g class="cls-27"><g class="cls-2"><path class="cls-5" d="M55,69.9l55.5-10.2.22.11L55.55,69.94l-.58,0" transform="translate(0)"/><path class="cls-28" d="M55.55,69.94l55.14-10.13.25.12L56.17,70l-.62-.06" transform="translate(0)"/><path class="cls-29" d="M56.17,70l54.77-10.07.29.17-54.34,10L56.17,70" transform="translate(0)"/><path class="cls-30" d="M56.89,70.09l54.34-10,.31.2L57.65,70.21c-.25,0-.5-.08-.76-.12" transform="translate(0)"/><path class="cls-31" d="M57.65,70.21l53.89-9.91.44.31L58.7,70.41c-.35-.08-.7-.14-1.05-.2" transform="translate(0)"/><path class="cls-32" d="M58.7,70.41,112,60.61c.2.15.41.32.61.49L60.14,70.75c-.47-.13-1-.24-1.44-.34" transform="translate(0)"/><path class="cls-33" d="M60.14,70.75l52.45-9.65A18.53,18.53,0,0,1,114.5,63L64.38,72.26a27.7,27.7,0,0,0-4.24-1.51" transform="translate(0)"/><path class="cls-32" d="M64.38,72.26,114.5,63c.27.31.53.63.79,1L66,73.06c-.54-.28-1.09-.55-1.65-.8" transform="translate(0)"/><path class="cls-31" d="M66,73.06,115.29,64q.34.45.69.93L67.42,73.86c-.45-.28-.92-.55-1.39-.8" transform="translate(0)"/><path class="cls-30" d="M67.42,73.86,116,64.93q.34.48.69,1L68.75,74.73c-.43-.3-.87-.59-1.33-.87" transform="translate(0)"/><path class="cls-29" d="M68.75,74.73l47.92-8.81.7,1.1-47.3,8.7c-.43-.34-.86-.67-1.32-1" transform="translate(0)"/><path class="cls-28" d="M70.07,75.72l47.3-8.7c.24.4.48.81.71,1.22l-46.75,8.6c-.4-.38-.82-.76-1.26-1.12" transform="translate(0)"/><path class="cls-5" d="M71.33,76.84l46.75-8.6c.24.44.48.88.71,1.33L72.52,78.08c-.37-.42-.76-.84-1.19-1.24" transform="translate(0)"/><path class="cls-6" d="M72.52,78.08l46.27-8.51c.23.47.46.94.68,1.42L73.58,79.43a16.5,16.5,0,0,0-1.06-1.35" transform="translate(0)"/><path class="cls-7" d="M73.58,79.43,119.47,71q.33.75.63,1.5L74.46,80.88a14.76,14.76,0,0,0-.88-1.45" transform="translate(0)"/><path class="cls-8" d="M74.46,80.88l45.64-8.39c.2.51.4,1,.57,1.55L75.12,82.41a12,12,0,0,0-.66-1.53" transform="translate(0)"/><path class="cls-9" d="M75.12,82.41,120.67,74l0,.08L75.15,82.5l0-.09" transform="translate(0)"/></g></g></g><g class="cls-2"><g class="cls-34"><g class="cls-2"><path class="cls-5" d="M110.47,59.7l5.58-31.91c0,.08.1.15.14.23l-5.56,31.76-.16-.08" transform="translate(0)"/><path class="cls-28" d="M110.63,59.78,116.19,28c0,.08.1.17.16.25l-5.54,31.6-.18-.09" transform="translate(0)"/><path class="cls-29" d="M110.81,59.87l5.54-31.6.15.26L111,60l-.19-.09" transform="translate(0)"/><path class="cls-30" d="M111,60l5.5-31.43.18.3L111.2,60.08,111,60" transform="translate(0)"/><path class="cls-31" d="M111.2,60.08l5.48-31.25c0,.1.11.2.17.3l-5.44,31.09-.21-.14" transform="translate(0)"/><path class="cls-32" d="M111.41,60.22l5.44-31.09c.07.12.14.23.2.35l-5.4,30.89-.24-.15" transform="translate(0)"/><path class="cls-33" d="M111.65,60.37l5.4-30.89.24.42-5.37,30.67-.27-.2" transform="translate(0)"/><path class="cls-35" d="M111.92,60.57l5.37-30.67.28.51-5.32,30.41-.33-.25" transform="translate(0)"/><path class="cls-36" d="M112.25,60.82l5.32-30.41.36.67-5.27,30.09-.41-.35" transform="translate(0)"/><path class="cls-37" d="M112.66,61.17l5.27-30.09c.32.59.64,1.2,1,1.84l-5.13,29.3a13.32,13.32,0,0,0-1.1-1" transform="translate(0)"/><path class="cls-38" d="M113.76,62.22l5.13-29.3.19.39L114,62.45l-.22-.23" transform="translate(0)"/><path class="cls-37" d="M114,62.45l5.1-29.14c.49,1,1,2,1.47,3l-4.92,28.1a22.83,22.83,0,0,0-1.65-2" transform="translate(0)"/><path class="cls-36" d="M115.63,64.45l4.92-28.1c.27.57.53,1.15.79,1.73l-4.83,27.61c-.29-.43-.58-.84-.88-1.24" transform="translate(0)"/><path class="cls-35" d="M116.51,65.69l4.83-27.61c.24.52.47,1,.7,1.57l-4.77,27.21c-.25-.4-.5-.79-.76-1.17" transform="translate(0)"/><path class="cls-33" d="M117.27,66.86,122,39.65c.21.5.43,1,.63,1.49L118,68c-.23-.4-.46-.79-.7-1.18" transform="translate(0)"/><path class="cls-32" d="M118,68l4.7-26.9c.21.49.41,1,.6,1.46l-4.66,26.63c-.21-.4-.42-.8-.64-1.19" transform="translate(0)"/><path class="cls-31" d="M118.61,69.23l4.66-26.63c.2.47.38.94.56,1.41l-4.62,26.42q-.28-.6-.6-1.2" transform="translate(0)"/><path class="cls-30" d="M119.21,70.43,123.83,44l.53,1.36-4.6,26.28c-.18-.41-.36-.81-.55-1.22" transform="translate(0)"/><path class="cls-29" d="M119.76,71.65l4.6-26.28q.24.68.48,1.32l-4.59,26.18c-.16-.4-.32-.81-.49-1.22" transform="translate(0)"/><path class="cls-28" d="M120.25,72.87l4.59-26.18.43,1.25L120.69,74.1c-.14-.41-.28-.82-.44-1.23" transform="translate(0)"/><path class="cls-5" d="M120.69,74.1l4.58-26.16v0L120.7,74.12v0" transform="translate(0)"/></g></g></g><g class="cls-2"><g class="cls-39"><g class="cls-2"><path class="cls-5" d="M203.11,41.91,110.38,1.34a3.91,3.91,0,0,1,.25-.86L205,41.77a9.26,9.26,0,0,0-1.89.14" transform="translate(0)"/><path class="cls-6" d="M205,41.77,110.63.48a1.08,1.08,0,0,1,.24-.33L206.31,41.9a11.62,11.62,0,0,0-1.31-.13" transform="translate(0)"/><path class="cls-7" d="M206.31,41.9,110.87.15a.46.46,0,0,1,.22-.13l96.22,42.1c-.33-.09-.67-.16-1-.22" transform="translate(0)"/><path class="cls-8" d="M207.31,42.12,111.09,0a.48.48,0,0,1,.24,0l97,42.42c-.32-.12-.65-.22-1-.31" transform="translate(0)"/><path class="cls-9" d="M208.29,42.43,111.33,0l.17,0,5,2.18,4.94,2.16h0l4.91,2.15,4.89,2.14h0l4.87,2.13,4.85,2.12,4.83,2.12,4.83,2.11h0l4.81,2.1,4.82,2.11h0L165,23.49l4.82,2.11,4.82,2.11,4.84,2.11,4.85,2.12,4.86,2.13,4.89,2.14L199,38.36h0L204,40.52l5,2.18h0l-.66-.27" transform="translate(0)"/></g></g></g><g class="cls-2"><g class="cls-40"><g class="cls-2"><path class="cls-33" d="M185.71,76.9,218,54.66c.08.23.15.46.21.68L185.94,77.57c-.08-.22-.15-.44-.23-.67" transform="translate(0)"/><path class="cls-32" d="M185.94,77.57l32.22-22.23c.09.31.16.62.23.92L186.25,78.44c-.1-.28-.21-.57-.31-.87" transform="translate(0)"/><path class="cls-31" d="M186.25,78.44l32.14-22.18c.06.3.12.6.16.9l-32,22.07c-.1-.25-.21-.52-.31-.79" transform="translate(0)"/><path class="cls-30" d="M186.56,79.23l32-22.07c0,.29.08.59.1.87L186.86,80c-.1-.24-.2-.48-.3-.74" transform="translate(0)"/><path class="cls-29" d="M186.86,80,218.65,58c0,.29,0,.57,0,.85l-1.8,1.24-1.72,1.19-1.67,1.15-1.61,1.11-1.57,1.08-1.52,1-1.5,1-1.47,1-1.46,1-1.45,1-1.45,1-1.46,1-1.47,1-1.5,1-1.52,1L194,75.94l-1.61,1.12-1.67,1.14L189,79.4l-1.8,1.24c-.1-.22-.19-.44-.29-.67" transform="translate(0)"/><path class="cls-28" d="M187.15,80.64l31.54-21.76c0,.27,0,.54,0,.8L187.43,81.24c-.09-.19-.19-.39-.28-.6" transform="translate(0)"/><path class="cls-5" d="M187.43,81.24l31.24-21.56c0,.26,0,.52-.06.77L187.7,81.78l-.27-.54" transform="translate(0)"/><path class="cls-6" d="M187.7,81.78l30.91-21.33c0,.25-.07.5-.12.74L188,82.26c-.08-.16-.17-.32-.26-.48" transform="translate(0)"/><path class="cls-7" d="M188,82.26l30.53-21.07c0,.24-.09.47-.15.7L188.21,82.68c-.08-.14-.16-.28-.25-.42" transform="translate(0)"/><path class="cls-8" d="M188.21,82.68l30.13-20.79c-.06.23-.13.45-.2.67L188.45,83l-.24-.36" transform="translate(0)"/><path class="cls-9" d="M188.45,83h0l1.66-1.15,1.61-1.11,1.56-1.07,1.51-1,1.48-1,1.44-1,1.42-1,1.4-1,1.38-1,1.38-1,1.38-1,1.39-1,1.4-1,1.42-1,1.44-1,1.48-1,1.51-1,1.56-1.07,1.6-1.11,1.67-1.15c-.07.21-.15.43-.24.63l-1.63,1.13-1.58,1.09-1.53,1-1.49,1-1.45,1-1.42,1-1.4,1-1.38,1-1.37.94-1.36.94-1.36.94-1.37,1-1.38,1-1.4,1-1.42,1-1.45,1-1.49,1-1.53,1.06-1.58,1.09-1.63,1.12-.23-.31" transform="translate(0)"/><path class="cls-10" d="M188.68,83.35h0l1.63-1.12,1.58-1.09,1.53-1.06,1.49-1,1.45-1,1.42-1,1.4-1,1.38-1,1.37-1,1.36-.94,1.36-.94,1.37-.94,1.38-1,1.4-1,1.42-1,1.45-1,1.49-1,1.53-1,1.58-1.09,1.63-1.13c-.09.21-.18.42-.28.62L188.9,83.62l-.22-.27" transform="translate(0)"/><path class="cls-11" d="M188.9,83.62l28.72-19.81q-.15.3-.33.6L189.12,83.84l-.22-.22" transform="translate(0)"/><path class="cls-12" d="M189.12,83.84l28.17-19.43c-.12.2-.26.4-.4.59L189.35,84l-.23-.17" transform="translate(0)"/><path class="cls-13" d="M189.35,84l27.54-19a8,8,0,0,1-.51.64L189.59,84.13a1.34,1.34,0,0,1-.24-.12" transform="translate(0)"/><path class="cls-14" d="M189.59,84.13l26.79-18.49a8.3,8.3,0,0,1-1.4,1.25l-1.33.91-1.3.9-1.27.88-1.26.86-1.24.86-1.23.85-1.21.84-1.21.83-1.2.83-1.2.83-1.2.83-1.21.82-1.2.84-1.22.84-1.23.84-1.24.86-1.26.87-1.27.88-1.3.89-1.32.92a.56.56,0,0,1-.49.06" transform="translate(0)"/></g></g></g><polygon class="cls-3" points="184.74 73.99 185.71 76.9 126.25 50.88 125.28 47.97 184.74 73.99"/><polygon class="cls-41" points="216.97 51.74 217.95 54.66 185.71 76.9 184.74 73.99 216.97 51.74"/><g class="cls-2"><g class="cls-42"><g class="cls-2"><path class="cls-5" d="M181.85,56.58l21.26-14.67.21,0L181.83,56.7s0-.08,0-.12" transform="translate(0)"/><path class="cls-28" d="M181.83,56.7l21.49-14.82.21,0-21.72,15s0-.08,0-.13" transform="translate(0)"/><path class="cls-29" d="M181.81,56.83l21.72-15,.22,0L181.79,57s0-.09,0-.14" transform="translate(0)"/><path class="cls-30" d="M181.79,57l22-15.15.22,0L181.78,57.11s0-.1,0-.14" transform="translate(0)"/><path class="cls-31" d="M181.78,57.11,204,41.8l.22,0L181.76,57.26s0-.1,0-.15" transform="translate(0)"/><path class="cls-32" d="M181.76,57.26l22.43-15.48h.23L181.75,57.41a.76.76,0,0,0,0-.15" transform="translate(0)"/><path class="cls-33" d="M181.75,57.41l22.67-15.64h.23l-22.91,15.8s0-.1,0-.16" transform="translate(0)"/><path class="cls-35" d="M181.74,57.57l22.91-15.8h.23l-23.15,16a1,1,0,0,0,0-.17" transform="translate(0)"/><path class="cls-36" d="M181.73,57.74l23.15-16h.24L181.73,57.92v-.18" transform="translate(0)"/><path class="cls-37" d="M181.73,57.92l23.39-16.14h.24L181.72,58.1a1.09,1.09,0,0,1,0-.18" transform="translate(0)"/><path class="cls-38" d="M181.72,58.1l23.64-16.31.24,0L181.72,58.28V58.1" transform="translate(0)"/><path class="cls-43" d="M181.72,58.28,205.6,41.81l.2,0L181.72,58.44v-.16" transform="translate(0)"/><path class="cls-44" d="M181.72,58.44,205.8,41.83l.19,0L181.72,58.6v-.16" transform="translate(0)"/><path class="cls-45" d="M181.72,58.6,206,41.86l.2,0L181.72,58.76V58.6" transform="translate(0)"/><path class="cls-46" d="M181.72,58.76l24.47-16.88.19,0-24.65,17a1,1,0,0,1,0-.17" transform="translate(0)"/><path class="cls-47" d="M181.73,58.93l24.65-17,.16,0L181.73,59.06v-.13" transform="translate(0)"/><path class="cls-48" d="M181.73,59.06,206.54,42l.14,0-25,17.22v-.13" transform="translate(0)"/><path class="cls-49" d="M181.73,59.19l25-17.22.15,0L181.74,59.31v-.12" transform="translate(0)"/><path class="cls-50" d="M181.74,59.31,206.83,42l.14,0-25.23,17.4v-.13" transform="translate(0)"/><path class="cls-51" d="M181.74,59.44,207,42l.14,0-25.36,17.5v-.13" transform="translate(0)"/><path class="cls-52" d="M181.75,59.57l25.36-17.5.14,0L181.76,59.69v-.12" transform="translate(0)"/><path class="cls-53" d="M181.76,59.69l25.49-17.58.14,0L181.77,59.82v-.13" transform="translate(0)"/><path class="cls-54" d="M181.77,59.82l25.62-17.68.13,0L181.77,59.94v-.12" transform="translate(0)"/><path class="cls-55" d="M181.77,59.94l25.75-17.76.13,0L181.78,60.07v-.13" transform="translate(0)"/><path class="cls-56" d="M181.78,60.07l25.87-17.85.14,0-26,17.94v-.13" transform="translate(0)"/><path class="cls-57" d="M181.79,60.2l26-17.94.13,0-26.12,18V60.2" transform="translate(0)"/><path class="cls-58" d="M181.8,60.32l26.12-18,.13.05-26.24,18.1v-.13" transform="translate(0)"/><path class="cls-59" d="M181.81,60.45l26.24-18.1.16.06-26.38,18.2s0-.1,0-.16" transform="translate(0)"/><path class="cls-60" d="M181.83,60.61l26.38-18.2.2.07L181.84,60.81c0-.07,0-.13,0-.2" transform="translate(0)"/><path class="cls-61" d="M181.84,60.81l26.57-18.33.2.08L181.86,61a1.36,1.36,0,0,0,0-.2" transform="translate(0)"/><path class="cls-62" d="M181.86,61l26.75-18.45.19.08L181.88,61.21a1.23,1.23,0,0,0,0-.2" transform="translate(0)"/><path class="cls-63" d="M181.88,61.21,208.8,42.64l.39.17L181.93,61.62c0-.14,0-.28-.05-.41" transform="translate(0)"/><path class="cls-64" d="M181.93,61.62l27.26-18.81c.28.13.55.27.83.42l-28,19.3c0-.31-.08-.61-.11-.91" transform="translate(0)"/><path class="cls-63" d="M182,62.53l28-19.3.42.24L182.11,63c0-.17-.05-.33-.07-.49" transform="translate(0)"/><path class="cls-62" d="M182.11,63l28.33-19.55.27.17-28.55,19.7c0-.11,0-.22,0-.32" transform="translate(0)"/><path class="cls-61" d="M182.16,63.34l28.55-19.7.23.15L182.2,63.61c0-.09,0-.18,0-.27" transform="translate(0)"/><path class="cls-60" d="M182.2,63.61l28.74-19.82.22.15-28.91,20c0-.09,0-.18-.05-.28" transform="translate(0)"/><path class="cls-59" d="M182.25,63.89l28.91-20,.22.15L182.29,64.16a2.51,2.51,0,0,1,0-.27" transform="translate(0)"/><path class="cls-58" d="M182.29,64.16l29.09-20.07.2.15L182.33,64.41c0-.08,0-.17,0-.25" transform="translate(0)"/><path class="cls-57" d="M182.33,64.41l29.25-20.17.19.15L182.38,64.67c0-.09,0-.17,0-.26" transform="translate(0)"/><path class="cls-56" d="M182.38,64.67l29.39-20.28.2.15L182.42,64.93c0-.09,0-.18,0-.26" transform="translate(0)"/><path class="cls-55" d="M182.42,64.93,212,44.54l.2.17L182.47,65.2a2.56,2.56,0,0,0-.05-.27" transform="translate(0)"/><path class="cls-54" d="M182.47,65.2l29.7-20.49.21.17L182.53,65.47l-.06-.27" transform="translate(0)"/><path class="cls-53" d="M182.53,65.47l29.85-20.59.2.18-30,20.69a2.33,2.33,0,0,1-.05-.28" transform="translate(0)"/><path class="cls-52" d="M182.58,65.75l30-20.69.2.18L182.64,66l-.06-.29" transform="translate(0)"/><path class="cls-51" d="M182.64,66l30.14-20.8.24.22L182.7,66.38l-.06-.34" transform="translate(0)"/><path class="cls-50" d="M182.7,66.38,213,45.46c.07.08.15.15.23.23l-30.48,21c0-.11,0-.22-.07-.33" transform="translate(0)"/><path class="cls-49" d="M182.77,66.71l30.48-21,.23.24L182.85,67.07c0-.12,0-.24-.08-.36" transform="translate(0)"/><path class="cls-48" d="M182.85,67.07l30.63-21.14.27.3L182.94,67.49l-.09-.42" transform="translate(0)"/><path class="cls-47" d="M182.94,67.49l30.81-21.26.27.3L183,67.91c0-.14-.07-.28-.1-.42" transform="translate(0)"/><path class="cls-46" d="M183,67.91l31-21.38.31.38L183.16,68.42l-.12-.51" transform="translate(0)"/><path class="cls-45" d="M183.16,68.42l31.17-21.51c.11.13.21.26.31.4L183.28,69l-.12-.53" transform="translate(0)"/><path class="cls-44" d="M183.28,69l31.36-21.64a5.74,5.74,0,0,1,.36.5L183.44,69.58c-.05-.21-.1-.42-.16-.63" transform="translate(0)"/><path class="cls-43" d="M183.44,69.58,215,47.81l.37.56L183.62,70.28l-.18-.7" transform="translate(0)"/><path class="cls-38" d="M183.62,70.28l31.75-21.91c.14.21.27.43.39.65l-31.92,22c-.08-.26-.15-.52-.22-.77" transform="translate(0)"/><path class="cls-37" d="M183.84,71.05l31.92-22c.14.25.27.5.4.75L184.08,71.91l-.24-.86" transform="translate(0)"/><path class="cls-36" d="M184.08,71.91l32.08-22.14c.14.28.26.55.38.84l-32.18,22.2c-.1-.3-.19-.6-.28-.9" transform="translate(0)"/><path class="cls-35" d="M184.36,72.81l32.18-22.2c.13.29.24.59.35.89L184.65,73.74c-.1-.31-.2-.61-.29-.93" transform="translate(0)"/><path class="cls-33" d="M184.65,73.74,216.89,51.5a2.25,2.25,0,0,1,.08.24L184.74,74l-.09-.25" transform="translate(0)"/></g></g></g><g class="cls-2"><g class="cls-65"><g class="cls-2"><path class="cls-5" d="M116.05,27.79l65.8,28.79v0L116.09,27.85l0-.06" transform="translate(0)"/><path class="cls-6" d="M116.09,27.85l65.75,28.77c0,.21-.06.43-.08.68L116.67,28.81c-.2-.33-.39-.66-.58-1" transform="translate(0)"/><path class="cls-7" d="M116.67,28.81,181.76,57.3c0,.17,0,.36,0,.56L117.11,29.59c-.15-.27-.29-.53-.44-.78" transform="translate(0)"/><path class="cls-8" d="M117.11,29.59l64.62,28.27c0,.18,0,.37,0,.56L117.53,30.34q-.21-.39-.42-.75" transform="translate(0)"/><path class="cls-9" d="M117.53,30.34l64.19,28.08c0,.2,0,.4,0,.61L118,31.13l-.43-.79" transform="translate(0)"/><path class="cls-10" d="M118,31.13,181.73,59l0,.7L118.43,32l-.47-.89" transform="translate(0)"/><path class="cls-11" d="M118.43,32l63.33,27.71c0,.29,0,.58.07.88L119,33.12l-.56-1.1" transform="translate(0)"/><path class="cls-12" d="M119,33.12l62.84,27.49q0,.59.12,1.2L119.71,34.58c-.24-.5-.48-1-.72-1.46" transform="translate(0)"/><path class="cls-13" d="M119.71,34.58,182,61.81c.07.6.16,1.23.26,1.87L120.76,36.79c-.35-.75-.7-1.49-1.05-2.21" transform="translate(0)"/><path class="cls-14" d="M120.76,36.79l61.45,26.89A66.43,66.43,0,0,0,184.74,74L125.28,48a117.09,117.09,0,0,0-4.52-11.18" transform="translate(0)"/></g></g></g><g class="cls-2"><g class="cls-66"><g class="cls-2"><path class="cls-5" d="M120.79,98.71,55,69.9a26,26,0,0,1,3,.37l64.67,28.3a8.6,8.6,0,0,0-1.89.14" transform="translate(0)"/><path class="cls-6" d="M122.68,98.57,58,70.27c.69.13,1.38.28,2.06.46L124,98.7a8.31,8.31,0,0,0-1.31-.13" transform="translate(0)"/><path class="cls-7" d="M124,98.7l-63.92-28c.53.14,1,.29,1.57.46L125,98.92a9,9,0,0,0-1-.22" transform="translate(0)"/><path class="cls-8" d="M125,98.92,61.64,71.19q.75.25,1.5.54L126,99.23a8.57,8.57,0,0,0-1-.31" transform="translate(0)"/><path class="cls-9" d="M126,99.23,63.14,71.73c.33.14.67.27,1,.42l2.49,1.08,2.56,1.12h0l2.64,1.16,2.72,1.19h0l2.8,1.23,2.87,1.25h0l2.94,1.29,3,1.31h0l3.07,1.35,3.14,1.37h0l3.19,1.4,3.26,1.42,3.31,1.45,3.36,1.47,3.41,1.49,3.46,1.52,3.51,1.53,3.54,1.55L123,97.91l3.63,1.58h0l-.66-.26" transform="translate(0)"/></g></g></g><g class="cls-2"><g class="cls-67"><g class="cls-2"><path class="cls-33" d="M103.39,133.7l32.24-22.25q.12.35.21.69l-32.22,22.23c-.08-.22-.16-.44-.23-.67" transform="translate(0)"/><path class="cls-32" d="M103.62,134.37l32.22-22.23c.09.3.17.61.23.92l-32.14,22.17c-.11-.28-.21-.56-.31-.86" transform="translate(0)"/><path class="cls-31" d="M103.93,135.23l32.14-22.17c.07.3.12.6.16.89l-32,22.08c-.1-.26-.2-.52-.3-.8" transform="translate(0)"/><path class="cls-30" d="M104.23,136l32-22.08c.05.3.08.59.1.88l-31.8,21.94c-.1-.24-.2-.48-.3-.74" transform="translate(0)"/><path class="cls-29" d="M104.53,136.77l31.8-21.94c0,.28,0,.56,0,.84l-31.55,21.76-.29-.66" transform="translate(0)"/><path class="cls-28" d="M104.82,137.43h0l1.8-1.24,1.73-1.19,1.66-1.15,1.62-1.11,1.56-1.08,1.53-1,1.5-1,1.47-1,1.46-1,1.45-1,1.45-1,1.46-1,1.47-1,1.5-1,1.52-1.06,1.57-1.08,1.61-1.11,1.67-1.15,1.72-1.19,1.8-1.24c0,.27,0,.54,0,.81L105.11,138c-.1-.2-.19-.4-.29-.61" transform="translate(0)"/><path class="cls-5" d="M105.11,138l31.24-21.56c0,.26,0,.51-.06.77l-30.91,21.32-.27-.53" transform="translate(0)"/><path class="cls-6" d="M105.38,138.57l30.91-21.32c0,.25-.07.49-.12.73l-1.72,1.19-1.66,1.15-1.61,1.11-1.56,1.07-1.51,1-1.49,1-1.45,1-1.43,1-1.42,1-1.41,1-1.42,1-1.42,1-1.43,1-1.45,1-1.48,1-1.52,1-1.56,1.08L109,136.72l-1.66,1.14-1.72,1.19a5.42,5.42,0,0,1-.26-.48" transform="translate(0)"/><path class="cls-7" d="M105.64,139.05,136.17,118c0,.24-.09.47-.15.7l-1.7,1.17L132.69,121l-1.59,1.1-1.53,1.06-1.5,1-1.46,1-1.44,1-1.42,1-1.4,1-1.4,1-1.4,1-1.4,1-1.42,1-1.43,1-1.47,1-1.49,1-1.54,1.06-1.58,1.09-1.64,1.13-1.69,1.17a4.23,4.23,0,0,1-.25-.42" transform="translate(0)"/><path class="cls-8" d="M105.89,139.47,136,118.68c-.06.23-.13.45-.2.67l-29.7,20.49-.23-.37" transform="translate(0)"/><path class="cls-9" d="M106.12,139.84l29.7-20.49c-.07.22-.15.43-.24.64L134,121.11l-1.58,1.09-1.53,1.06-1.49,1-1.45,1-1.42,1-1.4,1-1.38,1-1.37.95-1.36.94-1.36.94-1.37.94-1.38,1-1.4,1-1.43,1-1.45,1-1.49,1-1.53,1.06L108,139l-1.63,1.12-.24-.31" transform="translate(0)"/><path class="cls-10" d="M106.36,140.15,135.58,120c-.09.21-.18.41-.28.61l-28.72,19.82a3.2,3.2,0,0,1-.22-.27" transform="translate(0)"/><path class="cls-11" d="M106.58,140.42,135.3,120.6c-.1.21-.21.4-.33.6L106.8,140.63a2.13,2.13,0,0,1-.22-.21" transform="translate(0)"/><path class="cls-12" d="M106.8,140.63,135,121.2c-.12.2-.25.4-.39.59L107,140.8a1.46,1.46,0,0,1-.22-.17" transform="translate(0)"/><path class="cls-13" d="M107,140.8l27.56-19a6.59,6.59,0,0,1-.52.64l-26.8,18.49a.89.89,0,0,1-.24-.12" transform="translate(0)"/><path class="cls-14" d="M107.26,140.92l26.8-18.49a7.24,7.24,0,0,1-1.4,1.25l-1.33.91-1.29.9-1.28.88-1.26.87-1.24.85-1.23.85-1.21.84-1.21.83-1.21.83-1.2.83-1.2.83-1.2.83-1.21.83-1.21.84-1.23.85-1.24.86-1.26.86-1.28.89-1.3.89-1.32.91a.53.53,0,0,1-.49.06" transform="translate(0)"/></g></g></g><g class="cls-2"><g class="cls-68"><g class="cls-2"><path class="cls-14" d="M1.72,89.21,103.39,133.7c1.4,4.18,2.82,6.77,3.8,7.19l-5-2.17-4.94-2.16-4.91-2.15-4.89-2.14-4.87-2.13L77.75,128l-4.83-2.12-4.82-2.11-4.82-2.11-4.82-2.1-9.63-4.22h0L44,113.25l-4.84-2.12L34.32,109l-4.86-2.13-4.89-2.14-4.91-2.15-4.94-2.16-5-2.17a15.22,15.22,0,0,1-8-9.05" transform="translate(0)"/></g></g></g><path class="cls-69" d="M203.11,41.91,181.85,56.58l-65.8-28.79L110.47,59.7,55,69.9l65.82,28.81L99.53,113.38,6.79,72.81,26.92,58.92l1.14-.79.93.41,55.6-10.22L90.23,16.5,89.12,16,110.38,1.34Z" transform="translate(0)"/><polygon class="cls-3" points="102.41 130.78 103.39 133.7 1.72 89.21 0.74 86.3 102.41 130.78"/><polygon class="cls-41" points="134.66 108.54 135.63 111.45 103.39 133.7 102.41 130.78 134.66 108.54"/><g class="cls-2"><g class="cls-70"><g class="cls-2"><path class="cls-5" d="M99.53,113.38l21.26-14.67.21,0L99.51,113.5a.5.5,0,0,1,0-.12" transform="translate(0)"/><path class="cls-28" d="M99.51,113.5,121,98.67l.21,0-21.72,15a.59.59,0,0,1,0-.13" transform="translate(0)"/><path class="cls-29" d="M99.49,113.63l21.72-15,.22,0-22,15.16a.68.68,0,0,1,0-.14" transform="translate(0)"/><path class="cls-30" d="M99.47,113.77l22-15.16.22,0-22.2,15.32s0-.1,0-.14" transform="translate(0)"/><path class="cls-31" d="M99.45,113.91l22.2-15.32h.23L99.44,114.06s0-.1,0-.15" transform="translate(0)"/><path class="cls-32" d="M99.44,114.06l22.44-15.48h.22L99.43,114.21a.76.76,0,0,1,0-.15" transform="translate(0)"/><path class="cls-33" d="M99.43,114.21,122.1,98.57h.23L99.42,114.37a.86.86,0,0,1,0-.16" transform="translate(0)"/><path class="cls-35" d="M99.42,114.37l22.91-15.81h.23l-23.15,16a1,1,0,0,1,0-.17" transform="translate(0)"/><path class="cls-36" d="M99.41,114.54l23.15-16h.24L99.4,114.71a1,1,0,0,1,0-.17" transform="translate(0)"/><path class="cls-37" d="M99.4,114.71l23.4-16.14H123L99.4,114.9v-.19" transform="translate(0)"/><path class="cls-38" d="M99.4,114.9,123,98.58l.24,0L99.39,115.08c0-.06,0-.12,0-.18" transform="translate(0)"/><path class="cls-43" d="M99.39,115.08,123.28,98.6l.2,0L99.39,115.24v-.16" transform="translate(0)"/><path class="cls-44" d="M99.39,115.24l24.09-16.62.19,0L99.39,115.4v-.16" transform="translate(0)"/><path class="cls-45" d="M99.39,115.4l24.28-16.75.2,0L99.4,115.56c0-.06,0-.11,0-.16" transform="translate(0)"/><path class="cls-46" d="M99.4,115.56l24.47-16.88.19,0-24.66,17v-.16" transform="translate(0)"/><path class="cls-47" d="M99.4,115.72l24.66-17,.16,0L99.4,115.86v-.14" transform="translate(0)"/><path class="cls-48" d="M99.4,115.86l24.82-17.12.15,0L99.41,116v-.13" transform="translate(0)"/><path class="cls-49" d="M99.41,116l25-17.22.14,0-25.1,17.31V116" transform="translate(0)"/><path class="cls-50" d="M99.41,116.11l25.1-17.31.14,0L99.42,116.24v-.13" transform="translate(0)"/><path class="cls-51" d="M99.42,116.24l25.23-17.41.14,0-25.36,17.5v-.12" transform="translate(0)"/><path class="cls-52" d="M99.43,116.36l25.36-17.5.14,0-25.5,17.59v-.13" transform="translate(0)"/><path class="cls-53" d="M99.43,116.49l25.5-17.59.14,0L99.44,116.62v-.13" transform="translate(0)"/><path class="cls-54" d="M99.44,116.62l25.63-17.68.13,0L99.45,116.74v-.12" transform="translate(0)"/><path class="cls-55" d="M99.45,116.74,125.2,99l.14,0L99.46,116.87v-.13" transform="translate(0)"/><path class="cls-56" d="M99.46,116.87,125.34,99l.13,0L99.47,117v-.12" transform="translate(0)"/><path class="cls-57" d="M99.47,117l26-17.94.13,0-26.12,18V117" transform="translate(0)"/><path class="cls-58" d="M99.48,117.12l26.12-18,.13,0L99.49,117.25v-.13" transform="translate(0)"/><path class="cls-59" d="M99.49,117.25l26.24-18.11.17.06L99.5,117.41s0-.11,0-.16" transform="translate(0)"/><path class="cls-60" d="M99.5,117.41,125.9,99.2l.19.07L99.52,117.61c0-.07,0-.13,0-.2" transform="translate(0)"/><path class="cls-61" d="M99.52,117.61l26.57-18.34.2.08L99.54,117.81a1.5,1.5,0,0,1,0-.2" transform="translate(0)"/><path class="cls-62" d="M99.54,117.81l26.75-18.46.19.08L99.56,118a1.5,1.5,0,0,1,0-.2" transform="translate(0)"/><path class="cls-63" d="M99.56,118l26.92-18.58.39.17L99.6,118.42c0-.14,0-.28,0-.41" transform="translate(0)"/><path class="cls-64" d="M99.6,118.42,126.87,99.6c.28.13.56.27.83.42l-28,19.3c0-.3-.08-.61-.12-.9" transform="translate(0)"/><path class="cls-63" d="M99.72,119.32l28-19.3.42.25L99.79,119.81c0-.16-.05-.32-.07-.49" transform="translate(0)"/><path class="cls-62" d="M99.79,119.81l28.33-19.54.27.16L99.83,120.14c0-.11,0-.22,0-.33" transform="translate(0)"/><path class="cls-61" d="M99.83,120.14l28.56-19.71.23.15L99.88,120.41c0-.09,0-.18,0-.27" transform="translate(0)"/><path class="cls-60" d="M99.88,120.41l28.74-19.83.22.15-28.92,20c0-.09,0-.19,0-.28" transform="translate(0)"/><path class="cls-59" d="M99.92,120.69l28.92-20,.22.15L100,121a2.51,2.51,0,0,0,0-.27" transform="translate(0)"/><path class="cls-58" d="M100,121l29.1-20.08.2.15L100,121.21c0-.08,0-.17-.05-.25" transform="translate(0)"/><path class="cls-57" d="M100,121.21,129.26,101l.19.15-29.4,20.29c0-.09,0-.17,0-.26" transform="translate(0)"/><path class="cls-56" d="M100.05,121.47l29.4-20.29.2.15L100.1,121.72c0-.08,0-.17,0-.25" transform="translate(0)"/><path class="cls-55" d="M100.1,121.72l29.55-20.39.2.17L100.15,122a2.56,2.56,0,0,1-.05-.27" transform="translate(0)"/><path class="cls-54" d="M100.15,122l29.7-20.49.21.17-29.86,20.6c0-.09,0-.18,0-.28" transform="translate(0)"/><path class="cls-53" d="M100.2,122.27l29.86-20.6.2.18-30,20.7a2.74,2.74,0,0,0,0-.28" transform="translate(0)"/><path class="cls-52" d="M100.25,122.55l30-20.7.21.19-30.16,20.8-.06-.29" transform="translate(0)"/><path class="cls-51" d="M100.31,122.84,130.47,102l.23.22-30.32,20.91c0-.11,0-.22-.07-.33" transform="translate(0)"/><path class="cls-50" d="M100.38,123.17l30.32-20.91.23.22-30.48,21c0-.11,0-.22-.07-.34" transform="translate(0)"/><path class="cls-49" d="M100.45,123.51l30.48-21,.23.25-30.64,21.13c0-.11,0-.23-.07-.35" transform="translate(0)"/><path class="cls-48" d="M100.52,123.86l30.64-21.13.28.29-30.82,21.27c0-.15-.07-.29-.1-.43" transform="translate(0)"/><path class="cls-47" d="M100.62,124.29,131.44,103l.26.31-31,21.38-.09-.42" transform="translate(0)"/><path class="cls-46" d="M100.71,124.71l31-21.38c.11.12.21.25.31.37l-31.18,21.52-.12-.51" transform="translate(0)"/><path class="cls-45" d="M100.83,125.22,132,103.7c.11.13.21.27.31.4L101,125.74c0-.17-.09-.35-.13-.52" transform="translate(0)"/><path class="cls-44" d="M101,125.74l31.36-21.64.37.5-31.57,21.78c-.06-.21-.11-.42-.16-.64" transform="translate(0)"/><path class="cls-43" d="M101.12,126.38l31.57-21.78c.12.19.25.37.37.57l-31.76,21.9-.18-.69" transform="translate(0)"/><path class="cls-38" d="M101.3,127.07l31.76-21.9c.13.21.26.42.38.64l-31.93,22-.21-.77" transform="translate(0)"/><path class="cls-37" d="M101.51,127.84l31.93-22c.14.25.28.5.4.76L101.76,128.7c-.09-.28-.17-.57-.25-.86" transform="translate(0)"/><path class="cls-36" d="M101.76,128.7l32.08-22.13c.14.27.26.55.38.83L102,129.61l-.27-.91" transform="translate(0)"/><path class="cls-35" d="M102,129.61l32.19-22.21c.13.29.25.59.35.89l-32.24,22.25-.3-.93" transform="translate(0)"/><path class="cls-33" d="M102.33,130.54l32.24-22.25.09.25-32.25,22.24-.08-.24" transform="translate(0)"/></g></g></g><g class="cls-2"><g class="cls-71"><g class="cls-2"><path class="cls-5" d="M6.79,72.81l92.74,40.57v0L6.73,72.82h.06" transform="translate(0)"/><path class="cls-6" d="M6.73,72.82l92.79,40.6a6.48,6.48,0,0,0-.08.67l-93.73-41a8.46,8.46,0,0,1,1-.26" transform="translate(0)"/><path class="cls-7" d="M5.71,73.08l93.73,41c0,.18,0,.37,0,.57L5,73.35a7.46,7.46,0,0,1,.71-.27" transform="translate(0)"/><path class="cls-8" d="M5,73.35l94.4,41.31c0,.18,0,.37,0,.56l-95-41.57c.2-.11.4-.21.61-.3" transform="translate(0)"/><path class="cls-9" d="M4.39,73.65l95,41.57c0,.2,0,.4,0,.61L3.81,74c.19-.12.38-.24.58-.35" transform="translate(0)"/><path class="cls-10" d="M3.81,74,99.4,115.83c0,.22,0,.46,0,.7L3.23,74.43,3.81,74" transform="translate(0)"/><path class="cls-11" d="M3.23,74.43l96.21,42.1c0,.28,0,.58.06.88L2.59,75c.21-.2.42-.4.64-.58" transform="translate(0)"/><path class="cls-12" d="M2.59,75l96.91,42.4c0,.39.08.79.13,1.2L1.88,75.84A9.41,9.41,0,0,1,2.59,75" transform="translate(0)"/><path class="cls-13" d="M1.88,75.84l97.75,42.77c.07.6.16,1.23.26,1.87L1,77.23a8.46,8.46,0,0,1,.85-1.39" transform="translate(0)"/><path class="cls-14" d="M1,77.23l98.86,43.25a66.26,66.26,0,0,0,2.52,10.3L.74,86.3A12,12,0,0,1,1,77.23" transform="translate(0)"/></g></g></g></g></g></g></svg>