<svg width="721" height="751" viewBox="0 0 721 751" fill="none" xmlns="http://www.w3.org/2000/svg">
<path fill-rule="evenodd" clip-rule="evenodd" d="M319.381 1.68327C441.822 -12.3163 557.552 62.8022 632.98 160.281C707.043 255.995 745.849 384.728 703.511 498.11C665.394 600.192 542.957 623.742 443.398 667.993C350.086 709.468 255.209 778.781 161.075 739.209C63.6255 698.243 18.2018 587.299 2.6713 482.719C-11.3553 388.266 31.9095 302.752 84.4163 223.002C146.669 128.45 206.923 14.5414 319.381 1.68327Z" fill="#1A181B"/>
<path d="M236 600.114C301.722 600.114 355 593.622 355 585.614C355 577.605 301.722 571.114 236 571.114C170.278 571.114 117 577.605 117 585.614C117 593.622 170.278 600.114 236 600.114Z" fill="#0F0E10"/>
<path d="M243 596.114C309.274 596.114 363 542.388 363 476.114C363 409.839 309.274 356.114 243 356.114C176.726 356.114 123 409.839 123 476.114C123 542.388 176.726 596.114 243 596.114Z" fill="#050505"/>
<path d="M239 547.114H233C215.327 547.114 201 561.44 201 579.114C201 596.787 215.327 611.114 233 611.114H239C256.673 611.114 271 596.787 271 579.114C271 561.44 256.673 547.114 239 547.114Z" fill="#12C1A2"/>
<path d="M362.5 562.614L358.5 584.614L384.5 588.614L401.5 578.614L400.5 562.614H362.5Z" fill="#514B53"/>
<path d="M231.5 149.613C231.5 149.613 229.5 172.613 224.5 173.613C219.5 174.613 235.5 214.613 235.5 214.613H259.5L278.5 209.613L269.5 187.613C269.5 187.613 257.5 171.613 266.5 158.613C275.5 145.613 231.5 149.613 231.5 149.613Z" fill="#A0616A"/>
<path opacity="0.1" d="M231.5 149.613C231.5 149.613 229.5 172.613 224.5 173.613C219.5 174.613 235.5 214.613 235.5 214.613H259.5L278.5 209.613L269.5 187.613C269.5 187.613 257.5 171.613 266.5 158.613C275.5 145.613 231.5 149.613 231.5 149.613Z" fill="black"/>
<path d="M181.5 325.614C181.5 325.614 155.5 375.614 176.5 385.614C197.5 395.614 202.5 394.614 202.5 397.614C202.5 400.614 198.5 399.614 200.5 404.614C202.5 409.614 196.5 429.614 202.5 441.614C208.5 453.614 206.5 462.614 206.5 462.614C206.5 462.614 206.5 463.614 208.5 467.614C210.5 471.614 211.5 474.614 210.5 476.614C209.5 478.614 203.5 491.614 209.5 494.614C215.5 497.614 246.5 499.614 249.5 494.614C252.5 489.614 246.5 486.614 249.5 483.614C252.5 480.614 254.5 479.614 252.5 477.614C250.5 475.614 248.5 450.614 248.5 450.614C248.5 450.614 253.5 421.614 251.5 417.614C249.5 413.614 246.5 409.614 248.5 406.614C250.5 403.614 252.5 404.614 253.5 400.614C254.5 396.614 256.5 387.614 256.5 387.614L267.5 386.614L293.5 391.614C293.5 391.614 322.5 423.614 354.5 433.614C354.5 433.614 363.5 442.614 366.5 442.614C369.5 442.614 369.5 442.614 368.5 444.614C367.5 446.614 364.5 446.614 366.5 448.614C368.5 450.614 371.5 447.614 369.5 450.614C367.5 453.614 365.5 453.614 367.5 455.614C369.5 457.614 366.5 468.614 366.5 469.614C366.5 470.614 357.5 564.614 360.5 566.614C363.5 568.614 405.5 574.614 408.5 566.614C411.5 558.614 406.5 548.614 406.5 548.614C406.5 548.614 421.5 428.614 417.5 420.614C413.5 412.614 399.5 376.614 324.5 353.614C324.5 353.614 303.5 349.614 303.5 346.614C303.5 343.614 301.5 324.614 297.5 323.614C293.5 322.614 270.5 321.614 270.5 321.614L241.5 330.614L201.5 323.614L181.5 325.614Z" fill="#2C292D"/>
<path d="M216.5 493.614L211.5 511.614C211.5 511.614 207.5 540.614 212.5 547.614C216.428 553.112 223.44 559.844 236.445 561.026C240.089 561.36 243.739 560.44 246.79 558.419C249.841 556.397 252.11 553.395 253.223 549.908C253.372 549.491 253.466 549.055 253.5 548.614C253.5 546.614 250.5 522.614 250.5 522.614L245.5 497.614L244.5 490.614L216.5 493.614Z" fill="#2F2E41"/>
<path d="M362.5 579.613C362.5 579.613 357.5 574.613 356.5 579.613C355.5 584.613 351.5 605.613 358.5 606.613C365.5 607.613 432.5 617.613 439.5 613.613C446.5 609.613 459.5 603.613 451.5 600.613C443.5 597.613 420.5 588.613 420.5 588.613C420.5 588.613 407.5 571.613 405.5 570.613C403.5 569.613 392.5 571.613 387.5 575.613C382.5 579.613 362.5 579.613 362.5 579.613Z" fill="#2F2E41"/>
<path d="M255.5 170.614C272.621 170.614 286.5 156.734 286.5 139.614C286.5 122.493 272.621 108.614 255.5 108.614C238.379 108.614 224.5 122.493 224.5 139.614C224.5 156.734 238.379 170.614 255.5 170.614Z" fill="#A0616A"/>
<path d="M252.5 209.614L240.5 196.614L227.198 170.614C227.198 170.614 217.5 167.614 215.5 172.614C213.5 177.614 177.5 193.614 177.5 193.614C177.5 193.614 186.5 277.614 182.5 285.614C178.5 293.614 171.5 325.614 177.5 328.614C183.5 331.614 211.5 328.614 220.5 332.614C229.5 336.614 255.5 336.614 262.5 331.614C269.5 326.614 271.5 322.614 278.5 325.614C284.459 328.168 298.39 240.853 302.401 214.833C302.739 212.647 302.459 210.411 301.591 208.377C300.724 206.342 299.304 204.592 297.493 203.323C288.521 197.029 272.361 186.183 269.5 187.614C265.5 189.614 252.5 209.614 252.5 209.614Z" fill="#4E4A54"/>
<path d="M295.5 205.614C297.848 206.201 299.96 207.492 301.553 209.315C303.146 211.137 304.143 213.404 304.41 215.809L312.5 288.614C312.5 288.614 292.5 331.614 282.5 302.614C272.5 273.614 295.5 205.614 295.5 205.614Z" fill="#514B53"/>
<path d="M293.5 295.614L315.5 289.614C315.5 289.614 319.5 317.614 323.5 317.614C327.5 317.614 309.5 333.614 300.5 331.614C291.5 329.614 278.5 322.614 277.5 317.614C276.5 312.614 286.5 291.614 286.5 291.614L293.5 295.614Z" fill="#4E4A54"/>
<path d="M232.099 152.987C234.206 148.339 233.84 142.917 235.583 138.12C236.516 135.551 238.031 133.233 240.008 131.347C241.985 129.461 244.372 128.057 246.981 127.245C249.591 126.434 252.353 126.237 255.051 126.67C257.749 127.102 260.311 128.153 262.536 129.739C264.778 131.338 267.026 133.583 269.762 133.278C272.709 132.95 275.337 129.662 278.046 130.867C281.049 132.202 280.238 137.584 283.28 138.827C284.881 139.481 286.774 138.474 287.697 137.011C288.505 135.474 288.945 133.771 288.983 132.035C289.403 127.77 289.782 123.256 287.932 119.39C287.154 118.08 286.476 116.712 285.904 115.3C285.58 113.981 285.451 112.622 285.518 111.266C285.502 106.253 285.136 101.024 282.613 96.6915C279.813 91.8844 274.638 88.8105 269.239 87.4693C263.841 86.128 258.185 86.3337 252.641 86.8029C243.478 87.5787 233.922 89.2415 226.703 94.9379C225.722 95.6547 224.877 96.542 224.21 97.5575C223.576 98.7637 223.128 100.059 222.881 101.399C221.321 107.755 218.98 113.894 215.914 119.676C214.439 122.127 213.233 124.731 212.318 127.442C211.553 130.196 211.604 133.335 213.207 135.702C214.512 137.63 216.598 138.657 218.237 140.233C219.86 141.794 220.62 144.797 222.419 145.98C223.989 147.012 225.87 146.283 227.472 147.377C229.528 148.782 229.677 151.861 232.099 152.987Z" fill="#2F2E41"/>
<path d="M257.5 224.614L260.5 218.614C260.5 218.614 304.5 231.614 313.5 243.614C313.5 243.614 335.5 229.614 347.5 231.614L359.5 233.614L322.5 266.614L275.5 262.614L257.5 224.614Z" fill="#F2F2F2"/>
<path d="M255.5 218.614L214.5 275.614L273.5 304.614C273.5 304.614 279.016 307.614 283.258 304.614L322.5 286.614L359.5 233.614L322.5 252.614C322.5 252.614 318.5 244.614 310.5 248.614L255.5 218.614Z" fill="#1AC0E5"/>
<path d="M318.5 319.614L326.5 298.614C326.5 298.614 344.5 275.614 334.5 264.614C324.5 253.614 313.5 296.614 313.5 296.614L318.5 319.614Z" fill="#A0616A"/>
<path d="M226.197 316.262L243.654 302.11C243.654 302.11 270.764 291.245 267.632 276.713C264.501 262.18 233.411 293.858 233.411 293.858L226.197 316.262Z" fill="#A0616A"/>
<path opacity="0.1" d="M183 215.113H182C182 215.113 166.5 196.613 163.5 221.613C160.5 246.613 150.5 329.613 176.5 332.613C202.5 335.613 221 320.113 221 320.113C221 320.113 240 291.113 233 291.113C229.613 291.113 220.401 289.592 212 290.113C203.037 290.669 194.983 293.194 195.5 290.613C196.5 285.613 211 222.113 183 215.113Z" fill="black"/>
<path d="M181.5 195.614L177.5 193.614C177.5 193.614 161.5 196.614 158.5 221.614C155.5 246.614 145.5 329.614 171.5 332.614C197.5 335.614 232.5 328.614 232.5 328.614C232.5 328.614 239.5 290.614 232.5 290.614C225.5 290.614 189.5 295.614 190.5 290.614C191.5 285.614 209.5 202.614 181.5 195.614Z" fill="#4E4A54"/>
<path d="M304 308.114L315.027 291.213L322 319.114L304 327.114V308.114Z" fill="#4E4A54"/>
<path d="M515.359 145.691C514.972 157.661 512.057 167.256 506.614 174.475C501.17 181.694 494.703 185.304 487.212 185.305C481.111 185.305 475.764 181.772 471.17 174.706C466.575 167.641 464.277 156.772 464.278 142.1C464.278 138.857 464.355 135.768 464.51 132.834C464.664 129.9 464.857 127.12 465.089 124.494L469.143 86.3861H442.386C437.753 134.571 433.95 163.239 430.977 172.39C428.003 181.54 422.965 186.115 415.861 186.116C412.655 186.037 409.595 184.755 407.29 182.525C405.953 181.341 404.896 179.874 404.195 178.232C403.494 176.589 403.166 174.811 403.236 173.027C403.236 169.476 406.035 164.515 411.633 158.143C417.231 151.772 420.339 145.961 420.957 140.71L427.907 86.3861H416.672C413.505 86.405 410.388 87.1793 407.579 88.6447C404.995 89.8318 402.746 91.6428 401.035 93.9149L396.054 101.328H392C395.783 89.5912 400.435 80.7689 405.958 74.861C411.478 68.9536 417.829 66 425.012 66H513.506V86.3861H483.622C482.695 95.6525 481.981 104.919 481.479 114.185C480.976 123.452 480.725 132.757 480.726 142.1C480.726 148.433 482.193 153.568 485.128 157.506C488.061 161.444 491.729 163.413 496.131 163.413C498.833 163.413 501.671 162.312 504.645 160.112C506.057 159.121 507.238 157.837 508.108 156.348C508.977 154.859 509.515 153.199 509.683 151.483C509.915 149.785 510.089 148.453 510.205 147.486C510.32 146.522 510.378 145.923 510.378 145.691H515.359Z" fill="#12C1A2"/>
</svg>
