<svg width="719" height="543" viewBox="0 0 719 543" fill="none" xmlns="http://www.w3.org/2000/svg">
<g clip-path="url(#clip0)">
<path opacity="0.1" d="M7.76074 256.755C19.1365 301.062 43.2216 339.363 81.2862 357.926C160.424 396.511 338.79 376.609 471.931 353.77C540.817 341.953 601.324 309.368 645.304 263.45L7.76074 256.755Z" fill="white" fill-opacity="0.6"/>
<path opacity="0.1" d="M705.962 48.2043H632.911C629.435 48.2043 626.591 45.6147 626.591 42.4504C626.591 39.286 629.429 36.6964 632.911 36.6964H645.551C642.075 36.6964 639.231 34.1068 639.231 30.9425C639.231 27.7781 642.068 25.1949 645.551 25.1949H636.532C633.056 25.1949 630.212 22.6053 630.212 19.4409C630.212 16.2765 633.05 13.6869 636.532 13.6869H674.66C666.198 10.0994 656.332 7.55403 644.919 6.22134C540.95 -5.94976 503.827 2.09693 490.714 10.3773C474.413 20.8047 456.281 28.0467 437.279 31.7194C373.132 43.7768 253.168 58.2848 144.435 27.0707C90.3934 11.5647 50.2306 37.8081 26.1519 81.5848H718.646C717.742 68.8516 715.038 57.0911 710.07 46.8022C708.897 47.7175 707.45 48.2114 705.962 48.2043V48.2043Z" fill="white" fill-opacity="0.6"/>
<path opacity="0.1" d="M1.5609 164.275C-1.24208 190.044 -0.28623 216.083 4.39853 241.578L645.79 262.951C663.463 244.499 678.462 223.664 690.352 201.054L1.5609 164.275ZM255.222 219.421H242.582C246.052 219.421 248.902 222.01 248.902 225.175C248.902 228.339 246.058 230.922 242.582 230.922H169.562C166.093 230.922 163.242 228.339 163.242 225.175C163.242 222.01 166.086 219.421 169.562 219.421H182.202C178.732 219.421 175.882 216.831 175.882 213.667C175.882 210.502 178.726 207.913 182.202 207.913H173.171C169.701 207.913 166.851 205.33 166.851 202.165C166.851 199.001 169.695 196.411 173.171 196.411H246.222C249.698 196.411 252.542 199.001 252.542 202.165C252.542 205.33 249.705 207.913 246.222 207.913H255.222C258.698 207.913 261.542 210.502 261.542 213.667C261.542 216.831 258.717 219.421 255.222 219.421Z" fill="white" fill-opacity="0.6"/>
<path opacity="0.1" d="M718.678 81.9828L18.435 97.5014C9.90321 117.454 4.25955 140.009 1.65576 163.391H706.404C710.993 149.709 714.397 135.659 716.579 121.395C718.678 107.651 719.518 94.3623 718.678 81.9828ZM143.834 132.834H131.194C134.664 132.834 137.514 135.423 137.514 138.588C137.514 141.752 134.67 144.341 131.194 144.341H58.1492C54.6795 144.341 51.8293 141.752 51.8293 138.588C51.8293 135.423 54.6732 132.834 58.1492 132.834H70.7889C67.3193 132.834 64.469 130.25 64.469 127.086C64.469 123.922 67.313 121.332 70.7889 121.332H61.7578C58.2882 121.332 55.4379 118.742 55.4379 115.578C55.4379 112.414 58.2819 109.824 61.7578 109.824H134.809C138.285 109.824 141.129 112.414 141.129 115.578C141.129 118.742 138.292 121.332 134.809 121.332H143.834C147.304 121.332 150.154 123.922 150.154 127.086C150.154 130.25 147.304 132.834 143.834 132.834Z" fill="white" fill-opacity="0.6"/>
<path opacity="0.1" d="M419.855 484.336C446.113 484.336 467.399 479.56 467.399 473.668C467.399 467.777 446.113 463 419.855 463C393.597 463 372.311 467.777 372.311 473.668C372.311 479.56 393.597 484.336 419.855 484.336Z" fill="white" fill-opacity="0.6"/>
<path opacity="0.1" d="M530.333 514.584C577.704 514.584 616.106 511.434 616.106 507.548C616.106 503.662 577.704 500.512 530.333 500.512C482.961 500.512 444.559 503.662 444.559 507.548C444.559 511.434 482.961 514.584 530.333 514.584Z" fill="white" fill-opacity="0.6"/>
<path opacity="0.1" d="M185.943 507.548C233.315 507.548 271.717 502.772 271.717 496.88C271.717 490.988 233.315 486.212 185.943 486.212C138.572 486.212 100.17 490.988 100.17 496.88C100.17 502.772 138.572 507.548 185.943 507.548Z" fill="white" fill-opacity="0.6"/>
<path opacity="0.1" d="M316.721 454.145C352.364 454.145 381.259 449.369 381.259 443.477C381.259 437.586 352.364 432.81 316.721 432.81C281.077 432.81 252.182 437.586 252.182 443.477C252.182 449.369 281.077 454.145 316.721 454.145Z" fill="white" fill-opacity="0.6"/>
<path d="M364.947 189.691C363.582 180.507 355.234 159.077 355.234 159.077C355.088 158.445 354.924 157.814 354.741 157.182C348.819 136.844 340.622 135.076 340.622 135.076L311.26 128.76C311.506 128.913 311.721 129.113 311.892 129.347C311.737 129.361 311.583 129.385 311.431 129.417C310.086 127.83 309.197 125.909 308.859 123.858C308.802 123.555 308.751 123.227 308.713 122.917C310.822 120.863 312.467 118.382 313.537 115.64C314.608 112.898 315.079 109.959 314.92 107.02C314.761 104.082 313.975 101.211 312.614 98.6006C311.254 95.9904 309.351 93.7011 307.032 91.8864C306.722 91.6464 306.4 91.4127 306.09 91.1916C307.475 89.72 307.519 87.6735 306.482 85.6271C304.169 80.8269 299.139 77.7889 293.969 76.3046C290.019 75.174 285.753 74.8077 281.822 76.0456C279.591 76.753 277.556 77.9405 275.464 78.9952C271.565 80.9406 267.248 82.4817 264.335 85.684C263.652 86.4293 263.02 87.383 263.223 88.3683C263.374 89.101 263.956 89.6694 264.329 90.32C265.169 91.779 264.961 93.617 264.386 95.2086C263.81 96.8003 262.97 98.2782 262.572 99.9078C262.174 101.537 262.325 103.457 263.551 104.626C264.139 105.079 264.751 105.501 265.384 105.889C266.055 106.461 266.644 107.122 267.135 107.853C268.298 109.411 269.456 110.976 270.611 112.546C272.241 114.628 273.697 116.84 274.965 119.159C275.831 120.865 276.501 122.684 277.657 124.212C277.996 124.658 278.384 125.065 278.814 125.425L278.473 125.292C278.975 125.803 279.577 126.206 280.241 126.477C280.905 126.747 281.617 126.879 282.334 126.865C282.397 126.865 282.454 126.865 282.511 126.865C282.775 126.859 283.027 126.756 283.219 126.574C283.219 126.789 283.219 127.004 283.219 127.206C283.288 129.461 283.276 131.861 283.118 134.116L282.846 133.977C282.443 133.776 281.991 133.695 281.543 133.742C281.096 133.789 280.671 133.962 280.318 134.242L253.288 155.919C253.288 155.919 247.41 163.953 248.232 177.823L243.492 198.622C243.492 198.622 237.57 216.269 242.127 228.87C246.684 241.47 249.325 248.677 249.325 248.677C249.325 248.677 251.145 262.995 253.882 264.164C256.618 265.332 257.8 265.964 257.8 265.964L258.344 269.387C258.344 269.387 258.527 269.722 258.849 270.284C260.84 273.745 268.215 285.961 272.5 284.653C273.04 287.97 273.272 291.33 273.195 294.689L277.436 323.143C277.436 323.143 280.394 330.881 280.211 334.936C280.027 338.99 283.661 344.77 283.661 344.77C281.453 348.809 280.806 353.517 281.841 358.002C283.573 365.581 285.759 400.496 285.759 400.496L288.919 408.96L288.831 418.883C288.571 420.501 287.896 422.024 286.872 423.304C284.824 425.527 284.976 428.098 280.04 431.136C275.104 434.174 271.976 435.323 271.976 439.347C271.97 439.908 271.919 440.467 271.824 441.02C271.369 443.976 270.484 445.581 279.56 446.44C290.221 447.45 297.331 440.503 297.331 440.503C297.331 440.503 298.898 437.66 306.28 436.511C306.28 436.511 308.808 436.378 308.941 434.149C308.991 433.378 308.979 431.906 308.941 430.283C308.821 427.195 308.524 423.588 308.132 423.411C307.639 423.19 306.779 420.083 306.482 418.958H308.536C308.536 418.958 310.432 404.64 308.536 395.368C306.64 386.096 308.353 379.521 308.353 379.521L307.986 355.033C307.986 355.033 305.458 352.33 307.443 347.555C309.427 342.78 307.443 319.196 307.443 319.196C307.443 319.196 308.176 310.732 310.268 308.749C312.36 306.766 310.369 296.351 310.268 295.807L313.997 308.307C313.997 308.307 315.633 333.154 319.103 337.651L320.102 348.907C320.102 348.907 327.205 359.265 325.84 364.842C324.475 370.419 327.3 390.593 327.3 390.593V411.215C327.3 411.215 324.108 419.495 328.564 422.47L330.46 422.394C329.828 422.982 329.341 423.866 328.602 424.63C327.749 425.508 327.262 428.849 326.99 431.723C326.763 434.155 326.687 436.246 326.687 436.246C326.687 436.246 328.583 439.277 332.154 439.486C335.724 439.694 347.492 448.638 347.492 448.638C347.492 448.638 359.114 448.638 362.123 448.006L362.299 447.962C363.265 447.658 364.077 446.996 364.568 446.111C365.171 445.085 365.365 443.87 365.112 442.707C364.739 440.932 363.33 438.987 360.208 437.332C352.44 433.239 351.284 429.405 351.284 429.405L346.184 421.756H346.911C346.911 421.756 346.462 413.653 352.011 404.558L351.65 364.495C351.65 364.495 353.926 350.719 350.014 343.241C350.014 343.241 349.691 335.321 352.308 332.889C354.924 330.457 348.825 305.882 348.825 305.882C348.825 305.882 347.562 292.687 346.076 280.649C352.226 286.479 358.602 265.49 359.677 261.757H359.835L359.765 261.486C359.809 261.309 359.835 261.221 359.835 261.221C359.835 261.221 358.47 256.37 359.468 257.355C360.467 258.34 362.931 254.652 362.931 254.652C362.931 254.652 362.565 234.573 366.85 224.455C371.135 214.336 364.947 189.691 364.947 189.691ZM346.62 202.468L346.651 202.412C347.283 214.671 346.531 240.832 346.531 240.832C346.531 240.832 345.685 244.186 344.781 248.134L344.149 223.28L343.517 199.866L346.62 202.468ZM268.184 194.017C268.184 194.017 271.281 232.729 268.184 238.312C267.305 239.904 266.566 242.733 265.953 245.961C264.929 243.277 262.761 236.973 263.539 233.632C264.544 229.312 261.535 217.962 261.535 217.696C261.535 217.431 261.264 211.38 263.431 206.757C265.599 202.134 264.177 200.131 264.177 200.131C264.177 200.131 265.997 192.552 268.184 194.017Z" fill="url(#paint0_linear)"/>
<path d="M275.73 281.205C273.031 293.06 262.3 275.135 259.854 270.834C259.538 270.272 259.361 269.943 259.361 269.943L260.524 264.492L266.673 261.966C267.647 262.474 268.57 263.075 269.429 263.76C272.797 266.406 277.809 272.021 275.73 281.205Z" fill="#D38884"/>
<path d="M358.982 261.808C358.982 261.808 358.982 261.896 358.912 262.073C358.912 262.149 358.862 262.25 358.83 262.357C357.775 266.059 351.518 286.895 345.476 281.11C338.866 274.794 342.076 260.191 342.076 260.191H342.121L356.024 258.77L358.78 261.6L358.982 261.808Z" fill="#D38884"/>
<path d="M350.936 364.35L351.29 404.141C345.836 413.173 346.285 421.194 346.285 421.194L328.311 421.902C323.925 418.952 327.047 410.735 327.047 410.735V390.246C327.047 390.246 324.273 370.23 325.612 364.684C326.952 359.139 319.981 348.894 319.981 348.894L318.996 337.721C315.595 333.256 313.984 308.591 313.984 308.591L310.337 296.136C310.438 296.673 312.334 307.069 310.337 308.983C308.34 310.897 307.563 319.347 307.563 319.347C307.563 319.347 309.528 342.768 307.563 347.498C305.597 352.229 308.094 354.92 308.094 354.92L308.454 379.23C308.454 379.23 306.754 385.755 308.631 394.957C310.508 404.16 308.631 418.377 308.631 418.377H289.349L289.438 408.455L286.315 400.054C286.315 400.054 284.167 365.379 282.467 357.869C281.449 353.419 282.082 348.751 284.249 344.732C284.249 344.732 280.678 339.016 280.855 334.992C281.032 330.969 278.1 323.295 278.1 323.295L273.941 295.056C274.056 289.621 273.361 284.199 271.881 278.969C269.467 270.922 265.89 260.374 265.89 260.374L269.928 260.734L290.303 262.547C290.303 262.547 339.845 259.218 342.063 261.985C342.531 262.889 342.847 263.864 342.998 264.871C345.223 274.857 348.162 306.141 348.162 306.141C348.162 306.141 354.153 330.54 351.581 332.952C349.009 335.365 349.325 343.222 349.325 343.222C353.18 350.644 350.936 364.35 350.936 364.35Z" fill="#444053"/>
<path d="M309.055 433.466C308.916 435.683 306.445 435.816 306.445 435.816C299.202 436.953 297.66 439.77 297.66 439.77C297.66 439.77 290.708 446.673 280.223 445.669C271.312 444.81 272.178 443.225 272.639 440.288C272.729 439.741 272.778 439.187 272.785 438.633C272.785 434.61 275.869 433.466 280.697 430.422C285.526 427.378 285.393 424.858 287.403 422.647C289.412 420.436 289.621 416.148 289.621 416.148C291.896 412.188 297.666 416.779 297.666 416.779C297.938 418.182 306.514 417.986 306.514 417.986C306.514 417.986 307.652 422.546 308.239 422.811C308.625 422.988 308.916 426.563 309.029 429.633C309.093 431.243 309.105 432.702 309.055 433.466Z" fill="#B07473"/>
<path opacity="0.1" d="M309.055 433.466C308.916 435.683 306.445 435.816 306.445 435.816C299.202 436.953 297.66 439.77 297.66 439.77C297.66 439.77 290.708 446.673 280.223 445.669C271.312 444.81 272.178 443.225 272.639 440.288C276.621 441.273 284.23 442.65 288.673 440.237C294.848 436.89 299.278 434.553 299.278 434.553L309.036 429.645C309.093 431.243 309.105 432.702 309.055 433.466Z" fill="black"/>
<path d="M363.639 445.398C363.164 446.275 362.367 446.934 361.415 447.236L361.244 447.28C358.293 447.911 346.885 447.911 346.885 447.911C346.885 447.911 335.352 438.999 331.863 438.797C328.375 438.595 326.498 435.576 326.498 435.576C326.498 435.576 326.567 433.504 326.788 431.092C327.06 428.237 327.534 424.921 328.375 424.049C329.917 422.439 330.271 420.26 333.74 421.636C333.74 421.636 338.695 412.908 344.534 419.653L350.576 428.812C350.576 428.812 351.714 432.601 359.367 436.713C362.426 438.355 363.791 440.288 364.177 442.05C364.42 443.194 364.228 444.387 363.639 445.398Z" fill="#B07473"/>
<path opacity="0.1" d="M363.639 445.398C362.957 445.972 362.205 446.591 361.415 447.235L361.244 447.28C358.293 447.911 346.885 447.911 346.885 447.911C346.885 447.911 335.352 438.999 331.863 438.797C328.375 438.595 326.498 435.576 326.498 435.576C326.498 435.576 326.567 433.504 326.788 431.092C330.34 432.153 335.718 434.029 337.159 436.05C339.371 439.126 346.089 443.421 346.089 443.421C346.089 443.421 358.615 442.214 364.177 442.05C364.42 443.194 364.228 444.387 363.639 445.398Z" fill="black"/>
<path d="M314.894 133.516L298.399 150.942C298.399 150.942 278.409 149.47 281.898 143.571C283.674 140.564 283.952 134.274 283.794 128.804C283.649 123.53 283.105 119.039 283.105 119.039C283.105 119.039 311.14 105.093 309.017 118.098C308.559 120.549 308.533 123.06 308.941 125.52C310.135 132.088 314.894 133.516 314.894 133.516Z" fill="#D38884"/>
<path opacity="0.1" d="M308.992 118.098C308.534 120.549 308.509 123.06 308.916 125.52C306.998 127.462 304.713 129.003 302.194 130.054C299.675 131.104 296.971 131.643 294.241 131.64C290.449 131.64 286.348 128.526 283.282 126.726C283.137 121.446 283.105 119.039 283.105 119.039C283.105 119.039 311.14 105.093 308.992 118.098Z" fill="black"/>
<path d="M314.894 109.919C314.896 114.597 313.308 119.137 310.39 122.795C307.473 126.453 303.399 129.013 298.835 130.055C294.272 131.097 289.49 130.559 285.272 128.53C281.055 126.5 277.652 123.1 275.621 118.885C273.59 114.67 273.051 109.891 274.093 105.33C275.135 100.77 277.696 96.6977 281.356 93.7815C285.016 90.8653 289.558 89.2778 294.239 89.2789C298.92 89.28 303.462 90.8697 307.121 93.7876C309.545 95.7208 311.502 98.1748 312.848 100.967C314.194 103.76 314.893 106.819 314.894 109.919V109.919Z" fill="#D38884"/>
<path opacity="0.1" d="M342.999 264.871C337.854 277.106 304.763 277.358 304.763 277.358V264.019L302.76 263.886C303.626 267.707 301.547 277.023 301.547 277.023C275.395 280.712 269.018 265.819 269.018 265.819L269.928 260.722L290.303 262.534C290.303 262.534 339.845 259.206 342.063 261.972C342.533 262.881 342.849 263.86 342.999 264.871V264.871Z" fill="black"/>
<path d="M304.763 275.748V262.408L302.76 262.282C303.626 266.071 301.546 275.419 301.546 275.419C281.866 278.192 273.385 270.448 270.396 266.444C269.858 265.754 269.396 265.009 269.018 264.221L277.006 219.313L278.902 153.222L281.765 141.626L282.429 136.061V135.998H282.498L284.533 136.87L296.712 142.131L310.546 131.69L310.748 131.545L311.437 131.021L312.581 131.937L315.425 134.217L324.545 193.076C324.545 193.076 340.344 238.394 343.302 256.686C343.422 257.418 343.517 258.1 343.593 258.738C345.546 275.438 304.763 275.748 304.763 275.748Z" fill="#12C1A2"/>
<path d="M298.191 144.607C298.84 144.607 299.366 144.081 299.366 143.432C299.366 142.783 298.84 142.257 298.191 142.257C297.541 142.257 297.015 142.783 297.015 143.432C297.015 144.081 297.541 144.607 298.191 144.607Z" fill="#67647E"/>
<path d="M298.734 155.331C299.383 155.331 299.91 154.805 299.91 154.157C299.91 153.508 299.383 152.982 298.734 152.982C298.085 152.982 297.559 153.508 297.559 154.157C297.559 154.805 298.085 155.331 298.734 155.331Z" fill="#67647E"/>
<path d="M299.91 172.694C300.559 172.694 301.085 172.168 301.085 171.52C301.085 170.871 300.559 170.345 299.91 170.345C299.261 170.345 298.734 170.871 298.734 171.52C298.734 172.168 299.261 172.694 299.91 172.694Z" fill="#67647E"/>
<path d="M301.85 191.396C302.499 191.396 303.026 190.87 303.026 190.221C303.026 189.573 302.499 189.047 301.85 189.047C301.201 189.047 300.675 189.573 300.675 190.221C300.675 190.87 301.201 191.396 301.85 191.396Z" fill="#67647E"/>
<path d="M303.026 208.955C303.675 208.955 304.201 208.429 304.201 207.78C304.201 207.131 303.675 206.605 303.026 206.605C302.376 206.605 301.85 207.131 301.85 207.78C301.85 208.429 302.376 208.955 303.026 208.955Z" fill="#67647E"/>
<path d="M304.201 227.657C304.85 227.657 305.376 227.131 305.376 226.482C305.376 225.833 304.85 225.307 304.201 225.307C303.552 225.307 303.025 225.833 303.025 226.482C303.025 227.131 303.552 227.657 304.201 227.657Z" fill="#67647E"/>
<path d="M303.733 246.157C304.382 246.157 304.909 245.631 304.909 244.982C304.909 244.333 304.382 243.807 303.733 243.807C303.084 243.807 302.558 244.333 302.558 244.982C302.558 245.631 303.084 246.157 303.733 246.157Z" fill="#67647E"/>
<path opacity="0.1" d="M283.212 225.844C283.212 225.844 281.898 243.043 279.484 248.045C277.07 253.048 275.995 267.082 275.995 267.082L270.389 266.45C269.852 265.761 269.39 265.015 269.012 264.227L277 219.32L278.896 153.228L281.765 141.626L282.429 136.061L282.505 136.029C282.818 135.882 283.161 135.808 283.507 135.813C283.853 135.819 284.193 135.903 284.502 136.061L284.767 136.2C284.687 136.427 284.611 136.661 284.54 136.901C282.353 143.741 281.538 156.348 281.538 156.348C281.538 156.348 284.698 179.408 285.026 190.133C285.355 200.858 283.212 225.844 283.212 225.844Z" fill="black"/>
<path opacity="0.1" d="M269.429 263.779C269.367 263.923 269.296 264.062 269.214 264.195C267.04 267.865 261.529 270.196 259.854 270.834C259.538 270.271 259.361 269.943 259.361 269.943L260.524 264.492L266.673 261.966C267.648 262.48 268.571 263.087 269.429 263.779V263.779Z" fill="black"/>
<path d="M254.533 176.01L249.433 179.048L244.788 199.696C244.788 199.696 238.974 217.21 243.442 229.722C247.91 242.234 250.507 249.397 250.507 249.397C250.507 249.397 252.296 263.608 254.982 264.77C257.668 265.932 258.824 266.558 258.824 266.558L259.361 269.956C259.361 269.956 266.642 267.486 269.214 263.134C271.786 258.783 267.318 247.976 267.318 247.976C267.318 247.976 263.476 238.767 264.462 234.478C265.448 230.19 262.49 218.928 262.49 218.688C262.49 218.448 262.224 212.429 264.386 207.824C266.547 203.22 265.106 201.256 265.106 201.256L263.76 188.118L254.533 176.01Z" fill="#67647E"/>
<path opacity="0.1" d="M343.422 261.006C343.422 261.006 329.917 266.097 325.626 261.637C321.334 257.178 321.777 236.253 321.777 236.253C321.777 236.253 317.669 197.643 315.071 191.301C312.474 184.96 313.807 139.194 313.807 139.194C313.807 139.194 312.063 133.276 310.54 131.728C310.444 131.629 310.336 131.542 310.218 131.469L310.742 131.583L312.575 131.975L315.419 134.255L324.539 193.114C324.539 193.114 340.338 238.432 343.296 256.724L343.422 261.006Z" fill="black"/>
<path opacity="0.1" d="M358.982 262.345H358.83C357.13 262.566 342.127 264.379 342.064 261.258C342.061 260.898 342.08 260.537 342.121 260.178L356.024 258.757L358.78 261.587C358.83 261.77 358.868 261.928 358.906 262.054L358.982 262.345Z" fill="black"/>
<path d="M344.585 155.331L354.444 160.473C354.444 160.473 362.66 181.733 363.974 190.847C363.974 190.847 370.06 215.265 365.87 225.307C361.68 235.35 362.028 255.283 362.028 255.283C362.028 255.283 359.614 258.947 358.628 257.968C357.642 256.989 358.988 261.808 358.988 261.808C358.988 261.808 342.133 264.044 342.063 260.734C341.994 257.425 345.931 241.609 345.931 241.609C345.931 241.609 347.006 203.984 345.482 198.085C343.959 192.186 344.585 155.331 344.585 155.331Z" fill="#67647E"/>
<path opacity="0.1" d="M315.166 195.407C315.166 195.407 309.617 208.987 307.829 209.883C306.04 210.78 308.189 214.349 308.189 214.349C308.189 214.349 318.295 200.232 315.166 195.407Z" fill="black"/>
<path opacity="0.1" d="M311.855 147.771C311.918 147.512 305.238 154.321 303.449 155.35C301.661 156.38 309.977 155.287 311.855 147.771Z" fill="black"/>
<path opacity="0.1" d="M293.255 194.333C293.255 194.333 283.061 200.921 284.407 203.529C285.753 206.138 293.255 194.333 293.255 194.333Z" fill="black"/>
<path opacity="0.1" d="M311.766 290.496C311.766 290.496 320.443 296.073 333.942 297.443L311.766 290.496Z" fill="black"/>
<path opacity="0.1" d="M290.929 303.905C290.929 303.905 298.974 314.01 302.646 314.269C306.318 314.528 290.929 303.905 290.929 303.905Z" fill="black"/>
<path opacity="0.1" d="M302.198 343.507C301.838 343.683 297.635 352.621 293.35 352.892C289.065 353.164 302.198 343.507 302.198 343.507Z" fill="black"/>
<path opacity="0.1" d="M339.485 363.086C339.485 363.086 347.461 361.299 349.236 367.015C349.236 366.996 348.699 365.209 339.485 363.086Z" fill="black"/>
<path opacity="0.1" d="M334.119 395.778C334.119 395.778 343.782 393.808 345.836 396.492C347.89 399.176 334.119 395.778 334.119 395.778Z" fill="black"/>
<path opacity="0.1" d="M306.786 400.351C306.786 400.44 296.952 402.322 297.306 403.572C297.66 404.823 307.797 404.646 308.157 402.676C308.222 402.433 308.237 402.18 308.203 401.931C308.169 401.682 308.086 401.443 307.958 401.227C307.831 401.01 307.661 400.822 307.46 400.671C307.259 400.521 307.03 400.412 306.786 400.351Z" fill="black"/>
<path opacity="0.1" d="M330.903 408.827C330.903 408.827 347.063 406.857 346.071 410.255C345.078 413.653 330.903 408.827 330.903 408.827Z" fill="black"/>
<path opacity="0.1" d="M246.305 209.883C246.393 210.149 256.947 211.582 258.376 214.98C258.376 214.98 248.005 210.149 246.368 210.149" fill="black"/>
<path opacity="0.1" d="M261.15 237.497C261.15 237.497 252.384 240.27 253.01 244.445C253.636 248.62 252.119 242.512 261.15 237.497Z" fill="black"/>
<path opacity="0.1" d="M257.067 258.77C257.067 258.77 260.259 254.393 263.299 255.195C266.339 255.997 257.067 258.77 257.067 258.77Z" fill="black"/>
<path opacity="0.1" d="M307.121 93.7875C306.814 94.0852 306.47 94.3421 306.097 94.5518C303.569 96.0234 302.874 98.2909 301.673 100.906C300.554 103.3 299.322 105.832 297.066 107.19C294.152 108.946 290.316 108.302 287.289 109.83C285.945 110.53 284.842 111.615 284.121 112.947C283.4 114.279 283.095 115.796 283.244 117.302C283.437 118.465 283.724 119.61 284.104 120.726C284.792 123.141 285.103 125.649 285.026 128.16C285.033 128.233 285.033 128.307 285.026 128.381C282.436 127.087 280.147 125.264 278.308 123.03C276.468 120.795 275.12 118.199 274.349 115.41C273.578 112.621 273.403 109.701 273.835 106.84C274.266 103.978 275.295 101.24 276.854 98.8014C278.413 96.3632 280.468 94.2798 282.885 92.6864C285.301 91.093 288.026 90.0253 290.883 89.5525C293.739 89.0797 296.663 89.2125 299.465 89.942C302.267 90.6716 304.884 91.9818 307.146 93.7875H307.121Z" fill="black"/>
<path d="M306.584 87.5725C304.315 82.8102 299.379 79.7911 294.304 78.3195C290.43 77.2015 286.221 76.8352 282.379 78.0668C280.186 78.7616 278.195 79.9616 276.141 80.9912C272.311 82.9239 268.102 84.4524 265.22 87.6294C264.544 88.3683 263.956 89.3158 264.127 90.2948C264.272 91.0211 264.841 91.558 265.208 92.2275C266.035 93.6802 265.84 95.5055 265.264 97.0845C264.689 98.6636 263.874 100.129 263.482 101.752C263.09 103.375 263.242 105.276 264.443 106.432C264.98 106.944 265.669 107.266 266.25 107.696C266.907 108.263 267.484 108.917 267.963 109.641L271.376 114.302C272.979 116.368 274.408 118.563 275.648 120.865C276.495 122.557 277.152 124.364 278.29 125.873C279.427 127.383 281.197 128.595 283.08 128.431C283.226 128.435 283.371 128.404 283.502 128.342C283.634 128.279 283.749 128.187 283.839 128.071C283.909 127.923 283.941 127.761 283.933 127.598C284.017 125.096 283.712 122.597 283.03 120.189C282.649 119.073 282.362 117.928 282.17 116.765C282.025 115.259 282.332 113.744 283.052 112.413C283.773 111.082 284.874 109.996 286.215 109.294C289.248 107.765 293.085 108.409 295.992 106.66C298.254 105.295 299.487 102.763 300.599 100.344C301.819 97.7288 302.495 95.4613 305.023 93.9897C307.551 92.518 307.841 90.08 306.584 87.5725Z" fill="#585268"/>
<path opacity="0.1" d="M297.331 425.022C297.331 425.022 300.491 429.045 299.669 431.338C298.848 433.631 297.331 425.022 297.331 425.022Z" fill="black"/>
<path opacity="0.1" d="M340.085 435.09C340.085 435.09 340.787 429.696 343.599 429.645C346.412 429.595 346.551 429.355 348.699 430.182C350.848 431.009 352.864 432.292 352.22 432.481C351.575 432.671 348.522 429.399 345.388 431.073C343.432 432.143 341.645 433.496 340.085 435.09V435.09Z" fill="black"/>
<path opacity="0.1" d="M287.902 148.895L296.75 142.699C296.75 142.699 283.807 135.057 282.265 136.131C280.723 137.204 279.661 146.868 279.661 146.868L287.902 148.895Z" fill="black"/>
<path d="M287.864 148.497L296.712 142.181C296.712 142.181 283.769 134.539 282.227 135.613C280.685 136.686 279.623 146.881 279.623 146.881L287.864 148.497Z" fill="#E1E7EF"/>
<path d="M287.864 148.497L296.712 142.181C296.712 142.181 283.769 134.539 282.227 135.613C280.685 136.686 279.623 146.881 279.623 146.881L287.864 148.497Z" fill="#6C63FF"/>
<path d="M283.693 135.663L283.428 135.53C283.033 135.329 282.588 135.247 282.147 135.293C281.707 135.339 281.289 135.511 280.944 135.789L254.4 157.308C254.4 157.308 248.63 165.286 249.433 179.048L265.087 201.211C265.087 201.211 266.876 193.708 269.018 195.135C269.018 195.135 272.058 233.569 269.018 239.108C265.978 244.647 264.639 265.383 264.639 265.383L274.921 266.545C274.921 266.545 275.995 252.511 278.41 247.508C280.824 242.506 282.138 225.307 282.138 225.307C282.138 225.307 284.312 200.321 283.952 189.596C283.592 178.871 280.464 155.811 280.464 155.811C280.464 155.811 281.342 142.295 283.693 135.663Z" fill="#67647E"/>
<path opacity="0.1" d="M310.136 144.979L299.107 140.899C299.107 140.899 313.15 125.526 314.907 134.053L310.136 144.979Z" fill="black"/>
<path d="M310.136 144.443L299.107 140.362C299.107 140.362 313.15 124.989 314.907 133.516L310.136 144.443Z" fill="#E1E7EF"/>
<path d="M310.136 144.443L299.107 140.362C299.107 140.362 313.15 124.989 314.907 133.516L310.136 144.443Z" fill="#6C63FF"/>
<path opacity="0.1" d="M309.775 131.362C309.934 131.336 310.097 131.373 310.23 131.463L309.775 131.362Z" fill="black"/>
<path d="M310.837 130.294L340.098 136.611C340.098 136.611 348.149 138.398 353.964 158.597C359.778 178.796 346.001 203.542 346.001 203.542L342.961 200.959L344.484 259.945C344.484 259.945 330.978 265.035 326.687 260.576C322.396 256.117 322.845 235.173 322.845 235.173C322.845 235.173 318.73 196.569 316.133 190.221C313.536 183.874 314.869 138.12 314.869 138.12C314.869 138.12 312.48 129.941 310.837 130.294Z" fill="#67647E"/>
<path opacity="0.1" d="M337.608 167.881C337.197 168.26 336.717 186.11 338.505 199.696C339.599 207.969 341.288 216.153 343.561 224.183L340.907 169.757C340.907 169.757 338.859 166.719 337.608 167.881Z" fill="black"/>
<path opacity="0.1" d="M334.031 152.508C334.745 152.957 337.88 160.372 336.445 163.41C335.01 166.448 334.031 152.508 334.031 152.508Z" fill="black"/>
<path opacity="0.1" d="M306.413 87.5725C304.977 84.7455 302.739 82.4038 299.98 80.8395C302.031 82.3079 303.688 84.2607 304.802 86.524C306.066 89.0504 305.693 91.5769 303.234 92.9601C300.776 94.3433 300.011 96.6992 298.81 99.3141C297.692 101.708 296.459 104.241 294.197 105.63C291.29 107.386 287.454 106.735 284.42 108.264C283.08 108.969 281.979 110.056 281.259 111.388C280.539 112.72 280.231 114.235 280.375 115.742C280.57 116.903 280.859 118.046 281.241 119.159C281.929 121.575 282.24 124.083 282.164 126.593C282.17 126.757 282.135 126.92 282.063 127.067C281.975 127.183 281.862 127.276 281.731 127.339C281.6 127.401 281.456 127.432 281.311 127.427C280.552 127.485 279.792 127.343 279.105 127.016C279.602 127.509 280.195 127.895 280.847 128.151C281.499 128.406 282.197 128.525 282.897 128.501C283.011 128.517 283.127 128.507 283.237 128.471C283.346 128.436 283.446 128.375 283.528 128.294C283.61 128.213 283.672 128.115 283.709 128.006C283.747 127.897 283.759 127.781 283.744 127.667C283.826 125.156 283.516 122.649 282.827 120.233C282.442 119.119 282.152 117.973 281.962 116.81C281.816 115.303 282.123 113.788 282.844 112.457C283.564 111.126 284.665 110.04 286.006 109.338C289.04 107.809 292.876 108.453 295.783 106.704C298.046 105.34 299.278 102.807 300.39 100.388C301.61 97.773 302.286 95.5055 304.814 94.0338C307.342 92.5622 307.677 90.08 306.413 87.5725Z" fill="black"/>
<path d="M486.447 166.89C477.739 166.719 470.054 160.574 465.699 153.064C464.557 151.277 463.839 149.253 463.601 147.146C463.631 146.667 463.712 146.193 463.841 145.731C464.107 145.026 464.318 144.302 464.473 143.565C464.508 143.271 464.508 142.974 464.473 142.68C464.473 142.68 464.473 142.68 464.473 142.63C464.682 141.032 463.74 139.472 462.577 138.379C461.414 137.286 459.954 136.484 458.741 135.398C455 132.113 453.862 126.846 453.792 121.831V121.566C453.837 119.418 454.007 117.264 453.988 115.117C454.018 113.898 453.965 112.678 453.83 111.466C453.47 108.428 452.314 105.333 449.925 103.394C443.693 98.3414 433.215 103.603 426.762 98.8277C425.195 97.6593 423.925 95.935 422.022 95.4802C420.588 95.1328 419.096 95.6002 417.693 96.0676C412.941 97.634 407.638 99.6931 405.78 104.279C404.719 106.912 405.016 109.919 404.042 112.584C403.41 114.372 402.203 115.906 401.325 117.599C400.604 118.873 400.253 120.324 400.314 121.787C400.236 122.544 400.342 123.309 400.623 124.016C400.954 124.869 401.485 125.629 402.172 126.233C401.924 126.761 401.614 127.257 401.249 127.711C400.036 129.195 398.171 130.238 396.907 131.716C394.569 134.425 394.657 138.107 395.808 141.291C396.958 144.474 399.037 147.373 400.472 150.474C401.104 151.82 401.584 153.323 400.946 154.662C400.497 155.59 399.568 156.298 398.847 157.1C397.793 158.281 397.131 159.759 396.952 161.332C382.725 164.578 382.713 176.004 382.713 176.004L375.028 195.319C375.028 195.319 373.795 198.571 372.348 202.866L363.254 201.237L369.574 211.81C368.379 216.117 367.532 220.109 367.811 222.118C367.811 222.118 364.986 235.381 370.01 237.699L381.095 242.683C381.575 242.977 382.091 243.209 382.631 243.371L383.079 243.573C383.241 243.652 383.418 243.692 383.598 243.692C383.777 243.692 383.954 243.652 384.116 243.573H384.147H384.268C384.483 243.588 384.698 243.556 384.899 243.479C385.146 243.346 385.342 243.135 385.456 242.879C385.452 242.858 385.452 242.836 385.456 242.815L388.774 241.855L391.586 245.184C392.85 246.075 394.114 246.845 395.308 247.54L390.954 290.755C390.954 290.755 390.252 348.231 388.129 361.33C387.345 366.181 387.339 369.491 387.636 371.739L387.554 371.878C388.078 375.573 389.45 376.3 389.45 376.3V376.249C389.475 376.269 389.503 376.286 389.532 376.3C390.172 374.622 390.932 372.992 391.807 371.424C391.807 371.733 391.807 372.055 391.807 372.371C391.763 377.247 391.611 384.075 391.106 388.515C390.246 396.094 393.305 421.074 393.305 421.074L394.36 443.812C394.532 447.673 393.635 451.506 391.769 454.891C389.241 459.432 386.012 465.824 385.778 468.66C385.765 468.813 385.765 468.967 385.778 469.121V469.121L380.355 475.639C380.355 475.639 378.238 478.911 383.022 480.231C385.595 480.944 390.031 480.231 393.596 479.391C395.152 479.032 396.54 478.158 397.535 476.91C398.53 475.662 399.073 474.114 399.075 472.519C399.976 469.387 401.498 466.468 403.549 463.935L404.441 469.171L410.407 470.649L411.171 456.299C411.479 455.494 411.619 454.634 411.582 453.773V453.773C412.757 443.566 408.814 444.482 408.814 444.482C408.919 444.571 408.987 444.698 409.004 444.835L408.814 444.488C406.393 439.713 407.55 431.856 407.55 431.856C407.55 431.856 410.71 409.118 411.791 403.111C412.568 398.867 412.246 384.972 411.986 377.215C411.986 376.893 411.986 376.584 411.955 376.274C421.207 376.154 432.545 375.845 440.502 375.074V376.009L439.036 429.727C438.935 433.152 438.238 436.534 436.975 439.719C436.975 439.783 436.931 439.839 436.906 439.903C435.161 444.402 434.177 449.159 433.992 453.981L433.31 471.034V471.508C432.122 471.963 430.245 473.283 430.194 477.111C430.112 482.719 440.003 480.85 440.003 480.85C449.887 480.85 449.969 470.567 449.969 470.567C449.969 470.567 450.279 461.137 450.753 454.827C451.227 448.518 449.261 449.907 449.261 449.907L449.109 467.858C449.109 467.902 449.109 467.946 449.109 467.996V452.263L449.261 449.983V449.92V449.434L450.506 430.921C450.506 430.921 459.613 400.073 461.022 394.155C462.027 389.949 461.61 377.279 461.282 370.274C461.282 369.952 461.282 369.642 461.231 369.346C464.056 369.093 466.552 369.068 467.551 369.068H468.012C468.012 369.068 467.545 319.524 466.363 300.854C465.181 282.184 463.304 265.099 458.596 259.957C455.752 256.85 451.789 247.256 449.116 240.15C454.736 242.579 460.569 244.481 466.54 245.835C481.448 248.955 479.407 236.019 479.407 236.019L477.897 211.557H477.998C477.942 205.149 477.393 198.755 476.354 192.432C475.564 187.581 474.357 182.566 472.512 178.537C474.13 177.905 475.729 177.229 477.296 176.535C481.347 174.747 485.91 172.214 486.492 167.85H486.296C486.374 167.535 486.425 167.214 486.447 166.89V166.89ZM394.032 202.26C394.063 204.786 393.969 209.17 393.817 214.014L389.083 207.698L393.829 200.005L394.032 202.26ZM459.43 224.644L451.543 222.118C452.941 219.937 454.575 217.916 456.415 216.092L457.098 215.461L456.851 215.511L457.231 215.164L457.458 215.113L457.098 215.461L457.528 215.372C458.002 217.352 458.921 219.199 460.213 220.772C463.045 223.861 459.436 224.644 459.436 224.644H459.43Z" fill="url(#paint1_linear)"/>
<path d="M411.519 452.017L410.596 469.5L404.712 468.028L403.474 460.758L411.519 452.017Z" fill="#A27772"/>
<path opacity="0.1" d="M411.519 452.017L410.596 469.5L404.712 468.028L403.474 460.758L411.519 452.017Z" fill="black"/>
<path d="M433.114 471.818L442.088 473.675L448.743 467.801V451.246L448.895 448.985V448.916V448.436L450.134 430.037C450.134 430.037 459.114 399.41 460.511 393.53C461.497 389.361 461.086 376.78 460.757 369.826C460.625 366.977 460.511 365.07 460.511 365.07L440.698 360.276L440.281 375.497L438.834 428.83C438.734 432.23 438.048 435.587 436.805 438.753L436.736 438.936C435.013 443.403 434.041 448.124 433.86 452.907L433.19 469.866V470.333L433.114 471.818Z" fill="#CC818C"/>
<path opacity="0.1" d="M433.114 471.818L442.088 473.675L448.743 467.801V466.392C448.722 466.704 448.623 467.005 448.457 467.27C448.29 467.534 448.061 467.754 447.789 467.908L447.694 467.965C444.603 469.598 441.101 470.29 437.62 469.954L434.119 469.658C433.8 469.688 433.487 469.764 433.19 469.885V470.352L433.114 471.818Z" fill="black"/>
<path d="M447.694 468.426L447.789 468.375C448.081 468.211 448.324 467.973 448.494 467.685C448.664 467.396 448.754 467.068 448.756 466.733L448.901 448.916C448.901 448.916 450.835 447.532 450.367 453.798C449.9 460.063 449.596 469.424 449.596 469.424C449.596 469.424 449.521 479.631 439.769 479.631C439.769 479.631 430.017 481.488 430.093 475.917C430.169 470.346 434.119 470.119 434.119 470.119L437.62 470.422C441.101 470.758 444.604 470.064 447.694 468.426Z" fill="#B07473"/>
<path d="M386.372 468.028C386.6 472.051 398.443 469.727 398.443 469.727L406.412 454.265C406.412 454.265 413.067 449.156 409.737 444.671C409.559 444.427 409.396 444.172 409.25 443.907C409.25 443.907 409.25 443.907 409.219 443.869C409.149 443.755 409.086 443.635 409.023 443.509C406.634 438.772 407.809 431.003 407.809 431.003C407.809 431.003 410.9 408.417 411.987 402.461C412.751 398.254 412.435 384.454 412.183 376.735C412.081 373.527 411.987 371.373 411.987 371.373L392.325 366.112C392.325 366.112 392.325 368.562 392.325 371.973C392.281 376.818 392.13 383.595 391.63 388.003C390.783 395.5 393.798 420.329 393.798 420.329L394.841 442.922C395.021 446.749 394.147 450.553 392.313 453.918C389.848 458.428 386.625 464.782 386.404 467.592C386.382 467.736 386.371 467.882 386.372 468.028V468.028Z" fill="#CC818C"/>
<path opacity="0.1" d="M386.372 468.028C386.6 472.051 398.443 469.727 398.443 469.727L406.413 454.265C406.413 454.265 413.067 449.156 409.737 444.671C409.559 444.427 409.396 444.172 409.25 443.907C409.143 446.25 406.57 452.118 406.57 452.118C406.57 452.118 399.992 465.274 397.9 468.287C395.808 471.3 386.72 467.725 386.379 467.599C386.365 467.741 386.363 467.885 386.372 468.028V468.028Z" fill="black"/>
<path d="M409.022 443.49C409.022 443.49 412.916 442.587 411.753 452.718C411.797 453.869 411.535 455.011 410.995 456.028C410.454 457.046 409.654 457.902 408.675 458.51C405.888 460.259 401.59 464.024 399.416 471.344C399.418 472.924 398.885 474.457 397.904 475.696C396.923 476.934 395.552 477.805 394.013 478.165C390.499 478.986 386.119 479.707 383.585 478.999C378.864 477.685 380.956 474.439 380.956 474.439L386.372 468.015C386.372 468.015 395.814 471.729 397.9 468.71C399.985 465.691 406.57 452.547 406.57 452.547C406.57 452.547 410.179 444.343 409.022 443.49Z" fill="#B07473"/>
<path opacity="0.1" d="M440.698 362.152L440.281 377.373C445.558 376.862 449.337 376.148 449.982 375.144C451.378 372.984 456.447 372.074 460.757 371.701C460.624 368.853 460.511 366.945 460.511 366.945L440.698 362.152Z" fill="black"/>
<path opacity="0.1" d="M392.325 373.824C392.83 372.792 393.573 371.896 394.493 371.209C396.578 370.053 396.351 378.637 396.351 378.637C396.351 378.637 403.303 378.7 412.182 378.586C412.081 375.377 411.986 373.217 411.986 373.217L392.325 367.962C392.325 367.962 392.363 370.4 392.325 373.824Z" fill="black"/>
<path d="M390.082 375.857C390.082 375.857 392.408 369.541 394.506 368.417C396.604 367.293 396.364 375.838 396.364 375.838C396.364 375.838 447.441 376.306 449.995 372.358C452.548 368.411 467.406 368.644 467.406 368.644C467.406 368.644 466.944 319.455 465.782 300.898C464.619 282.342 462.767 265.395 458.122 260.292C455.12 256.989 450.848 246.302 448.206 239.177C446.771 235.287 445.817 232.451 445.817 232.451L397.066 235.23L396.667 239.177L391.491 290.919C391.491 290.919 390.796 347.997 388.704 360.989C386.613 373.982 390.082 375.857 390.082 375.857Z" fill="#444053"/>
<g opacity="0.1">
<path opacity="0.1" d="M446.026 372.358C448.554 368.417 463.437 368.645 463.437 368.645C463.437 368.645 462.976 319.455 461.813 300.898C460.65 282.342 458.798 265.395 454.153 260.292C451.139 256.976 446.879 246.302 444.237 239.177C443.03 235.906 442.164 233.386 441.924 232.666L445.716 232.451C445.716 232.451 446.67 235.287 448.111 239.177C450.753 246.302 455.019 256.989 458.021 260.292C462.666 265.395 464.524 282.335 465.681 300.898C466.837 319.461 467.311 368.645 467.311 368.645C467.311 368.645 452.453 368.417 449.894 372.358C447.713 375.725 410.129 375.883 399.221 375.851C413.219 375.82 444.054 375.403 446.026 372.358Z" fill="black"/>
<path opacity="0.1" d="M390.537 368.417C391.479 367.893 391.946 369.346 392.18 371.108C391.336 372.636 390.603 374.224 389.987 375.857C389.987 375.857 388.641 375.131 388.091 371.436C388.862 370.116 389.716 368.872 390.537 368.417Z" fill="black"/>
</g>
<path d="M405.149 113.437C401.774 118.035 405.187 124.572 401.565 129.044C400.371 130.522 398.532 131.57 397.287 133.023C394.98 135.714 395.068 139.371 396.2 142.529C397.331 145.687 399.36 148.567 400.801 151.649C401.433 152.982 401.9 154.479 401.268 155.805C400.826 156.727 399.91 157.428 399.195 158.224C396.87 160.82 396.806 164.427 398.058 167.484C399.309 170.541 401.698 173.168 404.055 175.758C404.984 176.775 406.16 177.899 407.708 177.867C408.523 177.806 409.31 177.548 410.002 177.116C415.364 174.379 419.463 169.68 421.445 163.999C423.428 158.317 423.141 152.091 420.645 146.615C418.686 141.922 415.419 137.425 415.387 132.467C415.387 128.532 417.409 124.774 417.77 120.858C418.206 116.096 415.387 108.536 409.636 106.458C410.015 109.515 406.861 111.075 405.149 113.437Z" fill="#585268"/>
<path opacity="0.1" d="M405.149 113.437C401.774 118.035 405.187 124.572 401.565 129.044C400.371 130.522 398.532 131.57 397.287 133.023C394.98 135.714 395.068 139.371 396.2 142.529C397.331 145.687 399.36 148.567 400.801 151.649C401.433 152.982 401.9 154.479 401.268 155.805C400.826 156.727 399.91 157.428 399.195 158.224C396.87 160.82 396.806 164.427 398.058 167.484C399.309 170.541 401.698 173.168 404.055 175.758C404.984 176.775 406.16 177.899 407.708 177.867C408.523 177.806 409.31 177.548 410.002 177.116C415.364 174.379 419.463 169.68 421.445 163.999C423.428 158.317 423.141 152.091 420.645 146.615C418.686 141.922 415.419 137.425 415.387 132.467C415.387 128.532 417.409 124.774 417.77 120.858C418.206 116.096 415.387 108.536 409.636 106.458C410.015 109.515 406.861 111.075 405.149 113.437Z" fill="black"/>
<path opacity="0.1" d="M442.575 280.693C435.819 281.047 429.461 283.952 423.546 287.237C417.63 290.521 411.905 294.241 405.541 296.572" fill="black"/>
<path opacity="0.1" d="M438.378 296.603C431.695 297.24 425.467 300.268 420.841 305.13C419.197 306.867 417.782 308.812 416.069 310.48C413.447 313.037 410.207 314.871 406.665 315.804" fill="black"/>
<path opacity="0.1" d="M439.763 308.711C434.373 310.206 429.495 313.146 425.657 317.213C424.62 318.331 423.678 319.524 422.642 320.642C417.049 326.643 409.149 329.826 401.521 332.839" fill="black"/>
<path d="M439.187 140.798C439.336 146.193 439.801 151.576 440.578 156.917C441.21 160.706 442.094 164.117 443.365 165.627C447.081 170.048 425.258 175.953 425.258 175.953L412.372 165.974C412.372 165.974 422.585 156.576 417.826 147.411C413.067 138.246 439.187 140.798 439.187 140.798Z" fill="#CC818C"/>
<path opacity="0.1" d="M396.655 239.177H448.193C446.759 235.287 445.804 232.451 445.804 232.451L397.053 235.23L396.655 239.177Z" fill="black"/>
<path d="M393.337 238.249H448.44C446.891 232.71 448.44 227.587 450.645 223.646C452.191 220.884 454.136 218.364 456.415 216.168L456.795 215.821L476.032 211.564L477.069 211.336C477.069 211.336 477.227 176.377 464.84 171.576C452.453 166.776 445.027 160.29 445.027 160.29L428.008 165.545L415.469 159.228C411.443 163.555 400.762 161.856 400.762 161.856C383.275 163.864 383.275 177.015 383.275 177.015C383.275 177.015 393.488 200.832 394.266 200.832C395.043 200.832 393.337 238.249 393.337 238.249Z" fill="#12C1A2"/>
<path opacity="0.1" d="M412.36 216.023C412.36 216.023 401.123 213.534 397.299 209.182Z" fill="black"/>
<path opacity="0.1" d="M469.017 202.98L455.986 213.654C456.08 214.504 456.224 215.347 456.416 216.181L456.795 215.833L476.033 211.576L469.017 202.98Z" fill="black"/>
<path opacity="0.1" d="M433.733 234.535C433.733 234.535 436.584 236.139 440.951 238.249H448.44C446.891 232.71 448.44 227.587 450.645 223.646L437.443 219.377C441.937 223.551 433.733 234.535 433.733 234.535Z" fill="black"/>
<path d="M391.011 172.821L383.276 176.996L375.692 196.178C375.692 196.178 367.798 217.21 368.569 222.781C368.569 222.781 365.788 235.931 370.737 238.249L383.629 244.085C383.857 244.186 384.111 244.213 384.355 244.163C384.599 244.113 384.821 243.989 384.991 243.807C385.161 243.625 385.271 243.395 385.304 243.148C385.337 242.902 385.293 242.651 385.178 242.43C383.339 238.95 381.316 233.506 384.546 230.512L380.83 222.781L394.259 200.814L398.747 193.234L391.011 172.821Z" fill="#12C1A2"/>
<path opacity="0.1" d="M408.22 211.633C408.89 214.362 411.152 218.581 418.641 220.153L426.857 226.88L435.597 230.84L439.162 232.451L440.672 221.543L437.241 219.648L433.24 217.463C433.24 217.463 424.215 201.123 409.926 207.989C409.262 208.303 408.728 208.839 408.417 209.504C408.106 210.169 408.036 210.922 408.22 211.633Z" fill="black"/>
<path d="M408.688 210.705C409.358 213.439 411.614 217.652 419.103 219.225L427.319 225.952L436.066 229.912L439.624 231.522L441.134 220.614L437.702 218.72L433.734 216.553C433.734 216.553 424.702 200.214 410.413 207.111C409.756 207.42 409.226 207.947 408.912 208.601C408.597 209.256 408.518 209.999 408.688 210.705V210.705Z" fill="#CC818C"/>
<path opacity="0.1" d="M424.791 154.946C435.817 154.946 444.755 146.013 444.755 134.994C444.755 123.974 435.817 115.041 424.791 115.041C413.765 115.041 404.826 123.974 404.826 134.994C404.826 146.013 413.765 154.946 424.791 154.946Z" fill="black"/>
<path d="M424.791 154.485C435.817 154.485 444.755 145.552 444.755 134.533C444.755 123.513 435.817 114.58 424.791 114.58C413.765 114.58 404.826 123.513 404.826 134.533C404.826 145.552 413.765 154.485 424.791 154.485Z" fill="#CC818C"/>
<path opacity="0.1" d="M437.159 177.166L431.155 165.507C431.155 165.507 439.939 161.957 440.578 157.845C441.216 153.733 448.996 162.664 447.315 165.627C445.634 168.589 437.159 177.166 437.159 177.166Z" fill="black"/>
<path d="M437.159 176.238L431.155 164.578C431.155 164.578 439.939 161.029 440.578 156.917C441.216 152.805 448.996 161.742 447.315 164.698C445.634 167.654 437.159 176.238 437.159 176.238Z" fill="#6C63FF"/>
<path d="M388.022 206.359L421.195 250.932C421.195 250.932 408.966 257.582 392.123 245.677L384.849 237.011L364.082 202.026L388.022 206.359Z" fill="#F6F8FB"/>
<path d="M381.493 230.594L384.514 230.512C384.514 230.512 402.968 212.612 407.499 221.669C412.031 230.727 396.004 239.19 396.004 239.19L391.131 241.818L384.779 243.712L380.716 238.262L381.493 230.594Z" fill="#CC818C"/>
<path opacity="0.1" d="M385.949 240.264C386.227 241.293 386.492 242.43 386.024 243.384C385.912 243.639 385.719 243.85 385.475 243.984C385.274 244.061 385.057 244.092 384.843 244.072C383.244 243.936 381.756 243.201 380.678 242.013C379.619 240.83 378.712 239.519 377.979 238.11C377.158 236.676 376.304 235.091 376.595 233.461C376.924 231.687 378.491 230.455 380.027 229.457C383.086 227.436 383.187 229.792 383.857 232.394C384.527 234.996 385.247 237.636 385.949 240.264Z" fill="black"/>
<path d="M385.488 240.264C385.759 241.293 386.031 242.43 385.563 243.384C385.451 243.639 385.258 243.85 385.014 243.984C384.812 244.061 384.596 244.091 384.382 244.072C382.782 243.94 381.293 243.203 380.217 242.013C379.154 240.832 378.245 239.52 377.512 238.11C376.69 236.676 375.837 235.091 376.134 233.461C376.456 231.687 378.03 230.455 379.559 229.457C382.625 227.436 382.719 229.792 383.396 232.394C384.072 234.996 384.78 237.636 385.488 240.264Z" fill="#12C1A2"/>
<path opacity="0.1" d="M394.266 200.814L395.808 198.205L394.462 203.049L394.266 200.814Z" fill="black"/>
<path opacity="0.1" d="M436.09 229.912L439.648 231.522L441.159 220.614L437.727 218.72C440.097 221.436 438.024 226.457 436.09 229.912Z" fill="black"/>
<path opacity="0.1" d="M450.373 217.248C450.373 217.248 438.884 217.949 434.005 214.816Z" fill="black"/>
<g opacity="0.1">
<path opacity="0.1" d="M448.945 224.575C450.491 221.811 452.436 219.289 454.715 217.09C455.262 216.747 455.83 216.439 456.415 216.168L474.326 212.492L475.362 212.265C475.362 212.265 475.52 177.305 463.14 172.505C456.195 169.866 449.685 166.202 443.826 161.635L445.185 161.218C445.185 161.218 452.611 167.711 464.998 172.505C477.385 177.299 477.22 212.265 477.22 212.265H475.362L457.035 215.77C457.035 215.77 456.245 216.534 456.005 216.755C453.706 219.056 451.735 221.662 450.146 224.499C447.721 228.999 447.169 234.273 448.61 239.177H446.714C445.185 233.638 446.765 228.516 448.945 224.575Z" fill="black"/>
<path opacity="0.1" d="M400.029 162.867C400.326 162.822 400.611 162.778 400.92 162.746C402.177 162.925 403.443 163.028 404.712 163.056C403.149 163.099 401.584 163.036 400.029 162.867V162.867Z" fill="black"/>
<path opacity="0.1" d="M426.301 166.473L414.963 160.738C415.188 160.554 415.4 160.353 415.595 160.138L427.426 166.119L426.301 166.473Z" fill="black"/>
</g>
<path d="M469.466 202.026L477.049 211.311L478.598 236.525C478.598 236.525 480.608 249.359 465.907 246.264C451.207 243.169 434.194 233.607 434.194 233.607C434.194 233.607 442.41 222.623 437.91 218.448L458.962 225.257C458.962 225.257 462.52 224.48 459.733 221.391C456.946 218.303 456.453 212.726 456.453 212.726L469.466 202.026Z" fill="#12C1A2"/>
<path opacity="0.1" d="M472.892 228.661L477.069 233.455C475.994 233.125 475.034 232.501 474.295 231.654C473.557 230.807 473.071 229.77 472.892 228.661V228.661Z" fill="black"/>
<path opacity="0.1" d="M465.769 227.884L472.272 236.234L469.023 237.011L465.769 227.884Z" fill="black"/>
<path opacity="0.1" d="M400.946 125.374C400.232 123.625 400.781 121.585 401.641 119.936C402.5 118.288 403.682 116.728 404.327 114.953C405.281 112.313 404.99 109.325 406.033 106.742C407.872 102.163 413.099 100.116 417.782 98.5309C419.166 98.0698 420.638 97.6088 422.054 97.9498C423.95 98.3983 425.182 100.116 426.731 101.272C433.089 106.009 443.428 100.792 449.577 105.807C451.928 107.702 453.072 110.803 453.426 113.816C453.78 116.829 453.426 119.886 453.388 122.924C453.287 128.242 454.286 134.059 458.267 137.583C459.468 138.644 460.884 139.44 462.059 140.539C463.235 141.638 464.157 143.173 463.955 144.765C463.799 145.496 463.588 146.213 463.323 146.912C462.533 149.685 463.715 152.597 465.156 155.123C469.453 162.557 477.031 168.684 485.62 168.854C485.044 173.187 480.564 175.701 476.55 177.476C471.495 179.743 466.11 181.966 460.542 181.682C454.974 181.398 449.166 177.836 448.193 172.353C447.858 170.458 447.902 168.178 446.297 167.193C445.311 166.593 444.035 166.745 442.973 166.296C441.437 165.665 440.679 163.94 440.173 162.355C439.137 159.084 438.582 155.68 438.524 152.249C438.454 148.182 438.991 143.741 436.685 140.394C434.549 137.293 430.757 135.72 428.292 132.871C426.017 130.231 423.546 127.048 419.817 126.555C414.66 125.829 403.992 132.834 400.946 125.374Z" fill="black"/>
<path d="M400.946 124.446C400.232 122.696 400.781 120.656 401.641 119.008C402.5 117.359 403.682 115.799 404.327 114.024C405.281 111.384 404.99 108.397 406.033 105.813C407.872 101.228 413.099 99.1815 417.782 97.6025C419.166 97.1414 420.638 96.6803 422.054 97.0214C423.95 97.4698 425.182 99.1878 426.731 100.344C433.089 105.081 443.428 99.8636 449.577 104.879C451.928 106.773 453.072 109.875 453.426 112.894C453.78 115.913 453.426 118.957 453.388 121.995C453.287 127.313 454.286 133.13 458.267 136.655C459.468 137.716 460.884 138.512 462.059 139.611C463.235 140.71 464.157 142.245 463.955 143.836C463.799 144.567 463.588 145.285 463.323 145.984C462.533 148.756 463.715 151.668 465.156 154.195C469.466 161.603 477.012 167.749 485.601 167.919C485.025 172.252 480.545 174.766 476.532 176.547C471.476 178.808 466.091 181.032 460.523 180.747C454.955 180.463 449.147 176.901 448.174 171.419C447.839 169.524 447.884 167.244 446.278 166.258C445.292 165.658 444.016 165.81 442.954 165.361C441.418 164.73 440.66 163.005 440.154 161.42C439.118 158.149 438.562 154.745 438.505 151.314C438.435 147.247 438.972 142.807 436.666 139.459C434.53 136.358 430.738 134.785 428.273 131.937C425.998 129.297 423.527 126.113 419.798 125.621C414.66 124.901 403.992 131.918 400.946 124.446Z" fill="#585268"/>
<path opacity="0.1" d="M415.115 175.72L426.56 166.435C426.56 166.435 418.723 162.191 417.788 158.572C416.853 154.952 410.583 160.29 411.222 163.536C411.86 166.782 415.115 175.72 415.115 175.72Z" fill="black"/>
<path d="M415.564 174.324L427.009 165.046C427.009 165.046 419.172 160.801 418.275 157.182C417.377 153.563 411.07 158.9 411.708 162.146C412.347 165.393 415.564 174.324 415.564 174.324Z" fill="#6C63FF"/>
<path opacity="0.1" d="M427.457 173.724C427.96 173.724 428.367 173.317 428.367 172.814C428.367 172.312 427.96 171.905 427.457 171.905C426.955 171.905 426.547 172.312 426.547 172.814C426.547 173.317 426.955 173.724 427.457 173.724Z" fill="black"/>
<path opacity="0.1" d="M427.457 178.777C427.96 178.777 428.367 178.37 428.367 177.867C428.367 177.365 427.96 176.958 427.457 176.958C426.955 176.958 426.547 177.365 426.547 177.867C426.547 178.37 426.955 178.777 427.457 178.777Z" fill="black"/>
<path opacity="0.1" d="M427.457 183.823C427.96 183.823 428.367 183.416 428.367 182.914C428.367 182.411 427.96 182.004 427.457 182.004C426.955 182.004 426.547 182.411 426.547 182.914C426.547 183.416 426.955 183.823 427.457 183.823Z" fill="black"/>
<g opacity="0.1">
<path opacity="0.1" d="M405.566 111.548C406.469 109.066 406.273 106.281 407.12 103.78C406.728 104.333 406.403 104.931 406.153 105.561C405.104 108.169 405.401 111.157 404.441 113.772L404.377 113.923C404.846 113.17 405.243 112.375 405.566 111.548V111.548Z" fill="black"/>
<path opacity="0.1" d="M477.77 174.071C472.714 176.332 467.33 178.556 461.762 178.271C456.194 177.987 450.386 174.425 449.413 168.949C449.078 167.054 449.122 164.768 447.517 163.782C446.531 163.182 445.254 163.334 444.192 162.885C442.657 162.254 441.898 160.53 441.393 158.944C440.356 155.673 439.801 152.269 439.743 148.839C439.674 144.777 440.217 140.337 437.91 136.983C435.768 133.882 431.976 132.316 429.511 129.461C427.236 126.827 424.765 123.637 421.036 123.145C415.924 122.45 405.237 129.461 402.216 121.995C401.731 120.584 401.801 119.042 402.412 117.681C402.191 118.054 401.976 118.427 401.78 118.806C400.92 120.486 400.377 122.5 401.091 124.25C404.131 131.703 414.799 124.698 419.911 125.4C423.64 125.905 426.111 129.094 428.386 131.716C430.851 134.57 434.643 136.137 436.779 139.244C439.092 142.592 438.549 147.032 438.618 151.093C438.676 154.524 439.231 157.928 440.268 161.199C440.773 162.791 441.532 164.496 443.067 165.14C444.129 165.589 445.406 165.443 446.392 166.037C448.022 167.023 447.978 169.328 448.288 171.204C449.274 176.68 455.075 180.242 460.637 180.526C466.198 180.811 471.558 178.594 476.645 176.326C480.311 174.697 484.393 172.442 485.493 168.747C483.736 171.147 480.627 172.802 477.77 174.071Z" fill="black"/>
</g>
<path d="M589.461 209.719C576.082 202.026 571.026 200.131 571.001 200.131L570.723 199.936C569.266 198.816 568.108 197.354 567.355 195.679C567.339 195.373 567.339 195.068 567.355 194.763C567.351 194.792 567.351 194.822 567.355 194.851C567.563 190.777 570.464 187.07 573.213 183.836L580.247 175.568C581.046 174.75 581.664 173.773 582.061 172.701C582.203 172.124 582.267 171.532 582.25 170.938C582.25 170.698 582.25 170.458 582.25 170.218C582.213 168.166 582.156 166.107 582.08 164.054C582.017 162.26 581.555 159.999 579.76 159.633C578.825 159.443 577.586 159.778 577.093 159.001C576.926 158.671 576.883 158.292 576.973 157.934C576.97 157.963 576.97 157.993 576.973 158.022V157.921C577.321 156.535 577.543 155.121 577.637 153.696C577.676 152.97 577.577 152.243 577.346 151.554C576.31 148.58 572.726 147.354 569.56 146.792C566.394 146.23 562.842 145.75 560.858 143.274C560.326 142.448 559.748 141.653 559.126 140.893C558.21 140.08 557.093 139.528 555.89 139.295C551.96 138.327 547.82 138.687 544.116 140.318C542.587 141 541.051 141.922 539.37 141.821C537.689 141.72 536.134 140.508 534.415 140.217C531.635 139.743 528.974 141.783 527.602 144.202C526.79 145.637 526.355 147.254 526.339 148.902V149.18C526.299 150.953 526.946 152.673 528.146 153.98C529.347 155.243 531.129 156.077 531.628 157.713C531.83 158.376 531.78 159.096 531.963 159.772C531.983 159.855 532.008 159.938 532.039 160.018L531.951 160.138C529.082 163.806 527.524 168.329 527.527 172.985C527.558 177.507 529.027 181.902 531.722 185.536C534.416 189.169 538.197 191.851 542.517 193.196C542.517 193.405 542.517 193.613 542.517 193.828C542.517 196.354 541.791 198.988 539.61 200.902L520.657 208.469C520.657 208.469 509.231 207.111 505.11 223.798C504.452 226.568 504.213 229.421 504.402 232.261C504.554 234.788 504.206 239.209 501.242 244.938C496.559 254.109 497.627 275.16 507.208 277.244C516.252 279.215 519.791 278.394 520.164 278.299V278.666C520.012 282.619 518.578 316.688 513.364 320.806C511.923 321.95 512.188 322.701 513.364 323.238C513.364 323.238 513.364 323.459 513.332 323.87C513.174 326.396 512.372 335.87 508.908 341.252C504.857 347.505 505.281 383.569 505.281 383.569L502.519 404.829C502.519 404.829 504.219 417.96 502.519 420.253C500.996 422.293 498.973 470.87 498.55 481.406H498.373C497.536 481.46 496.725 481.719 496.011 482.159C495.297 482.6 494.702 483.208 494.278 483.932C492.041 487.564 484.204 494.278 484.204 494.278C482.504 496.69 476.216 499.002 472.891 500.088C472.453 500.232 472.029 500.418 471.627 500.644C470.383 501.322 469.383 502.373 468.771 503.651C468.552 504.029 468.412 504.448 468.359 504.883C468.307 505.317 468.344 505.757 468.467 506.177C469.314 508.255 486.991 509.72 491.465 507.63C494.979 505.994 508.908 503.84 514.691 502.994C515.741 502.862 516.717 502.384 517.466 501.636C518.214 500.888 518.692 499.913 518.824 498.863C518.879 498.501 518.861 498.131 518.77 497.776C518.678 497.421 518.516 497.089 518.293 496.798C517.187 495.427 516.625 491.682 516.397 489.218C516.867 489.027 517.306 488.768 517.699 488.448C517.216 480.876 518.291 473.286 520.859 466.146C525.119 454.891 526.395 434.048 525.334 420.5C525.334 420.5 538.321 364.64 548.547 359.429C548.705 359.631 553.666 365.992 554.298 385.692C554.93 405.701 562.172 418.832 562.172 418.832C562.172 418.832 558.974 452.806 562.172 465.521L557.995 485.574C557.685 485.315 557.489 485.113 557.489 485.113C557.489 485.113 557.616 485.669 557.786 486.559L557.698 486.989L557.881 487.027C558.355 489.553 559.056 493.905 558.766 496.501C558.601 497.96 558.191 499.962 557.913 501.926C557.47 505.015 557.35 508.009 558.974 508.666C561.641 509.739 577.302 511.192 579.956 507.756C580.554 507.056 580.942 506.203 581.079 505.293C581.215 504.383 581.093 503.453 580.727 502.609C580.536 502.135 580.276 501.693 579.956 501.295C579.956 501.295 575.798 494.505 576.973 489.717C577.082 489.25 577.093 488.765 577.008 488.292C576.922 487.82 576.74 487.37 576.474 486.97C576.657 484.62 577.605 473.744 580.057 464.51C582.724 454.48 588.343 432.487 584.21 418.03C584.054 417.461 583.877 416.906 583.679 416.362C581.293 408.468 580.496 400.18 581.334 391.976C579.8 384.972 579.8 377.72 581.334 370.716C583.894 359.044 585.682 347.58 585.682 347.58C585.682 347.58 587.091 332.156 585.859 322.701C585.859 322.499 585.802 322.297 585.777 322.07L586.447 321.918C586.447 321.918 582.826 305.869 581.549 295.656C581.246 293.243 580.854 290.192 580.424 286.933C581.602 286.738 582.762 286.449 583.894 286.068C595.389 282.108 599.011 246.277 599.011 246.277V234.908C599.011 234.908 602.879 217.431 589.461 209.719ZM503.789 486.515C503.435 486.338 503.227 486.218 503.227 486.218L503.789 486.515Z" fill="url(#paint2_linear)"/>
<path d="M582.522 416.59C587.509 430.921 581.688 454.183 578.983 464.592C576.278 475.001 575.45 487.444 575.45 487.444C564.852 489.105 557.161 487.027 557.161 487.027L561.528 465.634C558.406 452.964 561.528 419.104 561.528 419.104C561.528 419.104 554.462 406.017 553.836 386.077C553.204 366.453 548.382 360.105 548.231 359.909C538.258 365.101 525.58 420.771 525.58 420.771C526.617 434.269 525.365 455.042 521.213 466.247C518.691 473.369 517.631 480.926 518.097 488.467C516.644 489.73 514.621 489.907 512.409 489.553C506.475 488.593 499.359 483.484 499.359 483.484C499.359 483.484 501.64 422.849 503.309 420.55C504.977 418.251 503.309 405.177 503.309 405.177L506.007 383.993C506.007 383.993 505.59 348.054 509.54 341.826C512.953 336.445 513.737 326.984 513.888 324.501C513.888 324.11 513.888 323.87 513.888 323.87L519.905 316.669C519.905 316.669 578.098 312.305 582.472 316.669C583.54 317.737 584.203 320.175 584.595 323.238C585.796 332.662 584.418 348.029 584.418 348.029C584.418 348.029 582.674 359.455 580.177 371.082C578.681 378.067 578.681 385.289 580.177 392.273C579.375 400.454 580.171 408.713 582.522 416.59V416.59Z" fill="#65617D"/>
<path d="M578.882 507.668C576.285 511.097 561.009 509.645 558.406 508.577C556.819 507.946 556.939 504.933 557.369 501.857C557.641 499.905 558.039 497.909 558.203 496.457C558.614 492.718 556.939 485.132 556.939 485.132C556.939 485.132 560.365 488.77 561.193 485.132C561.559 483.54 562.836 482.726 564.163 482.315C565.944 481.776 567.86 481.895 569.56 482.65C572.259 483.825 576.759 486.319 575.956 489.692C574.812 494.461 578.863 501.232 578.863 501.232C579.177 501.627 579.433 502.065 579.622 502.533C579.982 503.374 580.104 504.298 579.973 505.204C579.843 506.11 579.465 506.962 578.882 507.668V507.668Z" fill="#A27772"/>
<path opacity="0.1" d="M578.882 507.668C576.284 511.097 561.009 509.645 558.405 508.577C556.819 507.946 556.939 504.933 557.369 501.857C559.012 502.628 561.793 503.266 566.451 502.836C567.537 502.733 568.628 502.699 569.718 502.735C573.026 502.884 576.341 502.816 579.64 502.533C579.998 503.376 580.117 504.301 579.983 505.207C579.849 506.113 579.468 506.964 578.882 507.668V507.668Z" fill="black"/>
<path opacity="0.1" d="M525.574 420.746C526.61 434.243 525.359 455.017 521.206 466.222C518.684 473.344 517.625 480.901 518.091 488.442C516.637 489.705 514.615 489.882 512.403 489.528C513.667 480.768 519.001 443.023 522.42 413.198C526.319 379.237 544.539 355.873 544.539 355.873L548.173 359.871C538.251 365.076 525.574 420.746 525.574 420.746Z" fill="black"/>
<path d="M572.644 202.437L570.116 214.898L557.685 235.773L542.359 229.23C542.359 229.23 521.504 207.42 534.618 204.306C536.185 203.969 537.665 203.311 538.966 202.374C541.538 200.435 542.347 197.618 542.359 194.857C542.262 191.769 541.544 188.732 540.249 185.927L567.058 177.514C565.963 181.034 565.326 184.681 565.162 188.365C564.953 195.666 567.69 199.26 569.895 200.997C570.709 201.65 571.643 202.139 572.644 202.437V202.437Z" fill="#FBBEBE"/>
<path opacity="0.1" d="M567.032 177.514C565.937 181.034 565.3 184.681 565.136 188.365C564.647 188.947 564.126 189.501 563.575 190.026C560.807 192.668 557.375 194.512 553.643 195.362C549.912 196.213 546.019 196.039 542.378 194.857C542.275 191.768 541.551 188.731 540.249 185.927L567.032 177.514Z" fill="black"/>
<path d="M570.11 174.084C570.111 178.275 568.869 182.373 566.54 185.858C564.211 189.344 560.9 192.061 557.025 193.666C553.151 195.271 548.888 195.691 544.774 194.874C540.661 194.057 536.882 192.04 533.916 189.076C530.95 186.113 528.93 182.337 528.112 178.227C527.293 174.116 527.712 169.855 529.317 165.982C530.922 162.11 533.639 158.8 537.126 156.471C540.613 154.143 544.713 152.9 548.907 152.9C551.694 152.886 554.457 153.425 557.035 154.485C559.613 155.545 561.956 157.104 563.927 159.074C565.899 161.044 567.46 163.385 568.521 165.961C569.583 168.537 570.123 171.298 570.11 174.084V174.084Z" fill="#FBBEBE"/>
<path opacity="0.1" d="M572.644 202.437L570.116 214.898L557.685 235.773L542.359 229.23C542.359 229.23 521.504 207.42 534.618 204.306C536.185 203.969 537.665 203.311 538.966 202.374C536.602 208.867 546.36 222.377 546.36 222.377C547.497 224.05 550.101 223.008 550.101 223.008C556.39 222.055 567.961 203.984 569.851 200.978C570.677 201.643 571.626 202.139 572.644 202.437Z" fill="black"/>
<path opacity="0.1" d="M584.646 323.251C580.955 324.091 560.535 328.607 552.793 327.476C544.274 326.213 527.71 325.405 527.71 325.405C527.71 325.405 517.162 325.973 513.914 324.489C513.914 324.097 513.914 323.857 513.914 323.857L519.93 316.657C519.93 316.657 578.124 312.292 582.497 316.657C583.59 317.749 584.254 320.188 584.646 323.251Z" fill="black"/>
<path d="M546.354 223.002C546.354 223.002 535.389 207.843 539.522 201.906L520.998 209.485C520.998 209.485 509.85 208.134 505.83 224.764C505.188 227.528 504.956 230.371 505.142 233.202C505.293 235.729 504.952 240.15 502.089 245.835C497.52 254.974 498.556 275.956 507.91 278.047C517.263 280.137 520.581 279.082 520.581 279.082C520.581 279.082 519.317 317.093 513.933 321.457C508.548 325.821 527.71 324.779 527.71 324.779C527.71 324.779 544.274 325.613 552.8 326.857C561.325 328.102 585.221 322.493 585.221 322.493C585.221 322.493 581.688 306.501 580.437 296.325C579.185 286.15 576.272 264.473 576.272 264.473L597.469 235.773C597.469 235.773 601.21 218.429 588.115 210.742C575.02 203.056 570.097 201.174 570.097 201.174C570.097 201.174 556.939 222.585 550.082 223.621C550.095 223.621 547.491 224.669 546.354 223.002Z" fill="#12C1A2"/>
<path opacity="0.1" d="M522.035 229.021C522.035 229.021 521.833 235.88 523.078 238.577C524.323 241.274 528.898 256.262 528.898 256.262H518.502C518.502 256.262 524.114 250.237 523.703 247.325C523.292 244.413 522.035 229.021 522.035 229.021Z" fill="black"/>
<path d="M552.8 280.744C552.8 280.744 529.846 275.135 527.71 270.36C525.574 265.585 519.677 254.892 519.677 254.892L522.098 251.633L533.259 260.387C533.259 260.387 546.53 270.979 552.8 272.021C559.069 273.063 552.8 280.744 552.8 280.744Z" fill="#FBBEBE"/>
<path opacity="0.05" d="M552.8 280.744C552.8 280.744 529.846 275.135 527.71 270.36C525.574 265.585 519.677 254.892 519.677 254.892L522.098 251.633L533.259 260.387C533.259 260.387 546.53 270.979 552.8 272.021C559.069 273.063 552.8 280.744 552.8 280.744Z" fill="black"/>
<path d="M572.644 253.742V266.185H570.647C560.758 266.183 551.031 268.7 542.385 273.499L538.631 275.577L537.626 276.139L531.18 261.612L537.209 256.212H537.519C538.991 256.357 545.368 256.888 548.073 255.978C550.639 255.107 553.824 252.346 561.382 254.273C565.105 255.227 568.29 259.395 571.899 258.094L572.644 253.742Z" fill="#FBBEBE"/>
<path opacity="0.1" d="M592.703 231.08L596.856 235.754V247.079C596.856 247.079 593.323 282.803 582.105 286.75C570.887 290.698 550.847 284.464 550.847 284.464C550.847 284.464 545.671 270.758 548.091 269.937C550.512 269.116 569.484 264.101 569.484 264.101C569.484 264.101 569.219 243.144 573.371 236.91C573.371 236.91 570.672 217.387 580.026 216.97C589.379 216.553 592.703 231.08 592.703 231.08Z" fill="black"/>
<path d="M593.335 231.08L597.494 235.754V247.079C597.494 247.079 593.961 282.803 582.737 286.75C571.513 290.698 551.479 284.464 551.479 284.464C551.479 284.464 546.303 270.758 548.73 269.937C551.156 269.116 570.122 264.101 570.122 264.101C570.122 264.101 569.851 243.144 574.009 236.91C574.009 236.91 571.304 217.387 580.658 216.97C590.011 216.553 593.335 231.08 593.335 231.08Z" fill="#12C1A2"/>
<path opacity="0.1" d="M564.296 183.078C564.475 181.71 564.312 180.319 563.822 179.029C563.234 177.766 561.863 176.812 560.523 177.135C558.747 177.551 557.995 179.863 556.238 180.419C554.765 180.886 553.16 179.844 552.446 178.474C551.732 177.103 551.725 175.492 551.725 173.951C551.725 172.221 551.725 170.484 551.725 168.747C551.725 166.852 551.662 164.818 550.499 163.334C549.052 161.49 545.646 160.681 543.371 160.757C541.857 160.774 540.405 161.358 539.301 162.393C538.087 163.429 536.678 164.187 535.022 163.915C534.332 163.812 533.685 163.515 533.157 163.059C532.629 162.603 532.241 162.006 532.039 161.338V161.275C533.802 158.932 536.033 156.98 538.59 155.543C541.147 154.106 543.975 153.216 546.894 152.927C549.813 152.639 552.761 152.959 555.55 153.868C558.339 154.777 560.909 156.254 563.097 158.207C565.285 160.16 567.044 162.545 568.262 165.212C569.48 167.879 570.131 170.77 570.174 173.701C570.216 176.633 569.65 179.541 568.509 182.242C567.369 184.943 565.68 187.379 563.55 189.394C563.916 187.304 564.165 185.196 564.296 183.078V183.078Z" fill="black"/>
<path d="M535.022 163.302C534.331 163.196 533.684 162.898 533.155 162.441C532.626 161.984 532.237 161.387 532.032 160.719C531.862 160.05 531.906 159.336 531.71 158.673C531.224 157.037 529.479 156.19 528.31 154.946C525.972 152.464 526.123 148.384 527.779 145.396C529.119 142.99 531.71 140.975 534.428 141.43C536.109 141.72 537.588 142.914 539.269 143.028C540.95 143.141 542.429 142.213 543.901 141.531C547.512 139.893 551.573 139.532 555.416 140.508C556.595 140.744 557.687 141.297 558.576 142.106C559.18 142.865 559.743 143.656 560.263 144.474C562.197 146.937 565.667 147.424 568.757 147.98C571.848 148.535 575.343 149.761 576.341 152.729C577.017 154.7 576.341 156.835 575.975 158.881C575.853 159.299 575.882 159.746 576.057 160.144C576.543 160.94 577.75 160.605 578.661 160.776C580.411 161.149 580.86 163.403 580.929 165.197C581.001 167.244 581.056 169.292 581.094 171.343C581.144 172.106 581.082 172.872 580.91 173.616C580.531 174.684 579.93 175.659 579.147 176.478L572.284 184.72C569.238 188.371 566.008 192.628 566.596 197.352C565.155 197.984 563.436 196.752 562.968 195.243C562.501 193.733 562.873 192.085 563.196 190.563C563.755 187.887 564.123 185.174 564.295 182.446C564.475 181.081 564.312 179.692 563.821 178.404C563.234 177.141 561.862 176.187 560.522 176.509C558.74 176.926 557.995 179.238 556.238 179.794C554.765 180.261 553.16 179.219 552.446 177.848C551.732 176.478 551.725 174.873 551.725 173.332V168.122C551.725 166.227 551.662 164.193 550.499 162.709C549.052 160.864 545.646 160.056 543.37 160.132C541.859 160.15 540.409 160.734 539.307 161.768C538.087 162.81 536.678 163.574 535.022 163.302Z" fill="#7C5C5C"/>
<path opacity="0.1" d="M539.806 228.503L546.316 255.227C546.316 255.227 551.447 255.195 539.806 228.503Z" fill="black"/>
<path opacity="0.1" d="M562.046 224.038C562.046 224.038 553.527 237.984 556.851 252.41L558.437 252.523C558.437 252.523 555.606 245.847 562.046 224.038Z" fill="black"/>
<path opacity="0.1" d="M567.424 302.97C567.424 302.97 577.89 299.509 578.648 307.536C578.673 307.536 576.701 302.035 567.424 302.97Z" fill="black"/>
<path opacity="0.1" d="M537.209 256.856C537.209 256.856 535.129 271.383 538.871 277.213C538.871 277.213 531.287 280.327 520.581 279.708L519.317 256.856H537.209Z" fill="black"/>
<path opacity="0.1" d="M538.631 275.577L537.626 276.139L531.18 261.612L537.209 256.212H537.519C537.424 256.932 535.743 269.419 538.631 275.577Z" fill="black"/>
<path d="M537.208 256.237C537.208 256.237 535.129 270.764 538.871 276.588C538.871 276.588 531.287 279.708 520.581 279.082L513.307 256.237H537.208Z" fill="#12C1A2"/>
<path d="M519.235 498.825C519.114 499.862 518.652 500.829 517.921 501.575C517.19 502.32 516.231 502.802 515.196 502.943C509.553 503.783 495.959 505.931 492.527 507.567C488.16 509.645 470.913 508.198 470.079 506.114C469.958 505.694 469.923 505.255 469.974 504.821C470.025 504.387 470.161 503.968 470.376 503.588C470.968 502.322 471.943 501.275 473.163 500.594C473.566 500.37 473.989 500.183 474.427 500.038C477.675 498.958 483.812 496.659 485.468 494.246C485.468 494.246 493.121 487.557 495.301 483.945C495.711 483.234 496.29 482.634 496.987 482.2C497.683 481.766 498.476 481.511 499.296 481.456C501.116 481.374 503.144 482.29 503.979 486.275C503.979 486.275 513.945 491.96 516.618 486.976C516.618 486.976 517.035 494.631 518.691 496.728C518.918 497.024 519.083 497.362 519.176 497.722C519.269 498.082 519.289 498.457 519.235 498.825V498.825Z" fill="#A27772"/>
<path opacity="0.1" d="M519.235 498.825C519.114 499.862 518.652 500.829 517.921 501.575C517.19 502.32 516.231 502.802 515.196 502.943C509.553 503.783 495.959 505.931 492.527 507.567C488.16 509.645 470.913 508.198 470.079 506.114C469.958 505.694 469.923 505.255 469.974 504.821C470.025 504.387 470.161 503.968 470.376 503.588C470.968 502.322 471.943 501.275 473.163 500.594C475.975 502.489 482.219 504.282 495.952 502.141C509.054 500.095 515.544 498.093 518.704 496.728C518.928 497.025 519.091 497.363 519.182 497.723C519.273 498.083 519.291 498.458 519.235 498.825V498.825Z" fill="black"/>
<g opacity="0.1">
<path opacity="0.1" d="M575.944 159.172V159.071C576.241 157.517 576.689 155.913 576.576 154.352C576.443 155.627 576.232 156.893 575.944 158.142C575.866 158.481 575.866 158.833 575.944 159.172V159.172Z" fill="black"/>
<path opacity="0.1" d="M563.816 178.613C564.146 179.361 564.321 180.169 564.328 180.987C564.421 179.859 564.246 178.725 563.816 177.678C563.234 176.415 561.863 175.461 560.523 175.783C558.741 176.2 557.995 178.511 556.232 179.067C554.766 179.535 553.16 178.493 552.44 177.122C551.719 175.751 551.719 174.141 551.719 172.6C551.719 170.863 551.719 169.132 551.719 167.395C551.719 165.5 551.656 163.467 550.493 161.982C549.04 160.132 545.64 159.33 543.365 159.399C541.85 159.418 540.398 160.004 539.295 161.041C538.075 162.077 536.672 162.835 535.01 162.563C534.32 162.458 533.674 162.161 533.147 161.705C532.619 161.249 532.231 160.653 532.027 159.986C531.856 159.317 531.9 158.597 531.704 157.934C531.218 156.304 529.473 155.451 528.304 154.213C527.208 152.998 526.586 151.428 526.554 149.792C526.468 150.752 526.578 151.719 526.879 152.635C527.18 153.55 527.665 154.395 528.304 155.117C529.473 156.38 531.218 157.207 531.704 158.837C531.9 159.468 531.856 160.22 532.027 160.89C532.231 161.556 532.619 162.152 533.147 162.608C533.674 163.064 534.32 163.361 535.01 163.467C536.672 163.738 538.075 162.98 539.295 161.944C540.398 160.908 541.85 160.322 543.365 160.302C545.64 160.233 549.052 161.035 550.493 162.885C551.656 164.37 551.713 166.41 551.719 168.298C551.719 170.035 551.719 171.766 551.719 173.503C551.719 175.044 551.719 176.661 552.44 178.019C553.16 179.377 554.747 180.438 556.232 179.97C557.976 179.415 558.76 177.103 560.523 176.686C561.863 176.396 563.234 177.394 563.816 178.613Z" fill="black"/>
<path opacity="0.1" d="M580.898 172.896C580.517 173.963 579.914 174.936 579.128 175.751L572.265 183.994C569.377 187.461 566.324 191.478 566.577 195.906C566.786 191.845 569.617 188.15 572.265 184.929L579.128 176.686C579.914 175.871 580.517 174.897 580.898 173.831C581.07 173.084 581.131 172.316 581.081 171.551C581.071 172.005 581.01 172.456 580.898 172.896V172.896Z" fill="black"/>
<path opacity="0.1" d="M563 194.516C562.888 194.155 562.818 193.782 562.792 193.405C562.734 194.094 562.805 194.788 563 195.451C563.468 196.954 565.181 198.199 566.628 197.554C566.587 197.253 566.562 196.949 566.552 196.645C565.111 197.22 563.443 195.994 563 194.516Z" fill="black"/>
</g>
<path opacity="0.1" d="M493.917 485.846C493.917 485.846 496.092 489.635 503.966 486.301Z" fill="black"/>
<path opacity="0.1" d="M560.472 486.768C560.472 486.768 567.26 494.758 575.817 489.389Z" fill="black"/>
<path opacity="0.1" d="M580.228 392.286C580.228 392.286 575.431 395.279 575.28 396.991C575.128 398.703 577.757 395.728 577.757 395.728L580.228 392.286Z" fill="black"/>
<path opacity="0.1" d="M582.124 415.251C580.456 416.638 578.382 417.447 576.215 417.556C572.625 417.714 572.929 422.388 575.273 420.986C577.618 419.584 582.124 415.251 582.124 415.251Z" fill="black"/>
<path opacity="0.1" d="M583.034 418.251C583.034 418.251 580.733 429.551 578.863 427.371Z" fill="black"/>
<path d="M138.608 502.937C138.608 502.937 153.049 506.897 160 501.63C166.952 496.362 169.967 498.055 169.967 498.055C169.967 498.055 186.544 497.139 187.909 493.223C189.274 489.307 181.551 475.083 181.551 475.083C181.001 473.82 180.199 472.216 179.839 472.216L179.914 466.215L182.316 441.109C187.858 426.904 182.417 408.55 182.417 408.55L181.425 403.996C180.867 401.436 181.199 398.762 182.366 396.416L192.434 376.205C192.973 374.869 193.606 373.573 194.33 372.327C194.962 371.171 195.803 369.744 196.858 368.032C197.168 367.539 197.49 367.028 197.844 366.491C199.064 364.596 200.542 362.448 202.331 359.973C206.786 353.802 209.131 346.077 210.345 340.393L210.882 342.174H210.913H211.002L211.147 342.205H211.349H211.387L211.646 342.25H211.741L214.838 381.637C215.028 396.997 220.671 405.499 220.671 405.499L219.894 439.41C220.956 447.577 218.63 458.466 217.562 462.811L215.122 468.312C214.162 468.792 213.333 469.498 212.706 470.37C212.08 471.241 211.675 472.252 211.526 473.315C211.046 477.376 206.768 486.13 206.768 486.13C205.112 488.227 201.516 493.892 201.516 493.892C201.516 493.892 199.822 499.362 200.871 501.409C201.92 503.455 210.692 503.247 210.692 503.247C220.709 505.464 228.388 500.089 227.901 496.387C227.415 492.686 229.462 491.745 229.462 491.745C233.444 490.482 233.058 487.785 233.058 487.785C233.915 482.222 232.852 476.533 230.044 471.654L229.412 473.113C229.241 470.192 229.649 467.266 230.612 464.504L230.246 464.756L230.132 464.826H230.094C230.726 459.287 236.547 449.036 236.547 449.036C247.24 430.29 243.353 404.886 243.353 404.886L241.697 396.966L241.603 393.978C241.376 386.846 241.917 379.71 243.214 372.693C243.789 369.586 244.383 365.834 244.838 361.697C245.799 352.955 248.896 343.936 250.324 340.115L250.748 340.039H250.798C251.38 339.938 251.967 339.837 252.561 339.723H252.675C252.675 339.723 253.016 337.879 253.307 334.74C253.478 332.738 253.617 330.199 253.617 327.281C253.66 318.47 252.314 309.707 249.629 301.315L249.951 300.854C249.951 300.854 250.716 299.818 252.113 298.024C254.678 294.765 258.673 289.813 263.596 284.23C272.412 274.181 269.821 264.019 269.821 264.019C269.821 264.019 263.438 240.643 260.594 226.608C258.97 218.612 255.924 213.174 253.591 209.966C254.117 207.753 254.414 205.493 254.476 203.22C254.666 199.064 254.521 194.731 252.65 190.998C250.779 187.266 246.798 184.316 242.639 184.815C242.049 184.957 241.434 184.957 240.844 184.815C240.358 184.595 239.947 184.237 239.662 183.785C237.229 180.432 237.071 175.922 237.83 171.854C238.588 167.787 240.143 163.896 240.838 159.816C241.533 155.736 241.217 151.207 238.62 147.973C235.567 144.184 230.246 143.116 226.277 140.268C223.49 138.265 221.398 135.392 218.459 133.617C215.521 131.842 212.771 132.518 209.58 133.187C204.214 134.318 199.114 134.836 194.039 137.141C188.901 139.467 184.292 142.818 180.496 146.988C179.148 148.332 178.117 149.959 177.475 151.75C176.211 155.925 178.682 160.372 178.164 164.692C177.797 167.755 175.99 170.421 174.555 173.155C173.12 175.89 172.027 179.137 173.152 181.998C174.922 186.47 180.692 187.417 184.888 189.798C185.449 190.073 185.928 190.488 186.278 191.005C187.315 192.811 185.198 194.687 183.864 196.291C183.101 197.227 182.561 198.324 182.284 199.5C180.547 200.212 179.012 201.341 177.814 202.786C176.616 204.231 175.792 205.948 175.415 207.787C173.993 214.147 176.179 222.175 178.107 227.48C176.002 239.297 178.739 243.959 180.755 245.746C182.796 247.493 184.06 249.978 184.269 252.656V252.877C184.401 255.025 184.629 257.166 184.932 259.3C184.863 258.802 184.793 258.271 184.755 258.037C183.106 261.088 179.965 268.882 178.195 281.994C177.827 284.804 177.293 287.59 176.596 290.338C175.331 295.203 174.878 300.244 175.257 305.256L175.573 309.507C175.262 309.515 174.958 309.414 174.713 309.223L176.931 313.284V320.137C176.929 323.227 176.359 326.291 175.25 329.175C175.092 329.592 174.922 330.009 174.738 330.439C174.168 331.592 173.911 332.875 173.993 334.159C169.221 341.466 158.281 382.42 158.281 382.42C152.347 395.848 158.768 404.526 158.768 404.526C158.768 404.526 161.877 441.911 162.459 443.844C163.04 445.777 164.33 468.565 164.33 468.565C164.33 469.165 164.33 469.79 164.33 470.378C163.985 470.227 163.621 470.123 163.249 470.068C158.048 469.778 156.638 477.989 156.638 477.989L145.996 488.145C145.996 488.145 141.136 487.324 133.988 492.686C126.84 498.048 138.608 502.937 138.608 502.937ZM244.876 286.87L244.845 286.757L244.554 286.927L244.434 286.997L244.377 287.034L239.473 269.735C238.16 265.097 238.036 260.203 239.113 255.505L242.905 238.906V234.914L254.957 267.012C255.728 271.339 248.567 281.817 244.876 286.87Z" fill="url(#paint3_linear)"/>
<path d="M250.166 339.085C250.166 339.085 245.3 350.915 244.061 362.265C243.612 366.358 243.031 370.059 242.462 373.129C241.199 380.059 240.678 387.103 240.907 394.143L241.002 397.092L242.582 404.905C242.582 404.905 246.374 429.999 235.902 448.486C235.902 448.486 229.696 459.558 229.506 464.801L225.304 466.424L216.81 464.043C216.81 464.043 220.911 449.345 219.578 439.044L220.343 405.568C220.343 405.568 214.825 397.193 214.636 382.035L211.394 340.437L250.166 339.085Z" fill="#FDC2CC"/>
<path d="M211.393 333.161C211.393 333.161 210.351 349.38 202.324 360.56C194.298 371.739 192.592 376.59 192.592 376.59L182.708 396.562C181.563 398.876 181.236 401.509 181.779 404.034L182.752 408.531C182.752 408.531 188.098 426.658 182.657 440.686L180.078 467.782H164.999C164.999 467.782 163.735 445.265 163.185 443.357C162.636 441.45 159.558 404.526 159.558 404.526C159.558 404.526 153.238 395.936 159.078 382.679C159.078 382.679 172.254 333.066 175.781 333.925C179.307 334.784 211.393 333.161 211.393 333.161Z" fill="#FDC2CC"/>
<g opacity="0.1">
<path opacity="0.1" d="M181.223 408.562L180.256 404.065C179.698 401.532 180.023 398.884 181.178 396.562L191.063 376.571C191.063 376.571 192.775 371.708 200.795 360.541C208.499 349.804 209.77 334.418 209.858 333.237L211.394 333.161C211.394 333.161 210.351 349.38 202.325 360.56C194.298 371.739 192.592 376.59 192.592 376.59L182.708 396.562C181.563 398.876 181.236 401.509 181.779 404.034L182.752 408.531C182.752 408.531 188.099 426.658 182.657 440.686L180.079 467.782H178.549L181.128 440.686C186.569 426.658 181.223 408.562 181.223 408.562Z" fill="black"/>
</g>
<path opacity="0.1" d="M228.002 464.819C228.192 459.577 234.398 448.505 234.398 448.505C244.902 429.999 241.078 404.924 241.078 404.924L239.46 397.105L239.365 394.155C239.136 387.115 239.657 380.071 240.92 373.142C241.483 370.072 242.064 366.371 242.513 362.278C243.707 351.351 248.264 339.982 248.599 339.148L250.166 339.085C250.166 339.085 245.3 350.915 244.061 362.265C243.612 366.358 243.031 370.059 242.462 373.129C241.2 380.059 240.678 387.103 240.908 394.143L241.002 397.092L242.582 404.905C242.582 404.905 246.374 429.999 235.902 448.486C235.902 448.486 229.696 459.558 229.506 464.801L225.304 466.424L224.419 466.177L228.002 464.819Z" fill="black"/>
<path d="M223.136 464.63C224.274 465.08 225.507 465.238 226.721 465.087C227.936 464.937 229.094 464.485 230.088 463.771C228.697 467.828 228.499 472.199 229.519 476.365C231.238 483.237 213.479 470.832 213.479 470.832L217.271 462.173C217.271 462.173 218.743 464.914 223.136 464.63Z" fill="#D39999"/>
<path opacity="0.1" d="M224.457 465.015C225.433 465.213 226.441 465.202 227.413 464.984C228.385 464.767 229.301 464.347 230.1 463.752C228.709 467.809 228.512 472.18 229.532 476.346C231.251 483.218 213.492 470.813 213.492 470.813L217.284 462.154C217.284 462.154 218.383 464.264 221.613 464.592C222.592 464.706 223.528 464.838 224.457 465.015Z" fill="black"/>
<path d="M182.847 304.119H190.266V262.048L184.698 261.05L182.847 304.119Z" fill="#FDC2CC"/>
<path opacity="0.05" d="M182.847 304.119H190.266V262.048L184.698 261.05L182.847 304.119Z" fill="black"/>
<path d="M218.933 467.876C218.933 467.876 223.61 467.586 225.708 471.786L228.287 473.788L229.551 470.832C232.294 475.663 233.323 481.279 232.47 486.768C232.47 486.768 232.85 489.433 228.938 490.678C228.938 490.678 226.934 491.631 227.408 495.257C227.882 498.882 220.349 504.226 210.515 502.028C210.515 502.028 201.92 502.223 200.871 500.215C199.822 498.206 201.541 492.869 201.541 492.869C201.541 492.869 205.074 487.273 206.692 485.208C206.692 485.208 210.894 476.555 211.375 472.576C211.855 468.597 216.449 465.678 218.933 467.876Z" fill="#7E5659"/>
<path d="M180.224 471.407L180.3 465.476C180.3 465.476 171.761 467.933 164.847 465.154C164.847 465.154 165.429 471.117 164.468 471.931C163.508 472.746 167.666 480.42 167.666 480.42L172.311 485.284L180.3 482.378L182.467 475.557C182.467 475.557 180.793 471.407 180.224 471.407Z" fill="#D39999"/>
<path opacity="0.1" d="M180.224 471.407L180.3 465.476C180.3 465.476 171.761 467.933 164.847 465.154C164.847 465.154 165.429 471.117 164.468 471.931C163.508 472.746 167.666 480.42 167.666 480.42L172.311 485.284L180.3 482.378L182.467 475.557C182.467 475.557 180.793 471.407 180.224 471.407Z" fill="black"/>
<path d="M163.944 469.26C163.944 469.26 168.481 469.784 167.906 475.576C167.331 481.368 168.147 475.576 168.147 475.576C168.147 475.576 172.969 477.527 174.688 480.25C176.407 482.972 179.51 477.818 179.743 476.34C179.977 474.862 181.911 474.249 181.911 474.249C181.911 474.249 189.495 488.303 188.155 492.168C186.815 496.034 170.535 496.924 170.535 496.924C170.535 496.924 167.571 495.257 160.746 500.455C153.92 505.653 139.745 501.718 139.745 501.718C139.745 501.718 128.192 496.899 135.214 491.612C142.235 486.326 147 487.128 147 487.128L157.453 477.06C157.453 477.06 158.837 468.969 163.944 469.26Z" fill="#7E5659"/>
<path d="M218.137 137.027C221.025 138.777 223.079 141.619 225.815 143.596C229.708 146.407 234.935 147.455 237.931 151.207C240.459 154.403 240.787 158.868 240.105 162.898C239.422 166.928 237.893 170.774 237.153 174.791C236.414 178.808 236.566 183.261 238.954 186.571C239.232 187.016 239.634 187.369 240.111 187.588C240.691 187.726 241.295 187.726 241.874 187.588C245.957 187.095 249.875 190.013 251.708 193.695C253.541 197.378 253.686 201.66 253.496 205.765C253.338 209.132 252.959 212.568 251.48 215.599C248.952 220.753 243.694 223.937 238.506 226.375C235.133 227.959 231.675 229.355 228.147 230.556C225.721 231.377 223.161 232.116 220.639 231.687C216.323 230.941 213.264 227.019 209.169 225.484C205.813 224.221 202.091 224.676 198.52 224.991C195.474 225.257 191.991 225.25 189.893 223.027C187.201 220.172 188.414 215.568 189.792 211.892C188.333 211.8 186.928 211.306 185.732 210.465C184.536 209.625 183.595 208.47 183.015 207.129C182.434 205.788 182.235 204.313 182.441 202.866C182.647 201.419 183.249 200.058 184.18 198.931C185.482 197.346 187.561 195.495 186.544 193.708C186.202 193.198 185.731 192.788 185.179 192.521C181.064 190.171 175.395 189.23 173.664 184.821C172.552 181.985 173.626 178.777 175.035 176.08C176.445 173.383 178.195 170.743 178.581 167.724C179.086 163.454 176.685 159.064 177.904 154.946C178.535 153.177 179.547 151.569 180.868 150.234C184.584 146.124 189.1 142.817 194.14 140.514C199.127 138.234 204.126 137.722 209.396 136.611C212.556 135.941 215.173 135.234 218.137 137.027Z" fill="#865A61"/>
<path d="M190.26 200.611C190.26 200.611 178.17 199.98 175.882 210.281C173.594 220.583 180.843 235.337 180.843 235.337L190.26 200.611Z" fill="#FDC2CC"/>
<path opacity="0.05" d="M190.26 200.611C190.26 200.611 178.17 199.98 175.882 210.281C173.594 220.583 180.843 235.337 180.843 235.337L190.26 200.611Z" fill="black"/>
<path d="M182.543 231.27L187.125 234.895L208.506 235.849L221.853 226.691L235.428 203.409C227.13 201.294 223.774 195.565 222.523 190.209C221.727 186.584 221.637 182.84 222.258 179.181C222.258 179.181 200.492 167.919 203.165 185.497C203.532 187.654 203.6 189.852 203.367 192.028C202.103 202.323 192.105 200.384 192.105 200.384L188.269 206.296L183.877 220.823L182.543 231.27Z" fill="#FDC2CC"/>
<path opacity="0.1" d="M203.184 185.472C203.551 187.629 203.619 189.827 203.386 192.003C206.457 193.405 209.842 193.977 213.204 193.662C216.565 193.347 219.785 192.157 222.542 190.209C221.746 186.584 221.656 182.84 222.276 179.181C222.276 179.181 200.511 167.919 203.184 185.472Z" fill="black"/>
<path d="M211.406 192.982C222.056 192.982 230.688 184.354 230.688 173.711C230.688 163.068 222.056 154.441 211.406 154.441C200.757 154.441 192.125 163.068 192.125 173.711C192.125 184.354 200.757 192.982 211.406 192.982Z" fill="#FDC2CC"/>
<path d="M197.768 227.594C198.235 227.594 198.697 227.663 199.158 227.707C201.686 227.96 212.247 228.529 218.263 221.347C224.994 213.313 233.955 203.391 234.322 202.986L243.441 205.74C243.441 205.74 236.224 203.176 231.434 216.591C230.382 219.405 230.272 222.484 231.118 225.365C231.965 228.247 233.723 230.778 236.129 232.577C237.901 233.86 239.941 234.724 242.095 235.104C242.098 235.108 242.1 235.114 242.1 235.119C242.1 235.125 242.098 235.13 242.095 235.135V241.022L238.367 257.444C237.307 262.084 237.429 266.916 238.72 271.497L244.408 291.588C243.549 292.182 208.259 316.17 184.686 299.603C184.774 298.883 187.687 275.305 185.665 263.766C185.146 260.815 184.793 257.838 184.61 254.848C184.61 254.772 184.61 254.702 184.61 254.627C184.401 251.987 183.159 249.535 181.153 247.805C179.029 245.91 176.154 240.858 178.998 227.505C179.716 224.199 180.775 220.975 182.158 217.886L190.064 200.03L197.351 200.176V200.226C196.719 201.009 188.269 211.557 187.353 218.353C186.455 224.815 185.349 226.798 197.768 227.594Z" fill="#12C1A2"/>
<path d="M249.579 208.879C249.579 208.879 256.707 214.987 259.507 228.851C262.307 242.714 268.544 265.743 268.544 265.743C268.544 265.743 271.072 275.792 262.433 285.714C253.794 295.637 248.049 303.399 248.049 303.399L242.361 311.775C241.391 313.202 239.936 314.23 238.266 314.667C235.675 315.349 231.693 315.842 228.243 313.954C226.987 313.252 226.034 312.112 225.568 310.752C225.101 309.391 225.153 307.907 225.715 306.583L226.979 303.658C226.979 303.658 215.268 311.036 214.25 306.962C213.233 302.888 227.87 298.82 227.87 298.82C227.87 298.82 239.96 296.786 242.405 291.064C242.405 291.064 255.386 274.396 254.369 268.674L241.83 235.091C241.83 235.091 226.151 233.019 231.497 215.416C236.844 197.813 249.579 208.879 249.579 208.879Z" fill="#FDC2CC"/>
<path d="M174.606 335.58C174.606 335.58 203.247 341.302 209.997 340.538L210.724 342.957C210.724 342.957 221.594 345.389 246.172 341.492C247.777 341.239 249.444 340.955 251.171 340.639L251.746 340.538C251.746 340.538 252.081 338.719 252.346 335.618C252.934 328.575 253.143 314.939 248.182 300.98L244.048 288.26C244.048 288.26 218.504 303.564 201.592 302.155C200.081 302.029 198.583 301.909 197.073 301.858C193.603 301.726 188.225 301.858 184.73 299.06L177.399 300.323V321.166C177.396 324.215 176.835 327.238 175.743 330.085C175.585 330.502 175.421 330.912 175.238 331.348C174.565 332.65 174.343 334.138 174.606 335.58Z" fill="#65617D"/>
<path opacity="0.1" d="M210.717 336.47V342.957C210.717 342.957 223.231 345.755 251.74 340.538C251.74 340.538 252.075 338.719 252.34 335.618C243.593 337.02 219.47 340.393 210.717 336.47Z" fill="black"/>
<path opacity="0.1" d="M174.606 335.58C174.606 335.58 203.247 341.302 209.997 340.538L210.724 342.957V336.47C207.463 337.822 184.18 332.213 175.743 330.11C175.585 330.527 175.421 330.937 175.238 331.373C174.571 332.668 174.348 334.146 174.606 335.58V335.58Z" fill="black"/>
<path d="M244.042 328.348L246.165 341.511C247.771 341.258 249.437 340.974 251.164 340.658C250.501 336.811 249.054 328.026 249.452 326.567L246.779 324.28L244.042 328.348Z" fill="#65617D"/>
<path opacity="0.1" d="M244.339 328.064L246.462 341.233C248.068 340.976 249.734 340.692 251.461 340.38C250.798 336.534 249.351 327.748 249.749 326.289L247.075 323.996L244.339 328.064Z" fill="black"/>
<g opacity="0.05">
<path opacity="0.05" d="M200.056 302.149C198.551 302.022 197.047 301.902 195.537 301.852C192.162 301.726 187.011 301.852 183.498 299.269L184.724 299.054C188.237 301.839 193.571 301.719 197.066 301.852C198.577 301.902 200.075 302.022 201.585 302.149C202.078 302.193 202.584 302.218 203.095 302.231C202.081 302.258 201.067 302.23 200.056 302.149V302.149Z" fill="black"/>
<path opacity="0.05" d="M244.636 341.492C246.241 341.239 247.908 340.957 249.635 340.645L250.217 340.538C250.217 340.538 250.551 338.719 250.811 335.618C251.405 328.575 251.613 314.939 246.646 300.98L242.753 288.98C243.581 288.512 244.017 288.241 244.017 288.241L248.15 300.961C253.111 314.92 252.902 328.556 252.315 335.599C252.049 338.7 251.714 340.519 251.714 340.519L251.139 340.626C249.416 340.938 247.75 341.22 246.14 341.473C234.657 343.292 226.176 343.734 220.387 343.683C228.513 343.56 236.619 342.828 244.636 341.492V341.492Z" fill="black"/>
<path opacity="0.05" d="M208.455 340.538V340.607H207.633C207.945 340.586 208.219 340.563 208.455 340.538Z" fill="black"/>
</g>
<path d="M247.6 330.805C248.197 330.805 248.681 329.809 248.681 328.582C248.681 327.354 248.197 326.358 247.6 326.358C247.003 326.358 246.52 327.354 246.52 328.582C246.52 329.809 247.003 330.805 247.6 330.805Z" fill="#D39999"/>
<path d="M178.625 283.561C180.369 270.613 183.447 262.92 185.071 259.907C185.134 260.317 185.299 261.65 185.375 262.061C185.703 263.955 185.413 266.343 185.514 268.749L183.896 298.031L186.064 307.189C188.099 314.44 180.559 308.711 180.559 308.711C178.998 312.147 176.135 311.768 176.135 311.768L175.743 306.513C175.372 301.563 175.816 296.585 177.058 291.778C177.743 289.072 178.266 286.328 178.625 283.561V283.561Z" fill="#FDC2CC"/>
<path opacity="0.05" d="M178.625 283.561C180.369 270.613 183.447 262.92 185.071 259.907C185.134 260.317 185.299 261.65 185.375 262.061C185.703 263.955 185.413 266.343 185.514 268.749L183.896 298.031L186.064 307.189C188.099 314.44 180.559 308.711 180.559 308.711C178.998 312.147 176.135 311.768 176.135 311.768L175.743 306.513C175.372 301.563 175.816 296.585 177.058 291.778C177.743 289.072 178.266 286.328 178.625 283.561V283.561Z" fill="black"/>
<path d="M251.164 299.357C249.793 301.132 249.041 302.149 249.041 302.149L243.353 310.518C242.385 311.947 240.929 312.976 239.258 313.41C236.666 314.092 232.685 314.591 229.234 312.697C227.978 311.997 227.024 310.858 226.558 309.499C226.091 308.139 226.144 306.655 226.706 305.332L227.97 302.401C227.97 302.401 216.26 309.779 215.242 305.711C214.225 301.643 228.861 297.57 228.861 297.57C228.861 297.57 240.951 295.536 243.397 289.807C243.397 289.807 244.453 288.456 245.925 286.384" fill="#FDC2CC"/>
<path d="M244.042 313.385C244.042 313.385 230.195 312.04 225.809 304.126L223.799 310.663C223.799 310.663 238.335 320.693 241.653 319.392L244.042 313.385Z" fill="#65617D"/>
<path opacity="0.1" d="M243.549 313.322C243.549 313.322 229.709 311.977 225.316 304.056L223.313 310.574C223.313 310.574 237.849 320.604 241.16 319.303L243.549 313.322Z" fill="black"/>
<path d="M181.014 309.69C181.014 309.69 176.167 311.408 175.212 310.454L177.393 314.465L181.513 311.307L181.014 309.69Z" fill="#65617D"/>
<path opacity="0.1" d="M181.014 309.69C181.014 309.69 176.167 311.408 175.212 310.454L177.393 314.465L181.513 311.307L181.014 309.69Z" fill="black"/>
<path opacity="0.1" d="M210.717 336.47V328.102L208.727 336.672L210.717 336.47Z" fill="black"/>
<path opacity="0.1" d="M230.353 163.536C229.184 165.178 227.156 166.012 225.158 166.271C223.161 166.53 221.139 166.309 219.123 166.271C215.963 166.22 212.601 166.707 210.016 168.564C208.367 169.745 207.128 171.406 205.839 172.985C201.933 177.754 196.51 182.219 190.355 181.72C189.819 181.72 189.288 181.613 188.794 181.404C188.3 181.196 187.853 180.891 187.479 180.507C186.978 179.729 186.722 178.818 186.746 177.892C186.482 173.961 186.606 170.013 187.119 166.107C187.366 163.689 187.966 161.32 188.901 159.077C190.002 156.828 191.448 154.765 193.186 152.963C195.289 150.525 197.824 148.495 200.663 146.975C203.531 145.455 206.855 145.026 210.016 145.769C213.701 146.773 216.57 149.653 220.084 151.138C224.097 152.824 234.752 157.327 230.353 163.536Z" fill="black"/>
<path d="M230.353 162.772C229.184 164.414 227.156 165.248 225.158 165.507C223.161 165.766 221.139 165.545 219.123 165.507C215.963 165.45 212.601 165.936 210.016 167.793C208.367 168.974 207.128 170.635 205.839 172.214C201.933 176.983 196.51 181.448 190.355 180.949C189.819 180.951 189.288 180.844 188.794 180.636C188.299 180.428 187.852 180.122 187.479 179.737C186.977 178.959 186.721 178.047 186.746 177.122C186.482 173.191 186.606 169.243 187.119 165.336C187.366 162.918 187.966 160.55 188.901 158.306C190 156.058 191.446 153.997 193.186 152.199C195.287 149.757 197.822 147.725 200.663 146.205C203.531 144.684 206.855 144.255 210.016 144.998C213.701 146.003 216.57 148.883 220.084 150.367C224.097 152.06 234.752 156.55 230.353 162.772Z" fill="#865A61"/>
<path d="M184.73 299.048L184.679 301.353L184.161 299.149L184.73 299.048Z" fill="#FDC2CC"/>
<path opacity="0.05" d="M184.73 299.048L184.679 301.353L184.161 299.149L184.73 299.048Z" fill="black"/>
<g opacity="0.05">
<path opacity="0.05" d="M233.469 214.21C228.116 231.813 243.72 233.878 243.72 233.878L256.258 267.461C257.276 273.183 244.289 289.851 244.289 289.851C243.385 291.986 241.129 293.609 238.664 294.809C240.104 293.933 241.262 292.661 242.001 291.146C242.001 291.146 254.982 274.484 253.964 268.762L241.426 235.173C241.426 235.173 225.828 233.108 231.175 215.505C232.963 209.624 235.599 206.946 238.266 205.986C236.427 207.464 234.739 210.022 233.469 214.21Z" fill="black"/>
</g>
<g opacity="0.1">
<path opacity="0.1" d="M233.735 230.202C234.468 231.109 235.318 231.913 236.263 232.596C238.033 233.881 240.074 234.745 242.229 235.122C242.229 235.122 242.229 235.123 242.229 235.154V235.786C240.278 235.373 238.436 234.557 236.819 233.392C235.617 232.512 234.574 231.433 233.735 230.202V230.202Z" fill="black"/>
<path opacity="0.1" d="M185.248 255.385C185.248 255.454 185.248 255.53 185.248 255.606C185.445 258.607 185.808 261.595 186.335 264.556C188.231 275.444 185.748 297.064 185.394 300.052C185.192 299.919 184.989 299.793 184.762 299.648C184.857 298.928 187.77 275.35 185.748 263.817C185.229 260.866 184.877 257.888 184.692 254.898C184.692 254.822 184.692 254.747 184.692 254.677C184.567 252.944 183.98 251.276 182.992 249.845C184.302 251.412 185.091 253.349 185.248 255.385V255.385Z" fill="black"/>
<path opacity="0.1" d="M196.883 200.889L190.703 200.769C190.698 200.767 190.692 200.765 190.687 200.765C190.681 200.765 190.676 200.767 190.671 200.769L182.771 218.619C181.39 221.708 180.331 224.931 179.611 228.238C177.311 239.039 178.758 244.42 180.515 247.079C178.537 244.748 176.495 239.436 179.042 227.499C179.748 224.191 180.796 220.965 182.171 217.873L190.127 200.024L197.414 200.169V200.214C197.357 200.289 197.161 200.529 196.883 200.889Z" fill="black"/>
<path opacity="0.1" d="M243.461 205.734L243.568 205.765L243.461 205.734Z" fill="black"/>
<path opacity="0.1" d="M241.192 205.633L234.998 203.77H234.967C234.6 204.174 225.645 214.096 218.914 222.13C212.898 229.312 202.35 228.75 199.809 228.497C199.348 228.446 198.88 228.409 198.419 228.377C191.511 227.935 188.794 227.114 187.884 225.371C189.179 226.634 192.03 227.265 197.844 227.619C198.312 227.619 198.773 227.689 199.234 227.733C201.762 227.985 212.323 228.548 218.339 221.372C225.07 213.332 234.032 203.409 234.398 203.005L243.41 205.734C242.685 205.553 241.931 205.519 241.192 205.633V205.633Z" fill="black"/>
</g>
<path opacity="0.1" d="M167.862 478.437C167.862 478.437 159.141 480.818 157.454 477.079Z" fill="black"/>
<path opacity="0.1" d="M223.231 476.649C223.231 476.649 213.119 479.258 210.781 475.222Z" fill="black"/>
<path opacity="0.1" d="M121.721 455.143C131.121 455.143 138.741 453.857 138.741 452.269C138.741 450.682 131.121 449.396 121.721 449.396C112.322 449.396 104.702 450.682 104.702 452.269C104.702 453.857 112.322 455.143 121.721 455.143Z" fill="white" fill-opacity="0.2"/>
<path opacity="0.1" d="M54.6732 495.901C64.0728 495.901 71.6927 494.614 71.6927 493.027C71.6927 491.44 64.0728 490.153 54.6732 490.153C45.2737 490.153 37.6538 491.44 37.6538 493.027C37.6538 494.614 45.2737 495.901 54.6732 495.901Z" fill="white" fill-opacity="0.2"/>
<path d="M36.9523 460.859C50.9871 460.859 62.3645 458.936 62.3645 456.564C62.3645 454.192 50.9871 452.269 36.9523 452.269C22.9175 452.269 11.54 454.192 11.54 456.564C11.54 458.936 22.9175 460.859 36.9523 460.859Z" fill="#1AC0E5"/>
<path d="M26.4425 449.541C25.2807 448.599 24.4341 447.326 24.0157 445.89C23.706 444.437 24.3254 442.701 25.7094 442.17C27.2641 441.576 28.9262 442.65 30.1839 443.736C31.4416 444.823 32.8888 446.067 34.5383 445.84C33.69 445.071 33.0555 444.095 32.6966 443.008C32.3378 441.921 32.2668 440.76 32.4907 439.637C32.5588 439.171 32.7558 438.734 33.0594 438.374C33.9189 437.452 35.4863 437.85 36.5227 438.576C39.8028 440.888 40.7255 445.347 40.7381 449.364C41.0731 447.911 40.795 446.408 40.8013 444.943C40.8076 443.477 41.2184 441.785 42.4697 441.014C43.2427 440.586 44.1143 440.369 44.9977 440.383C46.4765 440.332 48.1197 440.477 49.1309 441.557C50.3949 442.896 50.0599 445.151 48.9666 446.61C47.8732 448.069 46.2174 449.01 44.6943 450.033C43.4675 450.76 42.4217 451.756 41.6355 452.945C41.5434 453.11 41.4672 453.284 41.408 453.463H32.1747C30.0942 452.423 28.1657 451.103 26.4425 449.541V449.541Z" fill="#1AC0E5"/>
<path opacity="0.1" d="M650.84 479.182C660.24 479.182 667.86 477.896 667.86 476.308C667.86 474.721 660.24 473.435 650.84 473.435C641.441 473.435 633.821 474.721 633.821 476.308C633.821 477.896 641.441 479.182 650.84 479.182Z" fill="white" fill-opacity="0.2"/>
<path d="M639.414 462.95C639.414 462.95 649.121 462.653 652.053 460.569C654.986 458.484 666.981 456.002 667.708 459.343C668.435 462.685 682.3 475.948 671.335 476.037C660.37 476.125 645.872 474.332 642.953 472.55C640.033 470.769 639.414 462.95 639.414 462.95Z" fill="#A8A8A8"/>
<path opacity="0.2" d="M671.525 474.881C660.566 474.969 646.062 473.176 643.142 471.395C640.918 470.043 640.033 465.186 639.736 462.944H639.414C639.414 462.944 640.046 470.769 642.946 472.544C645.847 474.319 660.37 476.119 671.329 476.031C674.489 476.031 675.589 474.881 675.525 473.214C675.089 474.249 673.882 474.881 671.525 474.881Z" fill="black"/>
</g>
<defs>
<linearGradient id="paint0_linear" x1="304.384" y1="448.638" x2="304.384" y2="75.3003" gradientUnits="userSpaceOnUse">
<stop stop-color="#808080" stop-opacity="0.25"/>
<stop offset="0.54" stop-color="#808080" stop-opacity="0.12"/>
<stop offset="1" stop-color="#808080" stop-opacity="0.1"/>
</linearGradient>
<linearGradient id="paint1_linear" x1="87047.4" y1="301756" x2="87047.4" y2="66111.6" gradientUnits="userSpaceOnUse">
<stop stop-color="#808080" stop-opacity="0.25"/>
<stop offset="0.54" stop-color="#808080" stop-opacity="0.12"/>
<stop offset="1" stop-color="#808080" stop-opacity="0.1"/>
</linearGradient>
<linearGradient id="paint2_linear" x1="115399" y1="307191" x2="115399" y2="89117" gradientUnits="userSpaceOnUse">
<stop stop-color="#808080" stop-opacity="0.25"/>
<stop offset="0.54" stop-color="#808080" stop-opacity="0.12"/>
<stop offset="1" stop-color="#808080" stop-opacity="0.1"/>
</linearGradient>
<linearGradient id="paint3_linear" x1="-66095.7" y1="304585" x2="-66095.7" y2="85620.8" gradientUnits="userSpaceOnUse">
<stop stop-color="#808080" stop-opacity="0.25"/>
<stop offset="0.54" stop-color="#808080" stop-opacity="0.12"/>
<stop offset="1" stop-color="#808080" stop-opacity="0.1"/>
</linearGradient>
<clipPath id="clip0">
<rect width="719" height="543" fill="white"/>
</clipPath>
</defs>
</svg>
