<svg width="185" height="185" viewBox="0 0 185 185" fill="none" xmlns="http://www.w3.org/2000/svg">
<path d="M10 5C10 7.76142 7.76142 10 5 10C2.23858 10 0 7.76142 0 5C0 2.23858 2.23858 0 5 0C7.76142 0 10 2.23858 10 5Z" fill="#1AC0E5" fill-opacity="0.3"/>
<path d="M10 40C10 42.7614 7.76142 45 5 45C2.23858 45 0 42.7614 0 40C0 37.2386 2.23858 35 5 35C7.76142 35 10 37.2386 10 40Z" fill="#1AC0E5" fill-opacity="0.3"/>
<path d="M10 75C10 77.7614 7.76142 80 5 80C2.23858 80 0 77.7614 0 75C0 72.2386 2.23858 70 5 70C7.76142 70 10 72.2386 10 75Z" fill="#1AC0E5" fill-opacity="0.3"/>
<path d="M10 110C10 112.761 7.76142 115 5 115C2.23858 115 0 112.761 0 110C0 107.239 2.23858 105 5 105C7.76142 105 10 107.239 10 110Z" fill="#1AC0E5" fill-opacity="0.3"/>
<path d="M10 145C10 147.761 7.76142 150 5 150C2.23858 150 0 147.761 0 145C0 142.239 2.23858 140 5 140C7.76142 140 10 142.239 10 145Z" fill="#1AC0E5" fill-opacity="0.3"/>
<path d="M10 180C10 182.761 7.76142 185 5 185C2.23858 185 0 182.761 0 180C0 177.239 2.23858 175 5 175C7.76142 175 10 177.239 10 180Z" fill="#1AC0E5" fill-opacity="0.3"/>
<path d="M45 5C45 7.76142 42.7614 10 40 10C37.2386 10 35 7.76142 35 5C35 2.23858 37.2386 0 40 0C42.7614 0 45 2.23858 45 5Z" fill="#1AC0E5" fill-opacity="0.3"/>
<path d="M45 40C45 42.7614 42.7614 45 40 45C37.2386 45 35 42.7614 35 40C35 37.2386 37.2386 35 40 35C42.7614 35 45 37.2386 45 40Z" fill="#1AC0E5" fill-opacity="0.3"/>
<path d="M45 75C45 77.7614 42.7614 80 40 80C37.2386 80 35 77.7614 35 75C35 72.2386 37.2386 70 40 70C42.7614 70 45 72.2386 45 75Z" fill="#1AC0E5" fill-opacity="0.3"/>
<path d="M45 110C45 112.761 42.7614 115 40 115C37.2386 115 35 112.761 35 110C35 107.239 37.2386 105 40 105C42.7614 105 45 107.239 45 110Z" fill="#1AC0E5" fill-opacity="0.3"/>
<path d="M45 145C45 147.761 42.7614 150 40 150C37.2386 150 35 147.761 35 145C35 142.239 37.2386 140 40 140C42.7614 140 45 142.239 45 145Z" fill="#1AC0E5" fill-opacity="0.3"/>
<path d="M45 180C45 182.761 42.7614 185 40 185C37.2386 185 35 182.761 35 180C35 177.239 37.2386 175 40 175C42.7614 175 45 177.239 45 180Z" fill="#1AC0E5" fill-opacity="0.3"/>
<path d="M80 5C80 7.76142 77.7614 10 75 10C72.2386 10 70 7.76142 70 5C70 2.23858 72.2386 0 75 0C77.7614 0 80 2.23858 80 5Z" fill="#1AC0E5" fill-opacity="0.3"/>
<path d="M80 40C80 42.7614 77.7614 45 75 45C72.2386 45 70 42.7614 70 40C70 37.2386 72.2386 35 75 35C77.7614 35 80 37.2386 80 40Z" fill="#1AC0E5" fill-opacity="0.3"/>
<path d="M80 75C80 77.7614 77.7614 80 75 80C72.2386 80 70 77.7614 70 75C70 72.2386 72.2386 70 75 70C77.7614 70 80 72.2386 80 75Z" fill="#1AC0E5" fill-opacity="0.3"/>
<path d="M80 110C80 112.761 77.7614 115 75 115C72.2386 115 70 112.761 70 110C70 107.239 72.2386 105 75 105C77.7614 105 80 107.239 80 110Z" fill="#1AC0E5" fill-opacity="0.3"/>
<path d="M80 145C80 147.761 77.7614 150 75 150C72.2386 150 70 147.761 70 145C70 142.239 72.2386 140 75 140C77.7614 140 80 142.239 80 145Z" fill="#1AC0E5" fill-opacity="0.3"/>
<path d="M80 180C80 182.761 77.7614 185 75 185C72.2386 185 70 182.761 70 180C70 177.239 72.2386 175 75 175C77.7614 175 80 177.239 80 180Z" fill="#1AC0E5" fill-opacity="0.3"/>
<path d="M115 5C115 7.76142 112.761 10 110 10C107.239 10 105 7.76142 105 5C105 2.23858 107.239 0 110 0C112.761 0 115 2.23858 115 5Z" fill="#1AC0E5" fill-opacity="0.3"/>
<path d="M115 40C115 42.7614 112.761 45 110 45C107.239 45 105 42.7614 105 40C105 37.2386 107.239 35 110 35C112.761 35 115 37.2386 115 40Z" fill="#1AC0E5" fill-opacity="0.3"/>
<path d="M115 75C115 77.7614 112.761 80 110 80C107.239 80 105 77.7614 105 75C105 72.2386 107.239 70 110 70C112.761 70 115 72.2386 115 75Z" fill="#1AC0E5" fill-opacity="0.3"/>
<path d="M115 110C115 112.761 112.761 115 110 115C107.239 115 105 112.761 105 110C105 107.239 107.239 105 110 105C112.761 105 115 107.239 115 110Z" fill="#1AC0E5" fill-opacity="0.3"/>
<path d="M115 145C115 147.761 112.761 150 110 150C107.239 150 105 147.761 105 145C105 142.239 107.239 140 110 140C112.761 140 115 142.239 115 145Z" fill="#1AC0E5" fill-opacity="0.3"/>
<path d="M115 180C115 182.761 112.761 185 110 185C107.239 185 105 182.761 105 180C105 177.239 107.239 175 110 175C112.761 175 115 177.239 115 180Z" fill="#1AC0E5" fill-opacity="0.3"/>
<path d="M150 5C150 7.76142 147.761 10 145 10C142.239 10 140 7.76142 140 5C140 2.23858 142.239 0 145 0C147.761 0 150 2.23858 150 5Z" fill="#1AC0E5" fill-opacity="0.3"/>
<path d="M150 40C150 42.7614 147.761 45 145 45C142.239 45 140 42.7614 140 40C140 37.2386 142.239 35 145 35C147.761 35 150 37.2386 150 40Z" fill="#1AC0E5" fill-opacity="0.3"/>
<path d="M150 75C150 77.7614 147.761 80 145 80C142.239 80 140 77.7614 140 75C140 72.2386 142.239 70 145 70C147.761 70 150 72.2386 150 75Z" fill="#1AC0E5" fill-opacity="0.3"/>
<path d="M150 110C150 112.761 147.761 115 145 115C142.239 115 140 112.761 140 110C140 107.239 142.239 105 145 105C147.761 105 150 107.239 150 110Z" fill="#1AC0E5" fill-opacity="0.3"/>
<path d="M150 145C150 147.761 147.761 150 145 150C142.239 150 140 147.761 140 145C140 142.239 142.239 140 145 140C147.761 140 150 142.239 150 145Z" fill="#1AC0E5" fill-opacity="0.3"/>
<path d="M150 180C150 182.761 147.761 185 145 185C142.239 185 140 182.761 140 180C140 177.239 142.239 175 145 175C147.761 175 150 177.239 150 180Z" fill="#1AC0E5" fill-opacity="0.3"/>
<path d="M185 5C185 7.76142 182.761 10 180 10C177.239 10 175 7.76142 175 5C175 2.23858 177.239 0 180 0C182.761 0 185 2.23858 185 5Z" fill="#1AC0E5" fill-opacity="0.3"/>
<path d="M185 40C185 42.7614 182.761 45 180 45C177.239 45 175 42.7614 175 40C175 37.2386 177.239 35 180 35C182.761 35 185 37.2386 185 40Z" fill="#1AC0E5" fill-opacity="0.3"/>
<path d="M185 75C185 77.7614 182.761 80 180 80C177.239 80 175 77.7614 175 75C175 72.2386 177.239 70 180 70C182.761 70 185 72.2386 185 75Z" fill="#1AC0E5" fill-opacity="0.3"/>
<path d="M185 110C185 112.761 182.761 115 180 115C177.239 115 175 112.761 175 110C175 107.239 177.239 105 180 105C182.761 105 185 107.239 185 110Z" fill="#1AC0E5" fill-opacity="0.3"/>
<path d="M185 145C185 147.761 182.761 150 180 150C177.239 150 175 147.761 175 145C175 142.239 177.239 140 180 140C182.761 140 185 142.239 185 145Z" fill="#1AC0E5" fill-opacity="0.3"/>
<path d="M185 180C185 182.761 182.761 185 180 185C177.239 185 175 182.761 175 180C175 177.239 177.239 175 180 175C182.761 175 185 177.239 185 180Z" fill="#1AC0E5" fill-opacity="0.3"/>
</svg>
