<svg width="150" height="150" viewBox="0 0 150 150" fill="none" xmlns="http://www.w3.org/2000/svg">
<rect width="150" height="150" rx="75" fill="black"/>
<path d="M120.697 56C121.114 56.0426 121.529 56.088 121.947 56.1278C125.427 56.4095 128.758 57.6598 131.565 59.737C132.38 60.3447 133.138 61.0319 133.992 61.739L126.198 69.5056C125.968 69.2898 125.774 69.1165 125.59 68.9376C124.405 67.7564 122.862 67.0014 121.203 66.7908C118.016 66.362 115.273 67.248 113.143 69.7356C112.096 70.965 111.478 72.5022 111.383 74.1144C111.258 75.7472 111.383 77.363 112.008 78.8964C113.092 81.5232 115.066 83.1247 117.835 83.6558C119.172 83.9481 120.56 83.9158 121.883 83.5616C123.206 83.2073 124.424 82.5415 125.436 81.6197L125.698 81.401C125.698 81.3869 125.738 81.3812 125.732 81.3812L133.481 89.1137C132.285 90.2325 130.96 91.2048 129.534 92.0101C127.421 93.1733 125.11 93.9339 122.719 94.2535C119.193 94.7995 115.586 94.4349 112.24 93.1943C108.909 91.9273 105.997 89.7559 103.832 86.9243C101.668 84.178 100.366 80.8517 100.092 77.3658C99.8083 73.9582 100.183 70.6642 101.549 67.5093C101.719 67.1174 101.91 66.7369 102.103 66.3166H98.4537V93.5777H87.4868V66.7426C87.4868 66.2967 87.4868 66.2967 87.0524 66.2967H83.7754V93.5578C83.6756 93.5726 83.5751 93.5821 83.4744 93.5862C80.2371 93.5862 76.9999 93.5862 73.7626 93.5862C73.6246 93.5939 73.487 93.5658 73.3631 93.5046C73.2392 93.4434 73.1332 93.3512 73.0555 93.2369C69.2825 88.3924 65.5038 83.5526 61.7195 78.7175C60.5382 77.203 59.3559 75.6885 58.1727 74.174L57.9796 73.944V93.5379H47.0695V82.7215L46.9815 82.6931C46.9275 82.8039 46.8679 82.9118 46.8196 83.0254C45.3884 86.433 43.9619 89.8406 42.5402 93.2482C42.5081 93.3654 42.4338 93.4665 42.3315 93.5321C42.2292 93.5976 42.1063 93.623 41.9865 93.6032C40.6234 93.5862 39.2603 93.5862 37.8973 93.6032C37.788 93.6181 37.6771 93.5918 37.5863 93.5293C37.4954 93.4668 37.4312 93.3726 37.406 93.2653C35.5981 88.7218 33.7826 84.1858 31.9595 79.6575L30.7498 76.6275C30.6902 76.4855 30.6277 76.3436 30.5652 76.2044H30.4772C30.3863 76.7979 30.2869 77.3914 30.1932 77.9877C29.8581 80.2595 29.5249 82.5246 29.1936 84.7831C28.8907 86.8447 28.585 88.9073 28.2764 90.9708C28.16 91.7659 28.035 92.561 27.93 93.359C27.9016 93.5606 27.8022 93.5919 27.6318 93.5919C26.8935 93.5919 26.1552 93.5919 25.4168 93.5919H17C19.0824 81.2865 21.1649 69.0039 23.2473 56.744H23.6193C26.8339 56.744 30.0484 56.744 33.2743 56.744C33.3789 56.7344 33.4834 56.7631 33.5686 56.8247C33.6537 56.8863 33.7135 56.9767 33.7371 57.0791C35.5527 61.8952 37.3729 66.7085 39.1979 71.5189C39.4818 72.2487 39.7658 72.9757 40.0697 73.7907C40.1435 73.6288 40.1918 73.5379 40.2287 73.4442L46.2602 58.4223C46.4561 57.9367 46.6521 57.4539 46.8281 56.9683C46.8426 56.8969 46.884 56.8338 46.9437 56.792C47.0035 56.7503 47.077 56.7331 47.149 56.744C50.5197 56.744 53.8933 56.744 57.2668 56.744C57.3409 56.7534 57.4124 56.7773 57.4772 56.8143C57.542 56.8513 57.5988 56.9008 57.6445 56.9598C59.6058 59.4587 61.5642 61.9615 63.5198 64.468L72.5586 76.0312C72.6285 76.1296 72.728 76.2033 72.8426 76.2413V56.7696H105.933V61.3131C106.473 60.8644 106.95 60.447 107.45 60.0608C110.097 58.0068 113.245 56.6971 116.568 56.2669C117.264 56.1732 117.965 56.1278 118.664 56.0568C118.752 56.0436 118.839 56.0246 118.925 56H120.697ZM96.5994 91.746V64.4481H104.085V58.6125H74.6855V81.7163C74.5662 81.5686 74.4924 81.4862 74.4243 81.401C72.8738 79.4133 71.3224 77.4255 69.77 75.4377L62.702 66.4018C60.7388 63.8877 58.7776 61.3727 56.8182 58.8567C56.7575 58.763 56.6729 58.6872 56.573 58.6372C56.4731 58.5873 56.3616 58.565 56.2502 58.5728C53.6604 58.5728 51.0706 58.5728 48.4808 58.5728C48.3817 58.5577 48.2806 58.5815 48.1986 58.6392C48.1166 58.6968 48.06 58.7839 48.0407 58.8823C47.7312 59.7086 47.3904 60.5265 47.0638 61.3471L40.9414 76.6218L40.0413 78.851C39.9816 78.7119 39.9447 78.6323 39.9135 78.5472C37.4259 71.9988 34.9421 65.4486 32.4621 58.8965C32.4441 58.7999 32.3901 58.7136 32.3111 58.6552C32.2321 58.5967 32.1339 58.5703 32.0362 58.5813C29.719 58.5955 27.4018 58.5813 25.0846 58.5813C24.9852 58.5813 24.8858 58.5955 24.7779 58.604C22.9075 69.6599 21.038 80.7072 19.1695 91.746H26.3142C27.433 84.2038 28.5462 76.6957 29.6764 69.0597C29.7644 69.2585 29.8099 69.3437 29.8496 69.4601C31.4626 73.4793 33.0717 77.4984 34.6771 81.5175C36.0023 84.8229 37.3275 88.1283 38.6527 91.4337C38.6747 91.5418 38.7373 91.6373 38.8276 91.7007C38.9179 91.7641 39.0291 91.7905 39.1382 91.7744C39.7289 91.7461 40.3196 91.7574 40.9102 91.7744C40.9935 91.7845 41.0775 91.7638 41.1466 91.7162C41.2156 91.6686 41.2649 91.5974 41.285 91.516C43.4205 86.4046 45.5607 81.2931 47.7056 76.1817L48.8159 73.5323H48.8812V73.8901C48.8812 79.7171 48.8812 85.5442 48.8812 91.3712C48.8812 91.6864 48.9693 91.7688 49.2816 91.7688C51.4284 91.7688 53.5752 91.7517 55.722 91.7688C56.0798 91.7688 56.1508 91.6665 56.1508 91.3286C56.1395 83.9 56.1395 76.4713 56.1508 69.0427V68.6168C56.2417 68.7247 56.2786 68.7644 56.3099 68.807C57.1769 69.9164 58.0421 71.0267 58.9053 72.138C63.943 78.6068 68.9834 85.0671 74.0267 91.5189C74.0818 91.6019 74.1578 91.6689 74.247 91.7133C74.3362 91.7577 74.4356 91.7778 74.535 91.7716C76.8749 91.7716 79.2148 91.7716 81.5547 91.7716C81.6655 91.7716 81.7762 91.7716 81.9239 91.7546V64.4708H89.3071V91.746H96.5994ZM125.587 83.829L125.473 83.9028C123.307 85.3607 120.671 85.9506 118.09 85.5555C114.683 85.0756 112.127 83.3122 110.574 80.1999C109.574 78.1837 109.355 76.017 109.565 73.7964C109.778 71.3224 110.954 69.0308 112.84 67.4156C114.392 66.0821 116.296 65.2237 118.323 64.9427C120.35 64.6618 122.415 64.9701 124.272 65.831C124.911 66.1377 125.51 66.5296 126.098 66.8647L131.193 61.7788C131.13 61.7128 131.063 61.652 130.991 61.597C130.119 61.0291 129.287 60.3845 128.367 59.8932C124.866 58.0304 121.12 57.5448 117.213 58.0247C114.759 58.3051 112.392 59.1005 110.267 60.3589C108.22 61.5772 106.439 63.1948 105.03 65.1154C103.266 67.5149 102.198 70.3547 101.944 73.3221C101.7 75.892 101.827 78.4336 102.685 80.8871C104.587 86.3109 108.344 89.9088 113.76 91.7574C116.27 92.5821 118.93 92.8486 121.555 92.5383C123.854 92.347 126.094 91.7084 128.148 90.6584C129.066 90.1757 129.932 89.5907 130.832 89.0427L125.587 83.829Z" fill="white"/>
</svg>
