<svg width="150" height="150" viewBox="0 0 150 150" fill="none" xmlns="http://www.w3.org/2000/svg">
<rect width="150" height="150" rx="75" fill="black"/>
<path d="M96.5994 91.746V64.4481H104.085V58.6125H74.6855V81.7163C74.5662 81.5686 74.4924 81.4862 74.4243 81.401C72.8738 79.4133 71.3224 77.4255 69.77 75.4377L62.702 66.4018C60.7388 63.8877 58.7776 61.3727 56.8182 58.8567C56.7575 58.763 56.6729 58.6872 56.573 58.6372C56.4731 58.5873 56.3616 58.565 56.2502 58.5728H48.4808C48.3817 58.5577 48.2806 58.5815 48.1986 58.6392C48.1166 58.6968 48.06 58.7839 48.0407 58.8823C47.7312 59.7086 47.3904 60.5265 47.0638 61.3471L40.9414 76.6218L40.0413 78.851C39.9816 78.7119 39.9447 78.6323 39.9135 78.5472C37.4259 71.9988 34.9421 65.4486 32.4621 58.8965C32.4441 58.7999 32.3901 58.7136 32.3111 58.6552C32.2321 58.5967 32.1339 58.5703 32.0362 58.5813C29.719 58.5955 27.4018 58.5813 25.0846 58.5813C24.9852 58.5813 24.8858 58.5955 24.7779 58.604C22.9075 69.6599 21.038 80.7072 19.1695 91.746H26.3142C27.433 84.2038 28.5462 76.6957 29.6764 69.0597C29.7644 69.2585 29.8099 69.3437 29.8496 69.4601C31.4626 73.4793 33.0717 77.4984 34.6771 81.5175L38.6527 91.4337C38.6747 91.5418 38.7373 91.6373 38.8276 91.7007C38.9179 91.7641 39.0291 91.7905 39.1382 91.7744C39.7289 91.7461 40.3196 91.7574 40.9102 91.7744C40.9935 91.7845 41.0775 91.7638 41.1466 91.7162C41.2156 91.6686 41.2649 91.5974 41.285 91.516C43.4205 86.4046 45.5607 81.2931 47.7056 76.1817L48.8159 73.5323H48.8812V73.8901V91.3712C48.8812 91.6864 48.9693 91.7688 49.2816 91.7688C51.4284 91.7688 53.5752 91.7517 55.722 91.7688C56.0798 91.7688 56.1508 91.6665 56.1508 91.3286C56.1395 83.9 56.1395 76.4713 56.1508 69.0427V68.6168C56.2417 68.7247 56.2786 68.7644 56.3099 68.807C57.1769 69.9164 58.0421 71.0267 58.9053 72.138C63.943 78.6068 68.9834 85.0671 74.0267 91.5189C74.0818 91.6019 74.1578 91.6689 74.247 91.7133C74.3362 91.7577 74.4356 91.7778 74.535 91.7716H81.5547C81.6655 91.7716 81.7762 91.7716 81.9239 91.7546V64.4708H89.3071V91.746H96.5994Z" fill="white"/>
<path d="M125.587 83.829L125.473 83.9028C123.307 85.3607 120.671 85.9506 118.09 85.5555C114.683 85.0756 112.127 83.3122 110.574 80.1999C109.574 78.1837 109.355 76.017 109.565 73.7964C109.778 71.3224 110.954 69.0308 112.84 67.4156C114.392 66.0821 116.296 65.2237 118.323 64.9427C120.35 64.6618 122.415 64.9701 124.272 65.831C124.911 66.1377 125.51 66.5296 126.098 66.8647L131.193 61.7788C131.13 61.7128 131.063 61.652 130.991 61.597C130.119 61.0291 129.287 60.3845 128.367 59.8932C124.866 58.0304 121.12 57.5448 117.213 58.0247C114.759 58.3051 112.392 59.1005 110.267 60.3589C108.22 61.5772 106.439 63.1948 105.03 65.1154C103.266 67.5149 102.198 70.3547 101.944 73.3221C101.7 75.892 101.827 78.4336 102.685 80.8871C104.587 86.3109 108.344 89.9088 113.76 91.7574C116.27 92.5821 118.93 92.8486 121.555 92.5383C123.854 92.347 126.094 91.7084 128.148 90.6584C129.066 90.1757 129.932 89.5907 130.832 89.0427L125.587 83.829Z" fill="white"/>
</svg>
