<svg width="100" height="100" viewBox="0 0 100 100" fill="none" xmlns="http://www.w3.org/2000/svg">
<path d="M88.6356 33.5C88.9924 33.5364 89.3468 33.5752 89.7036 33.6092C92.6782 33.85 95.526 34.9187 97.9247 36.6943C98.6213 37.2137 99.2694 37.8011 100 38.4055L93.3372 45.044C93.1406 44.8595 92.9756 44.7114 92.8178 44.5585C91.8051 43.5489 90.4863 42.9035 89.0677 42.7235C86.3443 42.357 83.9996 43.1143 82.1792 45.2406C81.284 46.2914 80.7557 47.6054 80.6743 48.9834C80.5675 50.3791 80.6743 51.7602 81.2083 53.0709C82.1355 55.3161 83.8224 56.685 86.189 57.1389C87.3323 57.3888 88.5189 57.3612 89.6493 57.0584C90.7798 56.7556 91.8213 56.1865 92.6867 55.3986L92.91 55.2117C92.91 55.1996 92.944 55.1947 92.9391 55.1947L99.5631 61.8041C98.5408 62.7604 97.4082 63.5915 96.1892 64.2799C94.3828 65.2741 92.4076 65.9243 90.3638 66.1974C87.35 66.6641 84.2668 66.3525 81.4073 65.292C78.5596 64.2091 76.0706 62.3531 74.2202 59.9327C72.3703 57.5853 71.2579 54.7421 71.0236 51.7626C70.7808 48.8499 71.1012 46.0343 72.2687 43.3376C72.4144 43.0027 72.577 42.6774 72.7421 42.3182H69.623V65.6197H60.249V42.6823C60.249 42.3012 60.249 42.3012 59.8777 42.3012H57.0766V65.6027C56.9914 65.6154 56.9055 65.6235 56.8193 65.627C54.0523 65.627 51.2852 65.627 48.5182 65.627C48.4002 65.6336 48.2826 65.6096 48.1767 65.5573C48.0708 65.505 47.9802 65.4261 47.9138 65.3284C44.6888 61.1876 41.4589 57.0507 38.2242 52.9179C37.2145 51.6234 36.204 50.3289 35.1926 49.0344L35.0275 48.8378V65.5857H25.7021V56.3404L25.6268 56.3161C25.5807 56.4108 25.5297 56.503 25.4885 56.6001C24.2652 59.5128 23.0459 62.4255 21.8306 65.3382C21.8032 65.4383 21.7397 65.5247 21.6522 65.5808C21.5648 65.6368 21.4598 65.6584 21.3573 65.6416C20.1922 65.627 19.0272 65.627 17.8621 65.6416C17.7687 65.6543 17.6739 65.6318 17.5963 65.5784C17.5186 65.5249 17.4637 65.4445 17.4422 65.3527C15.8968 61.4691 14.345 57.592 12.7867 53.7214L11.7527 51.1315C11.7017 51.0101 11.6483 50.8888 11.5949 50.7698H11.5197C11.442 51.2771 11.3571 51.7844 11.277 52.2941C10.9906 54.2359 10.7058 56.1721 10.4226 58.1025C10.1637 59.8647 9.90234 61.6277 9.63858 63.3915C9.53907 64.0711 9.43227 64.7508 9.34246 65.4328C9.31819 65.6051 9.23323 65.6318 9.0876 65.6318C8.45652 65.6318 7.82543 65.6318 7.19435 65.6318H0C1.77998 55.1138 3.55996 44.6152 5.33994 34.1359H5.6579C8.40554 34.1359 11.1532 34.1359 13.9105 34.1359C14 34.1278 14.0893 34.1523 14.1621 34.205C14.2348 34.2576 14.286 34.3348 14.3062 34.4224C15.858 38.539 17.4139 42.6531 18.9738 46.7649C19.2165 47.3887 19.4592 48.0101 19.7189 48.7067C19.782 48.5683 19.8233 48.4907 19.8549 48.4106L25.0103 35.5704C25.1778 35.1554 25.3453 34.7427 25.4958 34.3277C25.5081 34.2666 25.5435 34.2127 25.5946 34.177C25.6456 34.1413 25.7085 34.1266 25.77 34.1359C28.6512 34.1359 31.5347 34.1359 34.4183 34.1359C34.4816 34.144 34.5427 34.1644 34.5981 34.196C34.6535 34.2277 34.7021 34.27 34.7411 34.3204C36.4176 36.4564 38.0915 38.5956 39.7631 40.738L47.489 50.6218C47.5488 50.7059 47.6338 50.7688 47.7317 50.8014V34.1578H76.0164V38.0414C76.4776 37.6579 76.8854 37.3011 77.3126 36.971C79.5754 35.2153 82.2661 34.0958 85.1064 33.7282C85.7011 33.6481 86.3006 33.6092 86.8977 33.5485C86.9732 33.5373 87.0478 33.521 87.121 33.5H88.6356ZM68.0381 64.0541V40.721H74.4363V35.7331H49.307V55.4811C49.2051 55.3549 49.142 55.2845 49.0837 55.2117C47.7584 53.5126 46.4324 51.8136 45.1055 50.1145L39.0641 42.391C37.386 40.2421 35.7096 38.0923 34.0348 35.9418C33.983 35.8617 33.9106 35.7969 33.8252 35.7542C33.7398 35.7115 33.6446 35.6925 33.5494 35.6991C31.3357 35.6991 29.1221 35.6991 26.9084 35.6991C26.8237 35.6862 26.7373 35.7065 26.6672 35.7558C26.5971 35.8051 26.5487 35.8796 26.5322 35.9637C26.2676 36.67 25.9764 37.369 25.6972 38.0705L20.4641 51.1266L19.6947 53.032C19.6437 52.9131 19.6121 52.8451 19.5854 52.7723C17.4592 47.1751 15.3361 41.5762 13.2163 35.9758C13.2009 35.8932 13.1548 35.8195 13.0873 35.7695C13.0197 35.7195 12.9358 35.697 12.8523 35.7064C10.8716 35.7185 8.89099 35.7064 6.91036 35.7064C6.82541 35.7064 6.74046 35.7185 6.64822 35.7258C5.04948 45.1759 3.45154 54.6186 1.85441 64.0541H7.96136C8.91769 57.6074 9.86917 51.1898 10.8352 44.6629C10.9105 44.8328 10.9493 44.9056 10.9833 45.0051C12.362 48.4405 13.7374 51.8759 15.1096 55.3112C16.2423 58.1365 17.375 60.9618 18.5077 63.7871C18.5266 63.8795 18.5801 63.9612 18.6573 64.0154C18.7345 64.0695 18.8295 64.0921 18.9228 64.0784C19.4277 64.0541 19.9325 64.0639 20.4374 64.0784C20.5085 64.087 20.5804 64.0693 20.6394 64.0287C20.6984 63.988 20.7405 63.9271 20.7578 63.8575C22.5831 59.4885 24.4124 55.1195 26.2458 50.7504L27.1948 48.4858H27.2507V48.7916C27.2507 53.7723 27.2507 58.753 27.2507 63.7337C27.2507 64.0032 27.3259 64.0736 27.5929 64.0736C29.4279 64.0736 31.2629 64.059 33.0979 64.0736C33.4037 64.0736 33.4644 63.9862 33.4644 63.6973C33.4547 57.3477 33.4547 50.998 33.4644 44.6483V44.2842C33.5421 44.3765 33.5736 44.4105 33.6003 44.4469C34.3414 45.3951 35.0809 46.3442 35.8188 47.294C40.1248 52.8233 44.4331 58.3453 48.7439 63.86C48.791 63.9309 48.856 63.9882 48.9322 64.0262C49.0085 64.0641 49.0934 64.0813 49.1784 64.076C51.1784 64.076 53.1785 64.076 55.1785 64.076C55.2732 64.076 55.3679 64.076 55.4941 64.0614V40.7405H61.8049V64.0541H68.0381ZM92.8154 57.287L92.7183 57.3501C90.8665 58.5962 88.6138 59.1005 86.4074 58.7628C83.4947 58.3525 81.3102 56.8452 79.9825 54.185C79.1281 52.4616 78.9412 50.6096 79.1209 48.7115C79.3024 46.5969 80.3075 44.6382 81.9195 43.2575C83.2466 42.1178 84.8736 41.384 86.6064 41.1439C88.3392 40.9037 90.1045 41.1673 91.6916 41.9031C92.2377 42.1653 92.7498 42.5002 93.2523 42.7866L97.6067 38.4394C97.5536 38.383 97.496 38.3311 97.4344 38.2841C96.6892 37.7986 95.9781 37.2477 95.1916 36.8278C92.1988 35.2355 88.9973 34.8204 85.6574 35.2306C83.56 35.4703 81.5369 36.1502 79.7204 37.2258C77.9709 38.2671 76.4487 39.6498 75.2445 41.2915C73.7365 43.3424 72.8235 45.7697 72.6061 48.3062C72.3974 50.5028 72.5066 52.6752 73.2396 54.7724C74.8659 59.4084 78.0771 62.4837 82.7059 64.0638C84.8517 64.7688 87.1256 64.9966 89.3687 64.7313C91.3341 64.5678 93.2486 64.0219 95.0047 63.1245C95.7887 62.7119 96.529 62.2119 97.2985 61.7434L92.8154 57.287Z" fill="white"/>
</svg>
