<svg xmlns="http://www.w3.org/2000/svg" xmlns:xlink="http://www.w3.org/1999/xlink" viewBox="0 0 187.46 118.54"><defs><style>.cls-1{fill:none;}.cls-2{isolation:isolate;}.cls-3{clip-path:url(#clip-path);}.cls-4{fill:#14528f;}.cls-5{fill:#14508b;}.cls-6{fill:#134d87;}.cls-7{fill:#134b83;}.cls-8{fill:#12497e;}.cls-9{fill:#11467a;}.cls-10{fill:#114476;}.cls-11{fill:#104272;}.cls-12{fill:#103f6e;}.cls-13{fill:#0f3d6a;}.cls-14{clip-path:url(#clip-path-2);}.cls-15{clip-path:url(#clip-path-3);}.cls-16{fill:#1860a7;}.cls-17{fill:#175ea3;}.cls-18{fill:#175b9f;}.cls-19{fill:#16599b;}.cls-20{fill:#155797;}.cls-21{fill:#155493;}.cls-22{clip-path:url(#clip-path-4);}.cls-23{fill:#165899;}.cls-24{fill:#0f3b66;}.cls-25{fill:#1965b0;}.cls-26{clip-path:url(#clip-path-5);}.cls-27{fill:#1862ab;}.cls-28{fill:#1965af;}.cls-29{fill:#1a67b4;}.cls-30{fill:#1a69b8;}.cls-31{fill:#1b6cbc;}.cls-32{fill:#1b6ec0;}.cls-33{fill:#1c70c4;}.cls-34{fill:#1c73c8;}.cls-35{fill:#1d75cc;}.cls-36{fill:#3886d2;}.cls-37{fill:#438cd5;}.cls-38{fill:#4c92d7;}.cls-39{fill:#5396d8;}.cls-40{fill:#5a9ada;}.cls-41{fill:#5f9edb;}.cls-42{fill:#65a1dc;}.cls-43{fill:#6aa4dd;}.cls-44{fill:#6ea7de;}.cls-45{fill:#73a9df;}.cls-46{fill:#77ace0;}.cls-47{fill:#7baee1;}.cls-48{fill:#7fb1e2;}.cls-49{fill:#82b3e3;}.cls-50{fill:#86b5e4;}.cls-51{fill:#89b7e4;}.cls-52{fill:#8db9e5;}.cls-53{clip-path:url(#clip-path-6);}.cls-54{clip-path:url(#clip-path-7);}.cls-55{clip-path:url(#clip-path-8);}.cls-56{clip-path:url(#clip-path-9);}.cls-57{clip-path:url(#clip-path-10);}.cls-58{clip-path:url(#clip-path-11);}.cls-59{clip-path:url(#clip-path-12);}</style><clipPath id="clip-path" transform="translate(0)"><path class="cls-1" d="M43.2,18.78,70.28.1a2.09,2.09,0,0,0-.61,1.36l-23.12,16A8.54,8.54,0,0,0,43.2,18.78Z"/></clipPath><clipPath id="clip-path-2" transform="translate(0)"><path class="cls-1" d="M70.89.07l32,14,74,32.37a10.88,10.88,0,0,0-6.34-.86L69.67,1.46C69.89.25,70.32-.18,70.89.07Z"/></clipPath><clipPath id="clip-path-3" transform="translate(0)"><path class="cls-1" d="M183.42,72.74,156.34,91.42c-1,.7-2.9-2.26-4.75-7.79l35.06-24.19C188.5,65,187.05,70.23,183.42,72.74Z"/></clipPath><clipPath id="clip-path-4" transform="translate(0)"><path class="cls-1" d="M155.72,91.45l-10.78-4.72L139.6,84.4l-15.88-7-10.51-4.6-10.47-4.58L97.51,66,81.76,59.09,71.2,54.47,60.54,49.8,49.76,45.09A16.54,16.54,0,0,1,41,35.25L151.59,83.63C153.12,88.18,154.66,91,155.72,91.45Z"/></clipPath><clipPath id="clip-path-5" transform="translate(0)"><path class="cls-1" d="M170.52,45.58c6-1.1,12.73,3.69,15.07,10.69L150.53,80.46c-2.34-7-3.75-15.48-3.14-18.93Z"/></clipPath><clipPath id="clip-path-6" transform="translate(0)"><path class="cls-1" d="M147.39,61.53c-.61,3.45.8,11.93,3.14,18.93L40,32.08c-2.35-7,.6-13.57,6.58-14.67Z"/></clipPath><clipPath id="clip-path-7" transform="translate(0)"><path class="cls-1" d="M4,45.8l13.54-9.34,3.92-2.71,1.33-.91,1.33-.92L26.88,30l2.8-1.93c.43-.3.91-1,1.44-1a2.09,2.09,0,0,0-.61,1.35l-23.12,16A8.54,8.54,0,0,0,4,45.8Z"/></clipPath><clipPath id="clip-path-8" transform="translate(0)"><path class="cls-1" d="M31.73,27.09c35.32,15.45,76.69,17.09,106,46.36a10.87,10.87,0,0,0-6.34-.85L30.51,28.47C30.72,27.27,31.16,26.84,31.73,27.09Z"/></clipPath><clipPath id="clip-path-9" transform="translate(0)"><path class="cls-1" d="M144.25,99.76,136,105.48l-18.79,13c-1,.7-2.9-2.26-4.75-7.79l35.06-24.19C149.34,92,147.89,97.25,144.25,99.76Z"/></clipPath><clipPath id="clip-path-10" transform="translate(0)"><path class="cls-1" d="M116.56,118.47l-10.78-4.72-5.34-2.33-10.61-4.65-10.53-4.6L63.58,95.29,58.34,93,42.6,86.11,37.33,83.8l-15.95-7L16,74.47,10.59,72.1a16.51,16.51,0,0,1-8.72-9.83l110.56,48.38C114,115.19,115.5,118,116.56,118.47Z"/></clipPath><clipPath id="clip-path-11" transform="translate(0)"><path class="cls-1" d="M108.23,88.55c-.61,3.45.8,11.92,3.14,18.93L.81,59.1c-2.35-7,.6-13.57,6.58-14.67Z"/></clipPath><clipPath id="clip-path-12" transform="translate(0)"><path class="cls-1" d="M131.36,72.6c6-1.1,12.72,3.69,15.07,10.69l-35.06,24.19c-2.34-7-3.75-15.48-3.14-18.93Z"/></clipPath></defs><title>Asset 2mdpi</title><g id="Layer_2" data-name="Layer 2"><g id="Layer_1-2" data-name="Layer 1"><g class="cls-2"><g class="cls-2"><g class="cls-3"><g class="cls-2"><path class="cls-4" d="M69.67,1.46l-23.12,16h0l23.13-16h0" transform="translate(0)"/><path class="cls-5" d="M69.67,1.45h0l-1.15.8-1.16.8-1.16.79-1.15.8-1.16.8-1.16.8L61.57,7l-1.15.79-1.16.8-1.16.8-1.15.8-1.16.8-1.16.79-1.15.8-1.16.8-1.16.8L50,15l-1.16.8-1.16.79-1.15.8-.26.05L69.7,1.31l0,.14" transform="translate(0)"/><path class="cls-6" d="M69.7,1.31,46.28,17.46l-.25.06L69.73,1.17l0,.14" transform="translate(0)"/><path class="cls-7" d="M69.73,1.17h0L68.53,2l-1.19.82-1.19.82L65,4.46l-1.18.82-1.18.81-1.18.82-1.18.81-1.18.81-1.18.81-1.18.82L55.53,11l-1.18.81-1.18.82L52,13.41l-1.18.82-1.19.82-1.19.82-1.19.82-1.2.83-.24.06L47,16.74l1.21-.83,1.21-.83,1.2-.83,1.2-.83L53,12.6l1.2-.83L55.4,11l1.19-.82,1.18-.82L59,8.49l1.19-.82,1.19-.82L62.53,6l1.2-.82,1.2-.83,1.2-.83,1.2-.83,1.21-.84L69.76,1l0,.13" transform="translate(0)"/><path class="cls-8" d="M69.76,1l-24,16.54-.28.08L69.8.9s0,.09,0,.14" transform="translate(0)"/><path class="cls-9" d="M69.8.9,45.51,17.66l-.3.1L69.85.76c0,.05,0,.1,0,.14" transform="translate(0)"/><path class="cls-10" d="M69.85.76l-24.64,17-.3.11L69.9.64a.61.61,0,0,0-.05.12" transform="translate(0)"/><path class="cls-11" d="M69.9.64l-25,17.23-.41.18L70,.47c0,.05,0,.11-.07.17" transform="translate(0)"/><path class="cls-12" d="M70,.47,44.5,18.05a3.42,3.42,0,0,0-.43.21L70.06.32,70,.47" transform="translate(0)"/><path class="cls-13" d="M70.06.32h0l-1.36.94-1.34.93L66,3.1,64.73,4l-1.3.89-1.29.89-1.27.88-1.27.87-1.27.88-1.26.87-1.27.87L54.54,11l-1.27.87L52,12.79l-1.29.89-1.29.89-1.31.91-1.33.91-1.34.93-1.36.94a7.69,7.69,0,0,0-.87.52l1.44-1,1.41-1,1.39-.95,1.37-.95L50.16,14l1.33-.92,1.32-.91,1.32-.91,1.3-.9,1.31-.9,1.3-.9,1.31-.9,1.32-.91L62,5.82l1.33-.92L64.67,4,66,3l1.39-1,1.41-1,1.44-1a.92.92,0,0,0-.22.22" transform="translate(0)"/></g></g></g><g class="cls-2"><g class="cls-14"><g class="cls-2"><path class="cls-4" d="M170.52,45.58,69.67,1.46A3.32,3.32,0,0,1,70,.53l102.62,44.9a10,10,0,0,0-2,.15" transform="translate(0)"/><path class="cls-5" d="M172.57,45.43h0l-5.17-2.26-5.16-2.26-5.14-2.25L152,36.41l-5.13-2.24-5.12-2.24-5.12-2.24-5.11-2.24-5.11-2.24L121.26,23l-5.11-2.24L111,18.51l-5.12-2.24L100.81,14l-5.13-2.24L90.56,9.54,85.42,7.3,80.27,5,75.11,2.79,70,.53A1.2,1.2,0,0,1,70.2.16l5.26,2.3,5.23,2.29L85.9,7,91.1,9.3l5.19,2.27,5.17,2.27,5.17,2.26,5.16,2.25,5.15,2.26,5.16,2.25,5.15,2.26,5.15,2.25,5.16,2.26,5.17,2.26,5.17,2.27,5.19,2.27,5.2,2.27L163.5,41l5.24,2.29,5.25,2.3a9.76,9.76,0,0,0-1.42-.14" transform="translate(0)"/><path class="cls-6" d="M174,45.57,70.2.16A.75.75,0,0,1,70.44,0L175.08,45.81a10.64,10.64,0,0,0-1.09-.24" transform="translate(0)"/><path class="cls-7" d="M175.08,45.81,70.44,0a.57.57,0,0,1,.26,0L176.15,46.15a10.22,10.22,0,0,0-1.07-.34" transform="translate(0)"/><path class="cls-8" d="M176.15,46.15,70.7,0a.7.7,0,0,1,.19.06L76.3,2.43l5.37,2.36h0L87,7.12l5.31,2.33h0l5.3,2.32,5.27,2.3h0l5.26,2.3,5.24,2.3L118.64,21l5.24,2.29,5.23,2.29,5.24,2.29,5.25,2.3,5.26,2.3,5.27,2.31,5.29,2.31h0l5.32,2.33,5.34,2.34,5.37,2.35,5.41,2.37c-.23-.11-.47-.2-.71-.29" transform="translate(0)"/></g></g></g><g class="cls-2"><g class="cls-15"><g class="cls-2"><path class="cls-16" d="M151.59,83.63l35.06-24.19c.08.25.16.5.23.74l-35,24.18c-.08-.24-.16-.48-.25-.73" transform="translate(0)"/><path class="cls-17" d="M151.84,84.36l35-24.18c.1.34.18.67.25,1L152.18,85.3c-.11-.31-.22-.62-.34-.94" transform="translate(0)"/><path class="cls-18" d="M152.18,85.3h0l2-1.38,1.92-1.33L158,81.32l1.79-1.24,1.73-1.19,1.69-1.17,1.66-1.14,1.62-1.12,1.61-1.12,1.61-1.1,1.6-1.1L172.87,71l1.62-1.12,1.66-1.14,1.69-1.17,1.73-1.19,1.79-1.23,1.85-1.28,1.92-1.33,2-1.38c.07.33.13.66.18,1l-34.8,24c-.11-.27-.22-.56-.33-.86" transform="translate(0)"/><path class="cls-19" d="M152.51,86.16l34.8-24c0,.32.08.64.1,1L152.84,87c-.11-.25-.22-.52-.33-.8" transform="translate(0)"/><path class="cls-20" d="M152.84,87l34.57-23.85c0,.31,0,.61.05.92l-34.3,23.66c-.11-.23-.21-.48-.32-.73" transform="translate(0)"/><path class="cls-21" d="M153.16,87.69,187.46,64c0,.29,0,.58,0,.87l-34,23.44c-.1-.2-.2-.42-.3-.65" transform="translate(0)"/><path class="cls-4" d="M153.46,88.34l34-23.44c0,.29,0,.57-.07.84L153.76,88.93c-.1-.19-.2-.38-.3-.59" transform="translate(0)"/><path class="cls-5" d="M153.76,88.93l33.61-23.19c0,.27-.08.54-.13.8L154,89.45c-.09-.16-.19-.34-.28-.52" transform="translate(0)"/><path class="cls-6" d="M154,89.45h0l1.88-1.29,1.8-1.25,1.75-1.21,1.69-1.16,1.65-1.14,1.61-1.11L166,81.2l1.56-1.08,1.55-1.06L170.64,78l1.54-1.06,1.54-1.07,1.56-1.07,1.58-1.09,1.61-1.11,1.65-1.14,1.69-1.17,1.75-1.21,1.81-1.24,1.87-1.3c-.05.26-.1.52-.17.77l-32.76,22.6-.27-.46" transform="translate(0)"/><path class="cls-7" d="M154.31,89.91l32.76-22.6c-.06.24-.14.48-.21.72L154.57,90.3l-.26-.39" transform="translate(0)"/><path class="cls-8" d="M154.57,90.3,186.86,68c-.08.24-.17.47-.26.69L184.82,70l-1.71,1.18-1.67,1.15-1.61,1.11-1.58,1.09-1.55,1.07-1.52,1-1.5,1-1.49,1-1.48,1-1.48,1-1.49,1-1.5,1-1.52,1-1.55,1.06L161.59,86,160,87.09l-1.66,1.15-1.71,1.18-1.78,1.22-.25-.34" transform="translate(0)"/><path class="cls-9" d="M154.82,90.64,186.6,68.72c-.1.23-.2.45-.31.67L155.07,90.93a2.49,2.49,0,0,1-.25-.29" transform="translate(0)"/><path class="cls-10" d="M155.07,90.93l31.22-21.54c-.11.22-.23.44-.36.65L155.31,91.17a2.72,2.72,0,0,1-.24-.24" transform="translate(0)"/><path class="cls-11" d="M155.31,91.17,185.93,70a6.64,6.64,0,0,1-.43.65L155.55,91.36l-.24-.19" transform="translate(0)"/><path class="cls-12" d="M155.55,91.36,185.5,70.69c-.17.24-.36.47-.55.69l-29.14,20.1a1.19,1.19,0,0,1-.26-.12" transform="translate(0)"/><path class="cls-13" d="M155.81,91.48,185,71.38a8.57,8.57,0,0,1-1.53,1.36l-1.44,1-1.41,1-1.39,1-1.37,1-1.35.93-1.33.92-1.32.91-1.32.91-1.31.9-1.3.9-1.31.9-1.3.9-1.32.91-1.32.91-1.34.92-1.34.93-1.37,1-1.39,1-1.41,1-1.44,1a.55.55,0,0,1-.53.06" transform="translate(0)"/></g></g></g><g class="cls-2"><g class="cls-22"><g class="cls-2"><path class="cls-13" d="M41,35.25,151.59,83.63c1.53,4.55,3.07,7.36,4.13,7.82l-5.4-2.36-5.38-2.36L139.6,84.4l-5.32-2.33-10.56-4.62-10.51-4.6-10.47-4.58h0L97.51,66l-5.24-2.29-10.51-4.6L71.2,54.47,60.54,49.8,49.76,45.09A16.54,16.54,0,0,1,41,35.25" transform="translate(0)"/></g></g></g><ellipse class="cls-23" cx="108.53" cy="31.5" rx="16.73" ry="78.57" transform="translate(38.81 120.43) rotate(-68.09)"/><polygon class="cls-24" points="150.53 80.46 151.59 83.63 41.03 35.25 39.97 32.08 150.53 80.46"/><polygon class="cls-25" points="185.59 56.27 186.65 59.44 151.59 83.63 150.53 80.46 185.59 56.27"/><g class="cls-2"><g class="cls-26"><g class="cls-2"><path class="cls-4" d="M147.39,61.53l23.13-16,.22,0L147.37,61.66a.51.51,0,0,0,0-.13" transform="translate(0)"/><path class="cls-21" d="M147.37,61.66l23.37-16.12.23,0-23.62,16.3a.77.77,0,0,0,0-.15" transform="translate(0)"/><path class="cls-20" d="M147.35,61.81,171,45.51l.24,0L147.33,62a.78.78,0,0,0,0-.14" transform="translate(0)"/><path class="cls-19" d="M147.33,62l23.88-16.47.24,0L147.32,62.11c0-.06,0-.11,0-.16" transform="translate(0)"/><path class="cls-18" d="M147.32,62.11l24.13-16.65.24,0L147.3,62.27c0-.06,0-.11,0-.16" transform="translate(0)"/><path class="cls-17" d="M147.3,62.27l24.39-16.83h.25l-24.65,17c0-.06,0-.12,0-.17" transform="translate(0)"/><path class="cls-16" d="M147.29,62.44l24.65-17h.25L147.28,62.61a.91.91,0,0,1,0-.17" transform="translate(0)"/><path class="cls-27" d="M147.28,62.61l24.91-17.19h.25L147.27,62.79a1.09,1.09,0,0,1,0-.18" transform="translate(0)"/><path class="cls-28" d="M147.27,62.79l25.17-17.36h.26L147.26,63a1.28,1.28,0,0,1,0-.19" transform="translate(0)"/><path class="cls-29" d="M147.26,63,172.7,45.43l.26,0L147.25,63.18a1.34,1.34,0,0,0,0-.2" transform="translate(0)"/><path class="cls-30" d="M147.25,63.18,173,45.45l.26,0-26,17.91v-.2" transform="translate(0)"/><path class="cls-31" d="M147.25,63.38l26-17.91.21,0L147.25,63.56v-.18" transform="translate(0)"/><path class="cls-32" d="M147.25,63.56l26.18-18.07.22,0-26.4,18.21v-.17" transform="translate(0)"/><path class="cls-33" d="M147.25,63.73l26.4-18.21.21,0L147.25,63.9v-.17" transform="translate(0)"/><path class="cls-34" d="M147.25,63.9l26.61-18.35.21,0-26.81,18.5a1.09,1.09,0,0,0,0-.18" transform="translate(0)"/><path class="cls-35" d="M147.26,64.08l26.81-18.5.18,0-27,18.61v-.15" transform="translate(0)"/><path class="cls-36" d="M147.26,64.23l27-18.61.15,0L147.27,64.37v-.14" transform="translate(0)"/><path class="cls-37" d="M147.27,64.37,174.4,45.65l.16,0L147.27,64.5v-.13" transform="translate(0)"/><path class="cls-38" d="M147.27,64.5l27.29-18.82.15,0L147.28,64.64V64.5" transform="translate(0)"/><path class="cls-39" d="M147.28,64.64l27.43-18.93.15,0-27.57,19v-.14" transform="translate(0)"/><path class="cls-40" d="M147.29,64.78l27.57-19,.16,0L147.29,64.92v-.14" transform="translate(0)"/><path class="cls-41" d="M147.29,64.92,175,45.79l.14,0L147.3,65.05v-.13" transform="translate(0)"/><path class="cls-42" d="M147.3,65.05l27.86-19.22.15,0-28,19.32v-.14" transform="translate(0)"/><path class="cls-43" d="M147.31,65.19l28-19.32.14,0L147.32,65.32v-.13" transform="translate(0)"/><path class="cls-44" d="M147.32,65.32l28.13-19.41.15.05-28.27,19.5v-.14" transform="translate(0)"/><path class="cls-45" d="M147.33,65.46,175.6,46l.14,0L147.34,65.6v-.14" transform="translate(0)"/><path class="cls-46" d="M147.34,65.6,175.74,46l.15,0L147.35,65.74V65.6" transform="translate(0)"/><path class="cls-47" d="M147.35,65.74l28.54-19.69.17.07-28.69,19.8c0-.06,0-.12,0-.18" transform="translate(0)"/><path class="cls-48" d="M147.37,65.92l28.69-19.8.22.08L147.39,66.13a1.49,1.49,0,0,1,0-.21" transform="translate(0)"/><path class="cls-49" d="M147.39,66.13,176.28,46.2l.21.08L147.41,66.35a1.8,1.8,0,0,1,0-.22" transform="translate(0)"/><path class="cls-50" d="M147.41,66.35l29.08-20.07.21.09L147.43,66.56a1.49,1.49,0,0,1,0-.21" transform="translate(0)"/><path class="cls-51" d="M147.43,66.56,176.7,46.37l.43.18L147.48,67c0-.15,0-.3,0-.45" transform="translate(0)"/><path class="cls-52" d="M147.48,67l29.65-20.46c.3.14.6.3.89.46L147.6,68q-.06-.51-.12-1" transform="translate(0)"/><path class="cls-51" d="M147.6,68,178,47c.16.09.31.17.46.27l-30.8,21.25c0-.18-.05-.36-.08-.53" transform="translate(0)"/><path class="cls-50" d="M147.68,68.53l30.8-21.25.3.18L147.73,68.88c0-.12,0-.23,0-.35" transform="translate(0)"/><path class="cls-49" d="M147.73,68.88l31.05-21.42.25.16L147.78,69.18c0-.1,0-.2-.05-.3" transform="translate(0)"/><path class="cls-48" d="M147.78,69.18,179,47.62l.24.17L147.82,69.48c0-.1,0-.2,0-.3" transform="translate(0)"/><path class="cls-47" d="M147.82,69.48l31.45-21.69a1.88,1.88,0,0,1,.23.16L147.87,69.77a2.93,2.93,0,0,0-.05-.29" transform="translate(0)"/><path class="cls-46" d="M147.87,69.77,179.5,48l.22.16-31.8,21.94c0-.09,0-.19,0-.28" transform="translate(0)"/><path class="cls-45" d="M147.92,70.05l31.8-21.94.21.16L148,70.33c0-.1,0-.19-.05-.28" transform="translate(0)"/><path class="cls-44" d="M148,70.33l32-22.06.22.17L148,70.61c0-.1,0-.19-.05-.28" transform="translate(0)"/><path class="cls-43" d="M148,70.61l32.13-22.17.22.18L148.07,70.9c0-.1,0-.2,0-.29" transform="translate(0)"/><path class="cls-42" d="M148.07,70.9l32.3-22.28.22.19L148.13,71.2l-.06-.3" transform="translate(0)"/><path class="cls-41" d="M148.13,71.2l32.46-22.39.22.19L148.19,71.51l-.06-.31" transform="translate(0)"/><path class="cls-40" d="M148.19,71.51,180.81,49l.22.2L148.25,71.82l-.06-.31" transform="translate(0)"/><path class="cls-39" d="M148.25,71.82,181,49.2l.26.24-33,22.74c0-.12,0-.24-.07-.36" transform="translate(0)"/><path class="cls-38" d="M148.32,72.18l33-22.74c.08.08.16.17.25.25L148.4,72.55c0-.12-.05-.24-.08-.37" transform="translate(0)"/><path class="cls-37" d="M148.4,72.55l33.14-22.86.25.26-33.31,23c0-.12,0-.25-.08-.38" transform="translate(0)"/><path class="cls-36" d="M148.48,72.93l33.31-23,.3.32L148.58,73.39c0-.15-.07-.3-.1-.46" transform="translate(0)"/><path class="cls-35" d="M148.58,73.39l33.51-23.12.29.34L148.69,73.85c0-.15-.07-.31-.11-.46" transform="translate(0)"/><path class="cls-34" d="M148.69,73.85l33.69-23.24.34.4L148.81,74.4l-.12-.55" transform="translate(0)"/><path class="cls-33" d="M148.81,74.4,182.72,51l.34.44L149,75c0-.19-.09-.39-.14-.58" transform="translate(0)"/><path class="cls-32" d="M149,75l34.11-23.53.39.54L149.13,75.67,149,75" transform="translate(0)"/><path class="cls-31" d="M149.13,75.67,183.45,52c.14.2.27.41.4.61L149.32,76.42c-.06-.25-.13-.5-.19-.75" transform="translate(0)"/><path class="cls-30" d="M149.32,76.42,183.85,52.6c.15.24.29.47.42.71l-34.72,24c-.08-.28-.15-.56-.23-.84" transform="translate(0)"/><path class="cls-29" d="M149.55,77.26l34.72-24c.15.27.3.54.44.82L149.82,78.2l-.27-.94" transform="translate(0)"/><path class="cls-28" d="M149.82,78.2l34.89-24.07c.14.3.28.6.41.9l-35,24.15-.3-1" transform="translate(0)"/><path class="cls-27" d="M150.12,79.18l35-24.15c.14.32.26.65.38,1L150.44,80.19c-.11-.33-.21-.67-.32-1" transform="translate(0)"/><path class="cls-16" d="M150.44,80.19,185.5,56l.09.26L150.53,80.46l-.09-.27" transform="translate(0)"/></g></g></g><g class="cls-2"><g class="cls-53"><g class="cls-2"><path class="cls-4" d="M46.55,17.41,147.39,61.53v0L46.48,17.42h.07" transform="translate(0)"/><path class="cls-5" d="M46.48,17.42,147.39,61.58a6.93,6.93,0,0,0-.09.73L45.37,17.71a9,9,0,0,1,1.11-.29" transform="translate(0)"/><path class="cls-6" d="M45.37,17.71,147.3,62.31c0,.19,0,.4,0,.61L44.6,18c.25-.11.5-.2.77-.29" transform="translate(0)"/><path class="cls-7" d="M44.6,18,147.26,62.92c0,.2,0,.4,0,.61L43.94,18.33A6.77,6.77,0,0,1,44.6,18" transform="translate(0)"/><path class="cls-8" d="M43.94,18.33l103.31,45.2c0,.22,0,.44,0,.66L43.31,18.71a6.58,6.58,0,0,1,.63-.38" transform="translate(0)"/><path class="cls-9" d="M43.31,18.71l104,45.48c0,.25,0,.5,0,.77L42.67,19.18c.21-.17.42-.32.64-.47" transform="translate(0)"/><path class="cls-10" d="M42.67,19.18,147.3,65c0,.31,0,.63.07,1L42,19.8a8,8,0,0,1,.69-.62" transform="translate(0)"/><path class="cls-11" d="M42,19.8,147.37,65.92c0,.42.08.85.13,1.3L41.2,20.71A9.61,9.61,0,0,1,42,19.8" transform="translate(0)"/><path class="cls-12" d="M41.2,20.71,147.5,67.22c.08.65.18,1.33.29,2l-107.51-47a10.85,10.85,0,0,1,.92-1.51" transform="translate(0)"/><path class="cls-13" d="M40.28,22.22l107.51,47a72.27,72.27,0,0,0,2.74,11.21L40,32.08a13.06,13.06,0,0,1,.31-9.86" transform="translate(0)"/></g></g></g></g><g class="cls-2"><g class="cls-2"><g class="cls-54"><g class="cls-2"><path class="cls-4" d="M30.51,28.47l-23.12,16h0l23.14-16h0" transform="translate(0)"/><path class="cls-5" d="M30.51,28.47l-23.14,16-.25,0L30.54,28.32l0,.15" transform="translate(0)"/><path class="cls-6" d="M30.54,28.32,7.12,44.48l-.25.06,23.7-16.35,0,.13" transform="translate(0)"/><path class="cls-7" d="M30.57,28.19,6.87,44.54l-.25.06h0l1.22-.84,1.21-.83,1.21-.84,1.2-.82,1.2-.83,1.19-.83,1.2-.82L16.24,38l1.18-.82,1.19-.82,1.19-.82L21,34.69l1.19-.82,1.19-.82,1.2-.83,1.19-.82L27,30.57l1.2-.83,1.21-.84,1.22-.84,0,.13" transform="translate(0)"/><path class="cls-8" d="M30.6,28.06,6.62,44.6l-.27.08L30.64,27.92s0,.09,0,.14" transform="translate(0)"/><path class="cls-9" d="M30.64,27.92,6.35,44.68l-.31.1,24.65-17a.78.78,0,0,0-.05.14" transform="translate(0)"/><path class="cls-10" d="M30.69,27.78,6,44.78l-.29.11,25-17.24,0,.13" transform="translate(0)"/><path class="cls-11" d="M30.73,27.65l-25,17.24c-.14.06-.28.11-.41.18L30.81,27.49c0,.05,0,.11-.08.16" transform="translate(0)"/><path class="cls-12" d="M30.81,27.49,5.34,45.07l-.43.2,26-17.93-.09.15" transform="translate(0)"/><path class="cls-13" d="M30.9,27.34l-26,17.93A9.61,9.61,0,0,0,4,45.8l1.44-1,1.41-1,1.39-.95,1.36-1L11,41l1.34-.92h0l1.32-.91L15,38.26l1.3-.9,1.31-.9,1.3-.9,1.31-.9,1.31-.91,1.33-.91,1.33-.92L25.51,31,26.88,30l1.39-.95,1.41-1,1.44-1h0a.92.92,0,0,0-.22.22" transform="translate(0)"/></g></g></g><g class="cls-2"><g class="cls-55"><g class="cls-2"><path class="cls-4" d="M131.36,72.6,30.51,28.47a3.87,3.87,0,0,1,.27-.93L133.41,72.45a9.35,9.35,0,0,0-2,.15" transform="translate(0)"/><path class="cls-5" d="M133.41,72.45h0l-5.17-2.26-5.16-2.26-5.15-2.25-5.13-2.25-5.13-2.25-5.12-2.24L97.43,56.7l-5.11-2.23L87.2,52.23,82.1,50,77,47.76l-5.11-2.24-5.12-2.23-5.11-2.24-5.13-2.24-5.13-2.25-5.13-2.25-5.15-2.25L36,29.81l-5.17-2.27a1.34,1.34,0,0,1,.26-.36L134.83,72.59a9.89,9.89,0,0,0-1.42-.14" transform="translate(0)"/><path class="cls-6" d="M134.83,72.59,31,27.18a.6.6,0,0,1,.24-.14L135.92,72.83a10.64,10.64,0,0,0-1.09-.24" transform="translate(0)"/><path class="cls-7" d="M135.92,72.83,31.28,27a.57.57,0,0,1,.26,0L137,73.17a11,11,0,0,0-1.07-.34" transform="translate(0)"/><path class="cls-8" d="M137,73.17,31.54,27a.7.7,0,0,1,.19.06l5.41,2.36,5.37,2.35h0l5.35,2.34,5.31,2.33h0l5.29,2.31,5.28,2.31L69,43.39l5.24,2.3L79.48,48l5.24,2.29L90,52.56l5.24,2.29,5.25,2.3,5.25,2.3L111,61.76l5.29,2.31,5.32,2.33,5.34,2.34,5.37,2.35,5.41,2.36h0c-.24-.1-.47-.2-.71-.28" transform="translate(0)"/></g></g></g><g class="cls-2"><g class="cls-56"><g class="cls-2"><path class="cls-16" d="M112.43,110.65l35.06-24.19c.08.25.16.5.23.74l-35,24.18-.25-.73" transform="translate(0)"/><path class="cls-17" d="M112.68,111.38l35-24.18c.09.34.18.67.25,1h0l-2,1.38-1.92,1.33-1.85,1.27-1.79,1.24-1.73,1.19L137,95.78l-1.66,1.14L133.7,98l-1.61,1.11-1.6,1.11-1.6,1.1-1.61,1.11-1.63,1.13L124,104.74l-1.69,1.16-1.73,1.2-1.79,1.23-1.85,1.28L115,110.93l-2,1.38c-.11-.3-.23-.61-.34-.93" transform="translate(0)"/><path class="cls-18" d="M113,112.31,148,88.2c.07.33.13.66.17,1l-34.79,24q-.16-.42-.33-.87" transform="translate(0)"/><path class="cls-19" d="M113.35,113.18l34.79-24c.05.32.09.64.11.95L113.68,114c-.11-.25-.22-.52-.33-.8" transform="translate(0)"/><path class="cls-20" d="M113.68,114l34.57-23.85c0,.31,0,.61,0,.91L114,114.71c-.1-.23-.21-.48-.31-.73" transform="translate(0)"/><path class="cls-21" d="M114,114.71h0l2-1.35,1.88-1.3,1.81-1.25,1.75-1.2,1.7-1.18,1.66-1.14,1.63-1.13,1.6-1.1,1.59-1.1,1.57-1.08,1.58-1.09,1.59-1.09,1.6-1.11,1.62-1.12,1.66-1.15,1.71-1.17,1.75-1.21,1.81-1.25,1.88-1.3L148.29,91c0,.3,0,.59,0,.88l-34,23.44-.31-.65" transform="translate(0)"/><path class="cls-4" d="M114.3,115.36l34-23.44c0,.29,0,.57-.08.84L114.6,116c-.1-.19-.2-.38-.3-.59" transform="translate(0)"/><path class="cls-5" d="M114.6,116l33.6-23.19c0,.27-.07.54-.12.8l-1.88,1.3-1.8,1.24-1.75,1.21L141,98.48l-1.65,1.13-1.61,1.12-1.58,1.09-1.56,1.07L133,104,131.48,105l-1.54,1-1.54,1.07-1.56,1.07-1.58,1.09-1.61,1.12L122,111.55l-1.69,1.17-1.75,1.21-1.81,1.24-1.87,1.3c-.1-.17-.19-.34-.28-.52" transform="translate(0)"/><path class="cls-6" d="M114.88,116.47l33.2-22.91c-.05.26-.11.51-.17.76l-1.85,1.28-1.77,1.22L142.56,98l-1.67,1.15-1.62,1.13-1.59,1.09-1.57,1.08-1.54,1.06-1.52,1.06-1.52,1-1.52,1-1.53,1.06-1.54,1.06-1.56,1.08L123.79,111l-1.63,1.13-1.67,1.15-1.72,1.19L117,115.65l-1.84,1.28-.27-.46" transform="translate(0)"/><path class="cls-7" d="M115.15,116.93l32.76-22.61c-.07.25-.14.49-.22.73l-32.28,22.27c-.09-.12-.17-.25-.26-.39" transform="translate(0)"/><path class="cls-8" d="M115.41,117.32l32.28-22.27c-.08.23-.16.47-.26.69l-31.77,21.92c-.08-.1-.17-.22-.25-.34" transform="translate(0)"/><path class="cls-9" d="M115.66,117.66l31.77-21.92c-.09.23-.19.45-.3.67L115.9,118a3.7,3.7,0,0,1-.24-.29" transform="translate(0)"/><path class="cls-10" d="M115.9,118l31.23-21.54c-.11.22-.23.44-.36.65l-30.63,21.13-.24-.24" transform="translate(0)"/><path class="cls-11" d="M116.14,118.19l30.63-21.13c-.13.22-.28.44-.43.65l-29.95,20.66-.25-.18" transform="translate(0)"/><path class="cls-12" d="M116.39,118.37l30-20.66a7.34,7.34,0,0,1-.56.69l-29.13,20.1a.79.79,0,0,1-.26-.13" transform="translate(0)"/><path class="cls-13" d="M116.65,118.5l29.13-20.1a8.28,8.28,0,0,1-1.53,1.36l-1.43,1-1.42,1-1.38,1-1.37.94-1.35.94-1.33.92h0l-1.33.91-1.31.91-1.31.9-1.3.9-1.31.9-1.31.9-1.31.91-1.32.91-1.34.92-1.35.93-1.36.94-1.39,1-1.41,1-1.44,1a.55.55,0,0,1-.53.06" transform="translate(0)"/></g></g></g><g class="cls-2"><g class="cls-57"><g class="cls-2"><path class="cls-13" d="M1.87,62.27l110.56,48.38c1.52,4.54,3.07,7.35,4.13,7.82l-5.4-2.37-5.38-2.35-5.34-2.33-5.32-2.33-5.29-2.32-5.27-2.3-5.26-2.3-5.25-2.3L63.58,95.29h0L58.34,93,53.1,90.7,42.6,86.11h0L37.33,83.8,32,81.48,21.38,76.82h0L16,74.47,10.59,72.1a16.51,16.51,0,0,1-8.72-9.83" transform="translate(0)"/></g></g></g><ellipse class="cls-23" cx="69.37" cy="58.51" rx="16.73" ry="78.57" transform="translate(-10.8 101.03) rotate(-68.09)"/><polygon class="cls-24" points="111.37 107.48 112.43 110.65 1.87 62.27 0.81 59.1 111.37 107.48"/><polygon class="cls-25" points="146.43 83.29 147.49 86.46 112.43 110.65 111.37 107.48 146.43 83.29"/><g class="cls-2"><g class="cls-58"><g class="cls-2"><path class="cls-4" d="M7.39,44.43,108.23,88.55v0L7.32,44.44h.07" transform="translate(0)"/><path class="cls-5" d="M7.32,44.44,108.23,88.59c0,.23-.07.47-.09.74L6.21,44.73a7.51,7.51,0,0,1,1.11-.29" transform="translate(0)"/><path class="cls-6" d="M6.21,44.73l101.93,44.6c0,.19,0,.4,0,.61L5.44,45a6.43,6.43,0,0,1,.77-.29" transform="translate(0)"/><path class="cls-7" d="M5.44,45,108.1,89.94c0,.2,0,.4,0,.61L4.77,45.35c.22-.12.44-.23.67-.33" transform="translate(0)"/><path class="cls-8" d="M4.77,45.35l103.32,45.2c0,.21,0,.43,0,.66L4.15,45.73a5.73,5.73,0,0,1,.62-.38" transform="translate(0)"/><path class="cls-9" d="M4.15,45.73l104,45.48,0,.76L3.51,46.2a5.84,5.84,0,0,1,.64-.47" transform="translate(0)"/><path class="cls-10" d="M3.51,46.2,108.13,92c0,.31.05.63.08,1L2.82,46.82a8,8,0,0,1,.69-.62" transform="translate(0)"/><path class="cls-11" d="M2.82,46.82,108.21,92.93c0,.42.08.86.13,1.31L2,47.73a9.61,9.61,0,0,1,.78-.91" transform="translate(0)"/><path class="cls-12" d="M2,47.73l106.3,46.51c.08.65.18,1.33.29,2L1.12,49.24A9.5,9.5,0,0,1,2,47.73" transform="translate(0)"/><path class="cls-13" d="M1.12,49.24l107.51,47a72.55,72.55,0,0,0,2.74,11.21L.81,59.1a13.06,13.06,0,0,1,.31-9.86" transform="translate(0)"/></g></g></g><g class="cls-2"><g class="cls-59"><g class="cls-2"><path class="cls-4" d="M108.23,88.55l23.13-16,.22,0L108.21,88.68a.59.59,0,0,0,0-.13" transform="translate(0)"/><path class="cls-21" d="M108.21,88.68l23.37-16.12.23,0L108.19,88.82s0-.09,0-.14" transform="translate(0)"/><path class="cls-20" d="M108.19,88.82l23.62-16.29.24,0L108.17,89s0-.1,0-.15" transform="translate(0)"/><path class="cls-19" d="M108.17,89,132.05,72.5l.23,0L108.15,89.12a.77.77,0,0,0,0-.15" transform="translate(0)"/><path class="cls-18" d="M108.15,89.12l24.13-16.64.25,0L108.14,89.29c0-.06,0-.11,0-.17" transform="translate(0)"/><path class="cls-17" d="M108.14,89.29l24.39-16.83h.25l-24.65,17a.91.91,0,0,1,0-.17" transform="translate(0)"/><path class="cls-16" d="M108.13,89.46l24.65-17H133L108.11,89.63c0-.06,0-.12,0-.17" transform="translate(0)"/><path class="cls-27" d="M108.11,89.63,133,72.44h.26L108.1,89.81a1.09,1.09,0,0,0,0-.18" transform="translate(0)"/><path class="cls-28" d="M108.1,89.81l25.18-17.37h.26L108.1,90v-.19" transform="translate(0)"/><path class="cls-29" d="M108.1,90l25.44-17.55.26,0L108.09,90.2c0-.07,0-.13,0-.2" transform="translate(0)"/><path class="cls-30" d="M108.09,90.2,133.8,72.47l.26,0-26,17.91v-.2" transform="translate(0)"/><path class="cls-31" d="M108.09,90.4l26-17.91.21,0L108.09,90.57V90.4" transform="translate(0)"/><path class="cls-32" d="M108.09,90.57l26.18-18.06.21,0L108.09,90.75v-.18" transform="translate(0)"/><path class="cls-33" d="M108.09,90.75l26.39-18.21.22,0L108.09,90.92v-.17" transform="translate(0)"/><path class="cls-34" d="M108.09,90.92,134.7,72.57l.21,0L108.1,91.1c0-.06,0-.12,0-.18" transform="translate(0)"/><path class="cls-35" d="M108.1,91.1l26.81-18.5.17,0-27,18.62V91.1" transform="translate(0)"/><path class="cls-36" d="M108.1,91.25l27-18.62.16,0L108.11,91.38v-.13" transform="translate(0)"/><path class="cls-37" d="M108.11,91.38l27.13-18.72.15,0L108.11,91.52v-.14" transform="translate(0)"/><path class="cls-38" d="M108.11,91.52,135.39,72.7l.16,0L108.12,91.66v-.14" transform="translate(0)"/><path class="cls-39" d="M108.12,91.66l27.43-18.93.15,0-27.58,19v-.13" transform="translate(0)"/><path class="cls-40" d="M108.12,91.79l27.58-19,.15,0L108.13,91.93v-.14" transform="translate(0)"/><path class="cls-41" d="M108.13,91.93l27.72-19.12.15,0L108.14,92.07v-.14" transform="translate(0)"/><path class="cls-42" d="M108.14,92.07,136,72.85l.15,0-28,19.32v-.14" transform="translate(0)"/><path class="cls-43" d="M108.15,92.21l28-19.32.14,0L108.16,92.34v-.13" transform="translate(0)"/><path class="cls-44" d="M108.16,92.34l28.13-19.41.15,0-28.27,19.5v-.14" transform="translate(0)"/><path class="cls-45" d="M108.17,92.48,136.44,73l.14,0-28.4,19.6v-.14" transform="translate(0)"/><path class="cls-46" d="M108.18,92.62,136.58,73l.15,0L108.19,92.76v-.14" transform="translate(0)"/><path class="cls-47" d="M108.19,92.76l28.54-19.69.17.07L108.21,92.93c0-.05,0-.11,0-.17" transform="translate(0)"/><path class="cls-48" d="M108.21,92.93,136.9,73.14l.22.07L108.23,93.15a1.64,1.64,0,0,1,0-.22" transform="translate(0)"/><path class="cls-49" d="M108.23,93.15l28.89-19.94.21.09L108.25,93.36a1.49,1.49,0,0,1,0-.21" transform="translate(0)"/><path class="cls-50" d="M108.25,93.36,137.33,73.3l.21.09L108.27,93.58a1.5,1.5,0,0,1,0-.22" transform="translate(0)"/><path class="cls-51" d="M108.27,93.58l29.27-20.19.43.18L108.32,94c0-.15,0-.3,0-.45" transform="translate(0)"/><path class="cls-52" d="M108.32,94,138,73.57c.3.14.6.29.89.46L108.44,95c0-.34-.09-.67-.12-1" transform="translate(0)"/><path class="cls-51" d="M108.44,95l30.42-21c.16.08.31.17.46.26l-30.8,21.26c0-.18,0-.36-.08-.53" transform="translate(0)"/><path class="cls-50" d="M108.52,95.55l30.8-21.26.3.19L108.57,95.9c0-.12,0-.24,0-.35" transform="translate(0)"/><path class="cls-49" d="M108.57,95.9l31.05-21.42.24.16L108.61,96.2c0-.1,0-.2,0-.3" transform="translate(0)"/><path class="cls-48" d="M108.61,96.2l31.25-21.56.25.16L108.66,96.5c0-.1,0-.2,0-.3" transform="translate(0)"/><path class="cls-47" d="M108.66,96.5l31.45-21.7.23.17L108.71,96.79c0-.1,0-.2,0-.29" transform="translate(0)"/><path class="cls-46" d="M108.71,96.79,140.34,75l.22.16-31.8,21.94c0-.1,0-.19-.05-.28" transform="translate(0)"/><path class="cls-45" d="M108.76,97.07l31.8-21.94.21.16-32,22a2.56,2.56,0,0,1,0-.27" transform="translate(0)"/><path class="cls-44" d="M108.81,97.34l32-22,.22.17L108.86,97.62a2.33,2.33,0,0,1,0-.28" transform="translate(0)"/><path class="cls-43" d="M108.86,97.62,141,75.46l.22.18-32.3,22.28c0-.1,0-.2,0-.3" transform="translate(0)"/><path class="cls-42" d="M108.91,97.92l32.3-22.28.22.18L109,98.22l-.06-.3" transform="translate(0)"/><path class="cls-41" d="M109,98.22l32.46-22.4.22.2L109,98.52l-.06-.3" transform="translate(0)"/><path class="cls-40" d="M109,98.52,141.65,76l.22.2L109.09,98.84l-.06-.32" transform="translate(0)"/><path class="cls-39" d="M109.09,98.84l32.78-22.62.25.24-33,22.74c0-.12,0-.24-.07-.36" transform="translate(0)"/><path class="cls-38" d="M109.16,99.2l33-22.74.25.25L109.24,99.57c0-.12,0-.25-.08-.37" transform="translate(0)"/><path class="cls-37" d="M109.24,99.57l33.13-22.86.26.26-33.31,23c0-.13-.06-.25-.08-.38" transform="translate(0)"/><path class="cls-36" d="M109.32,100l33.31-23,.3.32-33.51,23.12c0-.15-.07-.31-.1-.46" transform="translate(0)"/><path class="cls-35" d="M109.42,100.41l33.51-23.12.29.33-33.7,23.25c0-.15-.07-.31-.1-.46" transform="translate(0)"/><path class="cls-34" d="M109.52,100.87l33.7-23.25.33.41-33.9,23.39c0-.18-.08-.37-.13-.55" transform="translate(0)"/><path class="cls-33" d="M109.65,101.42,143.55,78c.12.14.23.29.34.44L109.79,102c-.05-.2-.09-.39-.14-.58" transform="translate(0)"/><path class="cls-32" d="M109.79,102l34.1-23.53.4.54L110,102.69l-.18-.69" transform="translate(0)"/><path class="cls-31" d="M110,102.69,144.29,79l.4.61-34.53,23.82c-.06-.25-.13-.5-.19-.75" transform="translate(0)"/><path class="cls-30" d="M110.16,103.44l34.53-23.82.42.71-34.72,24c-.08-.28-.15-.56-.23-.84" transform="translate(0)"/><path class="cls-29" d="M110.39,104.28l34.72-24c.15.27.3.54.43.82l-34.88,24.06-.27-.93" transform="translate(0)"/><path class="cls-28" d="M110.66,105.21l34.88-24.06c.15.29.29.6.42.9L111,106.2l-.3-1" transform="translate(0)"/><path class="cls-27" d="M111,106.2l35-24.15c.13.32.26.65.38,1l-35.06,24.19c-.11-.33-.22-.67-.32-1" transform="translate(0)"/><path class="cls-16" d="M111.28,107.21,146.34,83l.09.27-35.06,24.19-.09-.27" transform="translate(0)"/></g></g></g></g></g></g></svg>