<svg xmlns="http://www.w3.org/2000/svg" xmlns:xlink="http://www.w3.org/1999/xlink" viewBox="0 0 167 125.12"><defs><style>.cls-1{fill:none;}.cls-2{isolation:isolate;}.cls-3{clip-path:url(#clip-path);}.cls-4{fill:#14528f;}.cls-5{fill:#14508b;}.cls-6{fill:#134d87;}.cls-7{fill:#134b83;}.cls-8{fill:#12497e;}.cls-9{fill:#11467a;}.cls-10{fill:#114476;}.cls-11{fill:#104272;}.cls-12{fill:#103f6e;}.cls-13{fill:#0f3d6a;}.cls-14{clip-path:url(#clip-path-2);}.cls-15{clip-path:url(#clip-path-3);}.cls-16{clip-path:url(#clip-path-4);}.cls-17{clip-path:url(#clip-path-5);}.cls-18{fill:#0f3b66;}.cls-19{clip-path:url(#clip-path-6);}.cls-20{clip-path:url(#clip-path-7);}.cls-21{fill:#1860a7;}.cls-22{fill:#175ea3;}.cls-23{fill:#175b9f;}.cls-24{fill:#16599b;}.cls-25{fill:#155797;}.cls-26{fill:#155493;}.cls-27{fill:#1965b0;}.cls-28{clip-path:url(#clip-path-8);}.cls-29{fill:#1862ab;}.cls-30{fill:#1965af;}.cls-31{fill:#1a67b4;}.cls-32{fill:#1a69b8;}.cls-33{fill:#1b6cbc;}.cls-34{fill:#1b6ec0;}.cls-35{fill:#1c70c4;}.cls-36{fill:#1c73c8;}.cls-37{fill:#1d75cc;}.cls-38{fill:#3886d2;}.cls-39{fill:#438cd5;}.cls-40{fill:#4c92d7;}.cls-41{fill:#5396d8;}.cls-42{fill:#5a9ada;}.cls-43{fill:#5f9edb;}.cls-44{fill:#65a1dc;}.cls-45{fill:#6aa4dd;}.cls-46{fill:#6ea7de;}.cls-47{fill:#73a9df;}.cls-48{fill:#77ace0;}.cls-49{fill:#7baee1;}.cls-50{fill:#7fb1e2;}.cls-51{fill:#82b3e3;}.cls-52{fill:#86b5e4;}.cls-53{fill:#89b7e4;}.cls-54{fill:#8db9e5;}.cls-55{clip-path:url(#clip-path-9);}.cls-56{clip-path:url(#clip-path-10);}.cls-57{clip-path:url(#clip-path-11);}.cls-58{clip-path:url(#clip-path-12);}.cls-59{clip-path:url(#clip-path-13);}.cls-60{clip-path:url(#clip-path-14);}.cls-61{clip-path:url(#clip-path-15);}.cls-62{clip-path:url(#clip-path-16);}.cls-63{fill:#165899;}.cls-64{clip-path:url(#clip-path-17);}.cls-65{clip-path:url(#clip-path-18);}</style><clipPath id="clip-path" transform="translate(0)"><path class="cls-1" d="M13.39,35.58,40.47,16.9a2,2,0,0,0-.6,1.35l-23.13,16A8.69,8.69,0,0,0,13.39,35.58Z"/></clipPath><clipPath id="clip-path-2" transform="translate(0)"><path class="cls-1" d="M132.45.07,146.7,6.3l5.88,2.58,1.24.54a15.43,15.43,0,0,0,2.58,1.13,10.87,10.87,0,0,0-6.34-.85L131.22,1.46C131.44.25,131.87-.18,132.45.07Z"/></clipPath><clipPath id="clip-path-3" transform="translate(0)"><path class="cls-1" d="M41.09,16.87l18.24,8,2.11.92,4.1,1.8,5.86,2.56,3.72,1.63,3.56,1.56,1.73.75c.5.22,1.13.74,1.68.74-.57-.25-1,.18-1.22,1.39l-41-18C40.08,17.05,40.51,16.62,41.09,16.87Z"/></clipPath><clipPath id="clip-path-4" transform="translate(0)"><path class="cls-1" d="M81.48,34.84,131.83.1a2.09,2.09,0,0,0-.61,1.36L80.87,36.2A2.09,2.09,0,0,1,81.48,34.84Z"/></clipPath><clipPath id="clip-path-5" transform="translate(0)"><path class="cls-1" d="M61,79.83l-3.41-1.49-1.76-.77L52.14,76l-1.88-.82-3.87-1.69-2-.87-6.21-2.72L33.86,68l-4.49-2-4.64-2-4.79-2.1a16.53,16.53,0,0,1-8.72-9.84L52.22,70A16.54,16.54,0,0,0,61,79.83Z"/></clipPath><clipPath id="clip-path-6" transform="translate(0)"><path class="cls-1" d="M57.74,52.15c-6,1.1-8.93,7.67-6.58,14.67l-41-17.94c-2.34-7,.61-13.57,6.59-14.67Z"/></clipPath><clipPath id="clip-path-7" transform="translate(0)"><path class="cls-1" d="M163,36.86,112.61,71.6c3.63-2.51,5.08-7.77,3.23-13.3l50.35-34.74C168.05,29.09,166.6,34.35,163,36.86Z"/></clipPath><clipPath id="clip-path-8" transform="translate(0)"><path class="cls-1" d="M150.06,9.7c6-1.1,12.73,3.68,15.07,10.69L114.78,55.13c-2.35-7-9.1-11.79-15.07-10.69Z"/></clipPath><clipPath id="clip-path-9" transform="translate(0)"><path class="cls-1" d="M4,88.27l11-7.61,2.68-1.85L20.39,77l34-23.45a8.55,8.55,0,0,1,3.35-1.38L7.39,86.89A8.55,8.55,0,0,0,4,88.27Z"/></clipPath><clipPath id="clip-path-10" transform="translate(0)"><path class="cls-1" d="M85.52,90.28,81,93.39,35.17,125c-1,.7-2.9-2.26-4.75-7.79L80.77,82.49C82.63,88,84.51,91,85.52,90.28Z"/></clipPath><clipPath id="clip-path-11" transform="translate(0)"><path class="cls-1" d="M34.55,125.05,32,123.92l-2.45-1.07-2.37-1-1.16-.5-2.28-1-1.14-.5-2.27-1-2.3-1-2.37-1-1.21-.53-1.25-.54-2.58-1.13a16.53,16.53,0,0,1-8.72-9.84l28.55,12.5C31.94,121.78,33.49,124.59,34.55,125.05Z"/></clipPath><clipPath id="clip-path-12" transform="translate(0)"><path class="cls-1" d="M26.22,95.13c-.61,3.45.8,11.93,3.14,18.93L.81,101.56c-2.35-7,.6-13.57,6.58-14.67Z"/></clipPath><clipPath id="clip-path-13" transform="translate(0)"><path class="cls-1" d="M76.58,60.39c-.62,3.45.79,11.93,3.13,18.93L29.36,114.06c-2.34-7-3.75-15.48-3.14-18.93Z"/></clipPath><clipPath id="clip-path-14" transform="translate(0)"><path class="cls-1" d="M106.05,45.29l41,17.94a10.91,10.91,0,0,0-6.35-.85l-41-17.94A10.87,10.87,0,0,1,106.05,45.29Z"/></clipPath><clipPath id="clip-path-15" transform="translate(0)"><path class="cls-1" d="M125.91,108.25l-4.79-2.09-2.34-1-4.56-2-4.41-1.93-2.14-.94-4.18-1.83-4-1.76-1.95-.85-3.79-1.66-3.64-1.59-1.76-.78c-1-.44-2.39-1-3.41-1.49S82.3,87,80.77,82.49l41,17.94C123.3,105,124.85,107.79,125.91,108.25Z"/></clipPath><clipPath id="clip-path-16" transform="translate(0)"><path class="cls-1" d="M153.61,89.54l-27.08,18.68c-1,.7-2.9-2.26-4.75-7.79l35.06-24.19C158.7,81.77,157.25,87,153.61,89.54Z"/></clipPath><clipPath id="clip-path-17" transform="translate(0)"><path class="cls-1" d="M117.58,78.34c-.61,3.44.79,11.92,3.14,18.92l-41-17.94c-2.34-7-3.75-15.48-3.13-18.93Z"/></clipPath><clipPath id="clip-path-18" transform="translate(0)"><path class="cls-1" d="M140.71,62.38c6-1.1,12.73,3.69,15.07,10.69L120.72,97.26c-2.35-7-3.75-15.48-3.14-18.92Z"/></clipPath></defs><title>Asset 3mdpi</title><g id="Layer_2" data-name="Layer 2"><g id="Layer_1-2" data-name="Layer 1"><g class="cls-2"><g class="cls-2"><g class="cls-3"><g class="cls-2"><path class="cls-4" d="M39.87,18.25l-23.13,16h0l23.15-16h0" transform="translate(0)"/><path class="cls-5" d="M39.87,18.25l-23.15,16-.25.06L39.89,18.1a.77.77,0,0,1,0,.15" transform="translate(0)"/><path class="cls-6" d="M39.89,18.1,16.47,34.27l-.25,0L39.92,18l0,.13" transform="translate(0)"/><path class="cls-7" d="M39.92,18,16.22,34.32l-.25.07L40,17.84a.5.5,0,0,0,0,.13" transform="translate(0)"/><path class="cls-8" d="M40,17.84,16,34.39l-.27.08L40,17.7l0,.14" transform="translate(0)"/><path class="cls-9" d="M40,17.7,15.7,34.47l-.31.1L40,17.56l0,.14" transform="translate(0)"/><path class="cls-10" d="M40,17.56h0l-1.26.87-1.26.87-1.24.86L35,21l-1.23.85-1.23.85-1.22.84-1.21.84-1.22.84-1.21.83-1.22.84-1.21.84-1.22.84-1.22.84-1.22.85-1.23.85L19.16,32l-1.25.86-1.25.86-1.27.88-.29.11,25-17.25s0,.09-.05.13" transform="translate(0)"/><path class="cls-11" d="M40.09,17.43l-25,17.25-.41.17L40.17,17.27a1.19,1.19,0,0,0-.08.16" transform="translate(0)"/><path class="cls-12" d="M40.17,17.27,14.69,34.85l-.43.21,26-17.94a.6.6,0,0,0-.09.15" transform="translate(0)"/><path class="cls-13" d="M40.26,17.12h0l-1.37.94L37.55,19l-1.32.91-1.31.91-1.3.89-1.28.89-1.28.88-1.27.87-1.27.88-1.26.87L26,27l-1.26.88-1.28.87-1.27.89-1.29.88-1.29.9-1.31.9L17,33.19l-1.34.93-1.36.94a9.52,9.52,0,0,0-.87.52l1.44-1,1.41-1,1.39-1L19,31.72l1.35-.94,1.34-.92L23,29,24.32,28l1.3-.9,1.31-.9,1.31-.9,1.3-.9,1.32-.91,1.32-.91,1.34-.92,1.34-.93,1.37-.95,1.39-.95,1.41-1,1.44-1a.74.74,0,0,0-.21.22" transform="translate(0)"/></g></g></g><g class="cls-2"><g class="cls-14"><g class="cls-2"><path class="cls-4" d="M150.06,9.7,131.22,1.46a3.7,3.7,0,0,1,.28-.93l20.61,9a8.82,8.82,0,0,0-2.05.15" transform="translate(0)"/><path class="cls-5" d="M152.11,9.55h0L151,9.08l-1-.46-1.05-.46-1-.46-1-.45-1-.44-1-.45-1-.44-1-.44-1-.44-1-.45-1-.44-1-.44-1-.45-1-.44-1-.45-1-.46-1-.45L132.57,1,131.5.53a1.21,1.21,0,0,1,.26-.37l21.77,9.53a9.76,9.76,0,0,0-1.42-.14" transform="translate(0)"/><path class="cls-6" d="M153.53,9.69,131.76.16A.62.62,0,0,1,132,0l22.64,9.9c-.37-.09-.73-.17-1.1-.23" transform="translate(0)"/><path class="cls-7" d="M154.63,9.92,132,0a.57.57,0,0,1,.26,0l23.44,10.25c-.35-.13-.71-.24-1.06-.34" transform="translate(0)"/><path class="cls-8" d="M155.69,10.26,132.25,0a.76.76,0,0,1,.2.06l1.3.57L135,1.2h0l1.24.54,1.21.53,1.2.52,1.17.52,1.16.5,1.14.51h0l1.14.49,1.14.5,1.13.5,1.14.49h0l1.14.51,1.16.5,1.17.52,1.2.52,1.21.53,1.24.54,1.28.56,1.3.57h0l-.71-.29" transform="translate(0)"/></g></g></g><g class="cls-2"><g class="cls-15"><g class="cls-2"><path class="cls-4" d="M80.87,36.2l-41-18a3.46,3.46,0,0,1,.27-.93l41,18a3.74,3.74,0,0,0-.27.93" transform="translate(0)"/><path class="cls-5" d="M81.14,35.27l-41-18A1.15,1.15,0,0,1,40.4,17l41,17.94a1.41,1.41,0,0,0-.26.37" transform="translate(0)"/><path class="cls-6" d="M81.4,34.9h0l-1.84-.81-1.86-.81-1.89-.83-1.9-.83L72,30.77l-2-.85-2-.86-2-.87-2-.89-2-.89-2.06-.9-2.08-.91-2.11-.92-2.12-.94-2.15-.94-2.18-.95-2.19-1-2.21-1-2.24-1L40.4,17a.51.51,0,0,1,.23-.14l41,17.94a.75.75,0,0,0-.24.14" transform="translate(0)"/><path class="cls-7" d="M81.64,34.76l-41-17.94a.61.61,0,0,1,.27,0l41,17.94a.57.57,0,0,0-.26,0" transform="translate(0)"/><path class="cls-8" d="M81.9,34.75l-41-17.94.19.06,2.41,1.05,2.38,1,2.34,1,2.3,1,2.26,1L55,23l2.19.95,2.14.94h0l2.11.92,2.07.91,2,.89,2,.87,2,.85,1.91.84,1.88.82,1.84.81,1.8.79,1.76.77,1.73.75,1.68.74h0a.7.7,0,0,0-.19-.06" transform="translate(0)"/></g></g></g><g class="cls-2"><g class="cls-16"><g class="cls-2"><polyline class="cls-4" points="131.22 1.46 80.87 36.2 80.87 36.19 131.23 1.45 131.22 1.46"/><path class="cls-5" d="M131.23,1.45h0l-2.52,1.74-2.52,1.73-2.52,1.74L121.15,8.4l-2.52,1.74-2.52,1.73-2.51,1.74-2.52,1.74-2.52,1.74L106,18.82l-2.51,1.74L101,22.3,98.49,24,96,25.77l-2.51,1.74-2.52,1.73L88.42,31l-2.51,1.74-2.52,1.73-2.52,1.74,0-.14L131.25,1.31a.59.59,0,0,0,0,.14" transform="translate(0)"/><path class="cls-6" d="M131.25,1.31h0l-2.54,1.75-2.53,1.75-2.54,1.75L121.11,8.3l-2.53,1.75-2.53,1.74-2.52,1.74L111,15.27,108.48,17,106,18.75l-2.52,1.74-2.52,1.73L98.42,24l-2.51,1.73L93.4,27.42l-2.5,1.73-2.5,1.72L85.89,32.6,83.4,34.32l-2.5,1.73,0-.14L131.28,1.17l0,.14" transform="translate(0)"/><path class="cls-7" d="M131.28,1.17,80.93,35.91l0-.13,2.46-1.69,2.46-1.7,2.47-1.71L90.83,29l2.48-1.72,2.49-1.71,2.49-1.73,2.5-1.72,2.51-1.73,2.52-1.74,2.52-1.74,2.53-1.74,2.53-1.75,2.54-1.75,2.55-1.76L121,8.13l2.56-1.76,2.56-1.77,2.58-1.78L131.31,1l0,.13" transform="translate(0)"/><path class="cls-8" d="M131.31,1,81,35.78c0-.05,0-.09,0-.14L83.43,34l2.45-1.69,2.45-1.69,2.46-1.7,2.47-1.7,2.48-1.71,2.48-1.72,2.5-1.72,2.5-1.73,2.52-1.73,2.52-1.74,2.53-1.75,2.54-1.75,2.55-1.76,2.56-1.76L121,8.05l2.58-1.78,2.58-1.78,2.59-1.79,2.6-1.8a.74.74,0,0,1,0,.14" transform="translate(0)"/><path class="cls-9" d="M131.35.9,81,35.64a1.21,1.21,0,0,1,0-.14L131.4.76c0,.05,0,.1-.05.14" transform="translate(0)"/><path class="cls-10" d="M131.4.76,81.05,35.5a.61.61,0,0,1,0-.12L131.45.64l0,.12" transform="translate(0)"/><path class="cls-11" d="M131.45.64,81.1,35.38a.87.87,0,0,1,.07-.17L131.52.47c0,.05-.05.11-.07.17" transform="translate(0)"/><path class="cls-12" d="M131.52.47,81.17,35.21l.09-.15L131.61.32l-.09.15" transform="translate(0)"/><path class="cls-13" d="M131.61.32h0L128.89,2.2l-2.7,1.87-2.68,1.84-2.66,1.84-2.63,1.82-2.62,1.8L113,13.16l-2.57,1.77-2.55,1.76-2.53,1.75-2.51,1.73-2.48,1.71-2.46,1.7-2.45,1.69L93,26.94l-2.4,1.65-2.38,1.64-2.35,1.63-2.34,1.61-2.31,1.59a.92.92,0,0,1,.22-.22l2.23-1.54L86,31.73h0l2.29-1.58,2.33-1.6L93,26.92l2.39-1.64,2.41-1.67,2.44-1.68,2.48-1.71,2.5-1.73,2.53-1.74L110.27,15l2.59-1.79,2.62-1.81,2.65-1.83,2.68-1.85,2.71-1.87,2.74-1.89L129,2,131.83.1h0a.92.92,0,0,0-.22.22" transform="translate(0)"/></g></g></g><g class="cls-2"><g class="cls-17"><g class="cls-2"><path class="cls-13" d="M11.22,52.05,52.22,70A16.54,16.54,0,0,0,61,79.83l-1.69-.74-1.72-.75-1.76-.77L54,76.78,52.14,76l-1.88-.82-1.92-.83-2-.86-2-.87-2-.89-4.18-1.83h0L36,68.93l-2.18-1-2.22-1-2.27-1-2.3-1-2.34-1-4.79-2.1a16.53,16.53,0,0,1-8.72-9.84" transform="translate(0)"/></g></g></g><polygon class="cls-18" points="51.16 66.83 52.22 69.99 11.21 52.05 10.15 48.88 51.16 66.83"/><g class="cls-2"><g class="cls-19"><g class="cls-2"><path class="cls-4" d="M16.74,34.21l41,17.94-.07,0-41-17.94.08,0" transform="translate(0)"/><path class="cls-5" d="M16.66,34.23l41,17.94a10,10,0,0,0-1.11.28l-41-17.94a8.19,8.19,0,0,1,1.11-.28" transform="translate(0)"/><path class="cls-6" d="M15.55,34.51l41,17.94c-.26.09-.52.19-.77.3l-41-17.94c.24-.11.5-.21.76-.3" transform="translate(0)"/><path class="cls-7" d="M14.79,34.81l41,17.94c-.23.1-.45.21-.66.32l-41-17.94c.22-.12.44-.22.67-.32" transform="translate(0)"/><path class="cls-8" d="M14.12,35.13l41,17.94c-.22.12-.43.25-.63.38l-41-17.94.62-.38" transform="translate(0)"/><path class="cls-9" d="M13.5,35.51l41,17.94c-.22.15-.43.31-.64.47L12.86,36a7.52,7.52,0,0,1,.64-.47" transform="translate(0)"/><path class="cls-10" d="M12.86,36l41,17.94q-.36.3-.69.63l-41-17.94q.33-.33.69-.63" transform="translate(0)"/><path class="cls-11" d="M12.17,36.61l41,17.94a9.59,9.59,0,0,0-.77.9l-41-17.94a8.39,8.39,0,0,1,.78-.9" transform="translate(0)"/><path class="cls-12" d="M11.39,37.51l41,17.94A9.22,9.22,0,0,0,51.48,57L10.47,39a10,10,0,0,1,.92-1.51" transform="translate(0)"/><path class="cls-13" d="M10.47,39,51.48,57a13,13,0,0,0-.32,9.86l-41-17.94A13.11,13.11,0,0,1,10.47,39" transform="translate(0)"/></g></g></g><g class="cls-2"><g class="cls-20"><g class="cls-2"><path class="cls-21" d="M115.84,58.3l50.35-34.74c.09.25.16.49.23.74L116.07,59c-.07-.25-.15-.49-.23-.74" transform="translate(0)"/><path class="cls-22" d="M116.07,59,166.42,24.3c.1.34.18.67.25,1L116.32,60c-.07-.33-.16-.66-.25-1" transform="translate(0)"/><path class="cls-23" d="M116.32,60h0L118,58.89l1.77-1.22,1.85-1.28,1.94-1.34,2-1.4,2.12-1.46,2.21-1.52,2.29-1.59,2.39-1.64,2.47-1.71L139.62,44l2.65-1.83L145,40.24l2.83-2,2.92-2,3-2.07,3.1-2.14L160,29.88l3.27-2.26,3.36-2.32c.07.33.13.65.18,1L116.49,61c0-.33-.1-.65-.17-1" transform="translate(0)"/><path class="cls-24" d="M116.49,61l50.36-34.74c0,.32.08.63.11.95L116.6,62c0-.32-.06-.63-.11-.95" transform="translate(0)"/><path class="cls-25" d="M116.6,62h0l1.7-1.18,1.79-1.23L122,58.27l2-1.35,2-1.42L128.1,54l2.22-1.53,2.3-1.58L135,49.27l2.47-1.71,2.57-1.77L142.69,44l2.73-1.89,2.82-1.94,2.91-2,3-2.06L157.21,34l3.16-2.18,3.25-2.24,3.34-2.3c0,.31,0,.61,0,.91L116.64,62.88c0-.3,0-.6,0-.91" transform="translate(0)"/><path class="cls-26" d="M116.64,62.88,167,28.14c0,.3,0,.59,0,.88L116.63,63.76c0-.29,0-.58,0-.88" transform="translate(0)"/><path class="cls-4" d="M116.63,63.76,167,29c0,.28,0,.56-.07.84L116.55,64.6c0-.28.06-.56.08-.84" transform="translate(0)"/><path class="cls-5" d="M116.55,64.6l50.36-34.74c0,.27-.08.54-.13.8l-3.23,2.23-3.16,2.18L157.3,37.2l-3,2.08-2.93,2-2.86,2-2.78,1.92L143,47.06l-2.63,1.81-2.55,1.77-2.48,1.71L132.94,54l-2.33,1.6-2.25,1.56-2.18,1.5-2.1,1.45-2,1.4-2,1.35-1.87,1.29-1.8,1.24c0-.26.09-.53.12-.8" transform="translate(0)"/><path class="cls-6" d="M116.43,65.4l50.35-34.74a6.43,6.43,0,0,1-.17.76L116.26,66.16c.06-.25.12-.5.17-.76" transform="translate(0)"/><path class="cls-7" d="M116.26,66.16l50.35-34.74c-.06.25-.13.49-.21.73l-3.17,2.18-3.1,2.14-3,2.1-3,2-2.9,2-2.82,2-2.76,1.9L143,48.32l-2.62,1.81-2.55,1.76L135.3,53.6l-2.41,1.67-2.35,1.61-2.28,1.58L126.06,60l-2.14,1.48-2.07,1.42-2,1.39-1.93,1.33L116,66.89c.08-.24.16-.48.22-.73" transform="translate(0)"/><path class="cls-8" d="M116,66.89,166.4,32.15c-.08.23-.17.46-.26.69L163,35l-3.06,2.12-3,2.07-2.94,2-2.87,2-2.81,1.94L145.56,47l-2.68,1.84-2.61,1.81-2.55,1.76-2.49,1.71-2.42,1.67-2.35,1.63L128.17,59l-2.23,1.53-2.16,1.49-2.1,1.45-2,1.4-2,1.36-1.91,1.31a6.46,6.46,0,0,0,.26-.69" transform="translate(0)"/><path class="cls-9" d="M115.78,67.58l1.91-1.31,2-1.36,2-1.4,2.1-1.45,2.16-1.49L128.17,59l2.29-1.58,2.35-1.63,2.42-1.67,2.49-1.71,2.55-1.76,2.61-1.81L145.56,47l2.75-1.9,2.81-1.94,2.87-2,2.94-2,3-2.07L163,35l3.14-2.16c-.1.23-.2.45-.31.67L115.48,68.25c.11-.22.21-.44.3-.67" transform="translate(0)"/><path class="cls-10" d="M115.48,68.25l50.35-34.74c-.11.22-.23.44-.35.65L115.12,68.9c.13-.21.25-.43.36-.65" transform="translate(0)"/><path class="cls-11" d="M115.12,68.9l50.36-34.74c-.14.22-.28.44-.43.64L114.69,69.54a7.14,7.14,0,0,0,.43-.64" transform="translate(0)"/><path class="cls-12" d="M114.69,69.54,165.05,34.8c-.18.25-.37.48-.56.7L114.13,70.24a6.36,6.36,0,0,0,.56-.7" transform="translate(0)"/><path class="cls-13" d="M114.13,70.24,164.49,35.5A9,9,0,0,1,163,36.86l-2.8,1.93-2.77,1.91-2.74,1.89-2.71,1.87-2.68,1.85-2.65,1.83L144,50l-2.6,1.78-2.56,1.77-2.53,1.75L133.8,57l-2.48,1.7-2.44,1.69L126.47,62l-2.39,1.65-2.35,1.62-2.33,1.61-2.29,1.58h0l-2.27,1.56-2.23,1.55h0a8.55,8.55,0,0,0,1.52-1.36" transform="translate(0)"/></g></g></g><polygon class="cls-27" points="165.13 20.39 166.19 23.56 115.84 58.3 114.78 55.13 165.13 20.39"/><g class="cls-2"><g class="cls-28"><g class="cls-2"><path class="cls-4" d="M99.71,44.44,150.06,9.7l.22,0L99.93,44.4l-.22,0" transform="translate(0)"/><path class="cls-26" d="M99.93,44.4,150.28,9.66l.24,0L100.16,44.37l-.23,0" transform="translate(0)"/><path class="cls-25" d="M100.16,44.37,150.52,9.63a1.6,1.6,0,0,1,.23,0L100.4,44.34l-.24,0" transform="translate(0)"/><path class="cls-24" d="M100.4,44.34,150.75,9.6l.24,0L100.64,44.31l-.24,0" transform="translate(0)"/><path class="cls-23" d="M100.64,44.31,151,9.57h.25L100.88,44.3h-.24" transform="translate(0)"/><path class="cls-22" d="M100.88,44.3,151.24,9.56h.24L101.13,44.29h-.25" transform="translate(0)"/><path class="cls-21" d="M101.13,44.29,151.48,9.55h.25L101.38,44.28h-.25" transform="translate(0)"/><path class="cls-29" d="M101.38,44.28,151.73,9.54H152L101.63,44.28h-.25" transform="translate(0)"/><path class="cls-30" d="M101.63,44.28,152,9.54h.26L101.89,44.29h-.26" transform="translate(0)"/><path class="cls-31" d="M101.89,44.29,152.24,9.55h.26L102.15,44.3h-.26" transform="translate(0)"/><path class="cls-32" d="M102.15,44.3,152.5,9.56l.26,0L102.41,44.33l-.26,0" transform="translate(0)"/><path class="cls-33" d="M102.41,44.33,152.76,9.59l.22,0L102.62,44.35l-.21,0" transform="translate(0)"/><path class="cls-34" d="M102.62,44.35,153,9.61l.21,0L102.83,44.37l-.21,0" transform="translate(0)"/><path class="cls-35" d="M102.83,44.37,153.19,9.63l.21,0L103.05,44.4l-.22,0" transform="translate(0)"/><path class="cls-36" d="M103.05,44.4,153.4,9.67l.21,0L103.26,44.44l-.21,0" transform="translate(0)"/><path class="cls-37" d="M103.26,44.44,153.61,9.7l.18,0L103.44,44.47l-.18,0" transform="translate(0)"/><path class="cls-38" d="M103.44,44.47,153.79,9.73l.15,0L103.59,44.5l-.15,0" transform="translate(0)"/><path class="cls-39" d="M103.59,44.5,153.94,9.76l.16,0L103.74,44.54l-.15,0" transform="translate(0)"/><path class="cls-40" d="M103.74,44.54,154.1,9.8l.15,0L103.9,44.57l-.16,0" transform="translate(0)"/><path class="cls-41" d="M103.9,44.57,154.25,9.83l.16,0L104.05,44.61l-.15,0" transform="translate(0)"/><path class="cls-42" d="M104.05,44.61,154.41,9.87l.15,0L104.21,44.65l-.16,0" transform="translate(0)"/><path class="cls-43" d="M104.21,44.65,154.56,9.91l.15,0L104.35,44.69l-.14,0" transform="translate(0)"/><path class="cls-44" d="M104.35,44.69,154.71,10l.14,0L104.5,44.73l-.15,0" transform="translate(0)"/><path class="cls-45" d="M104.5,44.73,154.85,10l.15,0L104.64,44.77l-.14,0" transform="translate(0)"/><path class="cls-46" d="M104.64,44.77,155,10l.14.05L104.79,44.82l-.15,0" transform="translate(0)"/><path class="cls-47" d="M104.79,44.82l50.35-34.74.15,0L104.93,44.86l-.14,0" transform="translate(0)"/><path class="cls-48" d="M104.93,44.86l50.36-34.74.14.05L105.08,44.91l-.15,0" transform="translate(0)"/><path class="cls-49" d="M105.08,44.91l50.35-34.74.18.06L105.25,45l-.17-.06" transform="translate(0)"/><path class="cls-50" d="M105.25,45l50.36-34.74.21.08L105.47,45.05l-.22-.08" transform="translate(0)"/><path class="cls-51" d="M105.47,45.05l50.35-34.74.21.09L105.68,45.14l-.21-.09" transform="translate(0)"/><path class="cls-52" d="M105.68,45.14,156,10.4l.22.08L105.89,45.22l-.21-.08" transform="translate(0)"/><path class="cls-53" d="M105.89,45.22l50.36-34.74.42.19L106.32,45.41l-.43-.19" transform="translate(0)"/><path class="cls-54" d="M106.32,45.41l50.35-34.74c.3.14.6.29.9.46L107.21,45.87c-.29-.17-.59-.32-.89-.46" transform="translate(0)"/><path class="cls-53" d="M107.21,45.87l50.36-34.74.46.26L107.67,46.13c-.15-.09-.3-.18-.46-.26" transform="translate(0)"/><path class="cls-52" d="M107.67,46.13,158,11.39l.29.19L108,46.32l-.3-.19" transform="translate(0)"/><path class="cls-51" d="M108,46.32l50.35-34.74.25.16L108.21,46.48l-.24-.16" transform="translate(0)"/><path class="cls-50" d="M108.21,46.48l50.36-34.74.24.16L108.46,46.64l-.25-.16" transform="translate(0)"/><path class="cls-49" d="M108.46,46.64,158.81,11.9l.24.17L108.69,46.81l-.23-.17" transform="translate(0)"/><path class="cls-48" d="M108.69,46.81l50.36-34.74.21.16L108.91,47l-.22-.15" transform="translate(0)"/><path class="cls-47" d="M108.91,47l50.35-34.73.22.16L109.12,47.13l-.21-.17" transform="translate(0)"/><path class="cls-46" d="M109.12,47.13l50.36-34.74.21.17L109.34,47.3l-.22-.17" transform="translate(0)"/><path class="cls-45" d="M109.34,47.3l50.35-34.74a1.74,1.74,0,0,1,.22.18L109.56,47.47l-.22-.17" transform="translate(0)"/><path class="cls-44" d="M109.56,47.47l50.35-34.73.22.18L109.78,47.66l-.22-.19" transform="translate(0)"/><path class="cls-43" d="M109.78,47.66l50.35-34.74.22.2L110,47.86l-.22-.2" transform="translate(0)"/><path class="cls-42" d="M110,47.86l50.35-34.74.23.2L110.22,48.06l-.22-.2" transform="translate(0)"/><path class="cls-41" d="M110.22,48.06l50.36-34.74.25.24L110.47,48.3l-.25-.24" transform="translate(0)"/><path class="cls-40" d="M110.47,48.3l50.36-34.74.25.25L110.72,48.55l-.25-.25" transform="translate(0)"/><path class="cls-39" d="M110.72,48.55l50.36-34.74.25.26L111,48.81a3.19,3.19,0,0,0-.26-.26" transform="translate(0)"/><path class="cls-38" d="M111,48.81l50.35-34.74.3.32L111.28,49.13l-.3-.32" transform="translate(0)"/><path class="cls-37" d="M111.28,49.13l50.35-34.74.29.33L111.57,49.46l-.29-.33" transform="translate(0)"/><path class="cls-36" d="M111.57,49.46l50.35-34.74.34.41L111.91,49.87l-.34-.41" transform="translate(0)"/><path class="cls-35" d="M111.91,49.87l50.35-34.74.34.44L112.24,50.31l-.33-.44" transform="translate(0)"/><path class="cls-34" d="M112.24,50.31,162.6,15.57l.39.54L112.64,50.85c-.13-.18-.26-.37-.4-.54" transform="translate(0)"/><path class="cls-33" d="M112.64,50.85,163,16.11c.14.2.27.4.4.61L113,51.46c-.13-.21-.27-.41-.4-.61" transform="translate(0)"/><path class="cls-32" d="M113,51.46l50.35-34.74c.15.23.29.47.42.71L113.46,52.17l-.42-.71" transform="translate(0)"/><path class="cls-31" d="M113.46,52.17l50.35-34.74c.15.26.3.54.44.82L113.89,53c-.13-.28-.28-.56-.43-.82" transform="translate(0)"/><path class="cls-30" d="M113.89,53l50.36-34.74c.14.29.28.59.41.9L114.31,53.89q-.19-.47-.42-.9" transform="translate(0)"/><path class="cls-29" d="M114.31,53.89l50.35-34.74c.14.32.27.64.38,1L114.69,54.86c-.12-.33-.24-.65-.38-1" transform="translate(0)"/><path class="cls-21" d="M114.69,54.86,165,20.12l.09.27L114.78,55.13l-.09-.27" transform="translate(0)"/></g></g></g><g class="cls-2"><g class="cls-55"><g class="cls-2"><path class="cls-4" d="M57.74,52.15,7.39,86.89h0L57.73,52.16h0" transform="translate(0)"/><path class="cls-5" d="M57.73,52.16,7.37,86.9l-.25,0L9.66,85.2l2.54-1.75,2.53-1.75L17.26,80l2.53-1.75,2.53-1.74,2.53-1.74L27.37,73l2.52-1.74,2.52-1.74,2.51-1.74L37.44,66,40,64.3l2.51-1.74L45,60.83l2.5-1.72L50,57.38l2.5-1.73L55,53.93l2.49-1.72.26-.05" transform="translate(0)"/><path class="cls-6" d="M57.47,52.21,7.12,87l-.25,0L57.22,52.26l.25,0" transform="translate(0)"/><path class="cls-7" d="M57.22,52.26,6.87,87l-.25.07L57,52.33l.24-.07" transform="translate(0)"/><path class="cls-8" d="M57,52.33,6.62,87.07l-.27.08L56.7,52.41l.28-.08" transform="translate(0)"/><path class="cls-9" d="M56.7,52.41,6.35,87.15l-.31.1L56.4,52.51l.3-.1" transform="translate(0)"/><path class="cls-10" d="M56.4,52.51,6,87.25l-.29.11h0L8.4,85.53,11,83.71l2.62-1.81,2.61-1.8,2.59-1.79,2.58-1.78L24,74.76,26.56,73l2.54-1.75,2.52-1.74,2.51-1.74,2.5-1.72,2.48-1.71,2.47-1.7L44,60.94l2.44-1.68,2.43-1.68,2.41-1.66,2.4-1.66,2.38-1.64.3-.11" transform="translate(0)"/><path class="cls-11" d="M56.1,52.62h0l-2.38,1.64-2.4,1.66-2.41,1.66-2.43,1.68L44,60.94l-2.46,1.7-2.47,1.7-2.48,1.71-2.5,1.72-2.51,1.74L29.1,71.25,26.56,73,24,74.76l-2.57,1.77-2.58,1.78L16.27,80.1l-2.61,1.8L11,83.71,8.4,85.53,5.75,87.36l-.41.17L55.69,52.79l.41-.17" transform="translate(0)"/><path class="cls-12" d="M55.69,52.79,5.34,87.53l-.43.21L55.26,53l.43-.21" transform="translate(0)"/><path class="cls-13" d="M55.26,53,4.91,87.74a7.77,7.77,0,0,0-.87.53l2.8-1.94,2.77-1.91,5.45-3.76h0l2.68-1.85L20.39,77h0L23,75.18l2.59-1.79,2.57-1.77,2.53-1.75,2.5-1.72,2.48-1.71,2.44-1.69,2.41-1.66,2.39-1.65,2.35-1.62,2.33-1.61,2.29-1.58,4.5-3.1a7.77,7.77,0,0,1,.87-.53" transform="translate(0)"/></g></g></g><g class="cls-2"><g class="cls-56"><g class="cls-2"><path class="cls-21" d="M30.42,117.23,80.77,82.49c.09.25.17.49.25.73L30.67,118c-.08-.24-.17-.48-.25-.73" transform="translate(0)"/><path class="cls-22" d="M30.67,118,81,83.22c.12.32.23.63.34.94L31,118.9c-.11-.31-.23-.62-.34-.94" transform="translate(0)"/><path class="cls-23" d="M31,118.9,81.36,84.16c.11.3.23.59.34.87L31.34,119.77q-.16-.42-.33-.87" transform="translate(0)"/><path class="cls-24" d="M31.34,119.77,81.7,85c.11.27.21.54.32.79L31.67,120.56c-.11-.25-.22-.52-.33-.79" transform="translate(0)"/><path class="cls-25" d="M31.67,120.56,82,85.82c.11.26.21.5.32.73L32,121.29c-.1-.23-.21-.47-.31-.73" transform="translate(0)"/><path class="cls-26" d="M32,121.29,82.34,86.55q.15.35.3.66L32.29,122l-.31-.66" transform="translate(0)"/><path class="cls-4" d="M32.29,122,82.64,87.21c.1.2.2.4.3.58L32.59,122.53c-.1-.18-.2-.38-.3-.58" transform="translate(0)"/><path class="cls-5" d="M32.59,122.53,82.94,87.79c.09.18.19.36.28.52L32.87,123.05c-.1-.16-.19-.34-.28-.52" transform="translate(0)"/><path class="cls-6" d="M32.87,123.05,83.22,88.31l.27.46L81.66,90l-1.9,1.31-2,1.37-2,1.41-2.12,1.46-2.2,1.52-2.26,1.56-2.34,1.61-2.41,1.66-2.48,1.71-2.55,1.77-2.63,1.81-2.7,1.86L51.28,111l-2.84,2-2.92,2-3,2.07-3.06,2.11-3.14,2.16-3.2,2.21-.27-.46" transform="translate(0)"/><path class="cls-7" d="M33.14,123.51,83.49,88.77l.26.39L33.4,123.9c-.09-.12-.17-.25-.26-.39" transform="translate(0)"/><path class="cls-8" d="M33.4,123.9,83.75,89.16l.25.35L33.65,124.25c-.08-.11-.17-.22-.25-.35" transform="translate(0)"/><path class="cls-9" d="M33.65,124.25,84,89.51l.25.28L33.89,124.53a3.48,3.48,0,0,1-.24-.28" transform="translate(0)"/><path class="cls-10" d="M33.89,124.53,84.25,89.79l.24.24L34.13,124.77l-.24-.24" transform="translate(0)"/><path class="cls-11" d="M34.13,124.77,84.49,90a2,2,0,0,0,.24.19L34.38,125c-.08,0-.16-.12-.25-.19" transform="translate(0)"/><path class="cls-12" d="M34.38,125,84.73,90.22a1.26,1.26,0,0,0,.26.13L82.9,91.79l-2.13,1.47-2.18,1.5L76.37,96.3,74.1,97.86l-2.32,1.6-2.36,1.63L67,102.75l-2.45,1.69-2.5,1.72-2.54,1.75L57,109.7l-2.64,1.81-2.67,1.85-2.72,1.87-2.77,1.91-2.81,1.94-2.85,2-2.9,2-3,2a1.05,1.05,0,0,1-.26-.13" transform="translate(0)"/><path class="cls-13" d="M34.64,125.09l3-2,2.9-2,2.85-2,2.81-1.94,2.77-1.91,2.72-1.87,2.67-1.85L57,109.7l2.58-1.79,2.54-1.75,2.5-1.72L67,102.75l2.4-1.66,2.36-1.63,2.32-1.6,2.27-1.56,2.22-1.54,2.18-1.5,2.13-1.47L85,90.35a.58.58,0,0,0,.53-.07L81,93.39h0L78.73,95l-2.33,1.6L74.05,98.2l-2.39,1.64-2.41,1.67-2.45,1.68-2.47,1.71-2.5,1.73-2.53,1.75-2.57,1.76-2.59,1.79-2.62,1.81-2.65,1.83-2.68,1.85-2.71,1.87-2.74,1.89L38,123.09,35.17,125a.58.58,0,0,1-.53.07" transform="translate(0)"/></g></g></g><g class="cls-2"><g class="cls-57"><g class="cls-2"><path class="cls-13" d="M1.87,104.73l28.55,12.5c1.52,4.55,3.07,7.36,4.13,7.82l-1.3-.57L32,123.92l-1.24-.54-1.21-.53-1.2-.52-1.17-.52-1.16-.5-1.14-.5-1.14-.5-1.14-.5-1.13-.5-1.14-.49-2.3-1-2.37-1h0l-1.21-.53-1.25-.54-1.27-.56-1.31-.57a16.53,16.53,0,0,1-8.72-9.84" transform="translate(0)"/></g></g></g><polygon class="cls-18" points="29.36 114.06 30.42 117.23 1.87 104.73 0.81 101.56 29.36 114.06"/><polygon class="cls-27" points="79.71 79.32 80.78 82.49 30.42 117.23 29.36 114.06 79.71 79.32"/><g class="cls-2"><g class="cls-58"><g class="cls-2"><path class="cls-4" d="M7.39,86.89l18.83,8.24v.05L7.32,86.91l.07,0" transform="translate(0)"/><path class="cls-5" d="M7.32,86.91l18.9,8.27a7.28,7.28,0,0,0-.09.73L6.21,87.19a9,9,0,0,1,1.11-.28" transform="translate(0)"/><path class="cls-6" d="M6.21,87.19l19.92,8.72c0,.19,0,.4,0,.61l-20.65-9c.25-.11.5-.21.77-.3" transform="translate(0)"/><path class="cls-7" d="M5.44,87.49l20.65,9c0,.2,0,.4,0,.61L4.77,87.81l.67-.32" transform="translate(0)"/><path class="cls-8" d="M4.77,87.81l21.31,9.32c0,.22,0,.44,0,.66L4.15,88.19l.62-.38" transform="translate(0)"/><path class="cls-9" d="M4.15,88.19l21.94,9.6,0,.77L3.51,88.66c.2-.16.42-.32.64-.47" transform="translate(0)"/><path class="cls-10" d="M3.51,88.66l22.61,9.9c0,.31.05.63.08,1L2.82,89.29q.33-.33.69-.63" transform="translate(0)"/><path class="cls-11" d="M2.82,89.29,26.2,99.52c0,.42.08.85.13,1.3L2,90.19a8.39,8.39,0,0,1,.78-.9" transform="translate(0)"/><path class="cls-12" d="M2,90.19l24.29,10.63c.08.66.18,1.34.29,2L1.12,91.7A10,10,0,0,1,2,90.19" transform="translate(0)"/><path class="cls-13" d="M1.12,91.7l25.5,11.16a72.44,72.44,0,0,0,2.74,11.2L.81,101.56a13.06,13.06,0,0,1,.31-9.86" transform="translate(0)"/></g></g></g><g class="cls-2"><g class="cls-59"><g class="cls-2"><path class="cls-4" d="M26.22,95.13,76.58,60.39l0,.13L26.2,95.26a.51.51,0,0,0,0-.13" transform="translate(0)"/><path class="cls-26" d="M26.2,95.26,76.55,60.52a.77.77,0,0,1,0,.15L26.18,95.41s0-.1,0-.15" transform="translate(0)"/><path class="cls-25" d="M26.18,95.41,76.53,60.67a.68.68,0,0,1,0,.14L26.16,95.55s0-.1,0-.14" transform="translate(0)"/><path class="cls-24" d="M26.16,95.55,76.51,60.81s0,.11,0,.16L26.14,95.71a1,1,0,0,0,0-.16" transform="translate(0)"/><path class="cls-23" d="M26.14,95.71,76.5,61c0,.05,0,.1,0,.16L26.13,95.87c0-.06,0-.11,0-.16" transform="translate(0)"/><path class="cls-22" d="M26.13,95.87,76.48,61.13c0,.06,0,.11,0,.17L26.12,96a1,1,0,0,1,0-.17" transform="translate(0)"/><path class="cls-21" d="M26.12,96,76.47,61.3a1,1,0,0,0,0,.17L26.1,96.21c0-.06,0-.11,0-.17" transform="translate(0)"/><path class="cls-29" d="M26.1,96.21,76.46,61.47a1.09,1.09,0,0,0,0,.18L26.09,96.39a1.09,1.09,0,0,0,0-.18" transform="translate(0)"/><path class="cls-30" d="M26.09,96.39,76.45,61.65c0,.07,0,.13,0,.2L26.09,96.59v-.2" transform="translate(0)"/><path class="cls-31" d="M26.09,96.59,76.44,61.85V62L26.08,96.78c0-.06,0-.13,0-.19" transform="translate(0)"/><path class="cls-32" d="M26.08,96.78,76.44,62c0,.07,0,.14,0,.2L26.08,97v-.2" transform="translate(0)"/><path class="cls-33" d="M26.08,97,76.43,62.24v.18L26.08,97.16V97" transform="translate(0)"/><path class="cls-34" d="M26.08,97.16,76.43,62.42v.17L26.08,97.33v-.17" transform="translate(0)"/><path class="cls-35" d="M26.08,97.33,76.43,62.59c0,.06,0,.11,0,.17L26.08,97.5v-.17" transform="translate(0)"/><path class="cls-36" d="M26.08,97.5,76.44,62.76v.18L26.09,97.68c0-.06,0-.12,0-.18" transform="translate(0)"/><path class="cls-37" d="M26.09,97.68,76.44,62.94a.76.76,0,0,0,0,.15L26.09,97.83v-.15" transform="translate(0)"/><path class="cls-38" d="M26.09,97.83,76.45,63.09v.14L26.1,98v-.14" transform="translate(0)"/><path class="cls-39" d="M26.1,98,76.45,63.23v.13L26.1,98.1V98" transform="translate(0)"/><path class="cls-40" d="M26.1,98.1,76.46,63.36v.14L26.11,98.24V98.1" transform="translate(0)"/><path class="cls-41" d="M26.11,98.24,76.46,63.5v.14L26.11,98.38v-.14" transform="translate(0)"/><path class="cls-42" d="M26.11,98.38,76.47,63.64v.14L26.12,98.52v-.14" transform="translate(0)"/><path class="cls-43" d="M26.12,98.52,76.48,63.78v.13L26.13,98.65v-.13" transform="translate(0)"/><path class="cls-44" d="M26.13,98.65,76.48,63.91v.14L26.14,98.79v-.14" transform="translate(0)"/><path class="cls-45" d="M26.14,98.79,76.49,64.05v.14L26.15,98.93v-.14" transform="translate(0)"/><path class="cls-46" d="M26.15,98.93,76.5,64.19v.13L26.16,99.06v-.13" transform="translate(0)"/><path class="cls-47" d="M26.16,99.06,76.51,64.32v.14L26.17,99.2v-.14" transform="translate(0)"/><path class="cls-48" d="M26.17,99.2,76.52,64.46v.14L26.18,99.34V99.2" transform="translate(0)"/><path class="cls-49" d="M26.18,99.34,76.53,64.6c0,.06,0,.12,0,.18L26.2,99.52c0-.06,0-.12,0-.18" transform="translate(0)"/><path class="cls-50" d="M26.2,99.52,76.55,64.78c0,.07,0,.14,0,.21L26.22,99.73a1.49,1.49,0,0,1,0-.21" transform="translate(0)"/><path class="cls-51" d="M26.22,99.73,76.57,65c0,.07,0,.14,0,.22L26.24,100a1.8,1.8,0,0,1,0-.22" transform="translate(0)"/><path class="cls-52" d="M26.24,100,76.59,65.21c0,.07,0,.14,0,.21L26.26,100.16a1.49,1.49,0,0,1,0-.21" transform="translate(0)"/><path class="cls-53" d="M26.26,100.16,76.61,65.42c0,.15,0,.3,0,.45L26.31,100.61c0-.15,0-.3,0-.45" transform="translate(0)"/><path class="cls-54" d="M26.31,100.61,76.66,65.87q.06.48.12,1L26.43,101.6c0-.34-.09-.67-.12-1" transform="translate(0)"/><path class="cls-53" d="M26.43,101.6,76.78,66.86c0,.17,0,.35.08.53L26.51,102.13c0-.18-.05-.36-.08-.53" transform="translate(0)"/><path class="cls-52" d="M26.51,102.13,76.86,67.39c0,.12,0,.23,0,.35L26.56,102.48c0-.12,0-.23,0-.35" transform="translate(0)"/><path class="cls-51" d="M26.56,102.48,76.91,67.74c0,.1,0,.2,0,.3L26.6,102.78c0-.1,0-.2,0-.3" transform="translate(0)"/><path class="cls-50" d="M26.6,102.78,77,68c0,.1,0,.2.05.3L26.65,103.08c0-.1,0-.2,0-.3" transform="translate(0)"/><path class="cls-49" d="M26.65,103.08,77,68.34c0,.1,0,.2,0,.29L26.7,103.37c0-.09,0-.19-.05-.29" transform="translate(0)"/><path class="cls-48" d="M26.7,103.37,77.05,68.63a2.74,2.74,0,0,1,0,.28L26.75,103.65c0-.09,0-.19-.05-.28" transform="translate(0)"/><path class="cls-47" d="M26.75,103.65,77.1,68.91c0,.09,0,.18.05.28L26.8,103.93c0-.1,0-.19-.05-.28" transform="translate(0)"/><path class="cls-46" d="M26.8,103.93,77.15,69.19c0,.09,0,.18,0,.28L26.85,104.21c0-.1,0-.19-.05-.28" transform="translate(0)"/><path class="cls-45" d="M26.85,104.21,77.2,69.47a2.5,2.5,0,0,1,0,.29L26.9,104.5c0-.1,0-.2,0-.29" transform="translate(0)"/><path class="cls-44" d="M26.9,104.5,77.25,69.76l.06.3L27,104.8l-.06-.3" transform="translate(0)"/><path class="cls-43" d="M27,104.8,77.31,70.06l.06.31L27,105.11,27,104.8" transform="translate(0)"/><path class="cls-42" d="M27,105.11,77.37,70.37l.06.31L27.08,105.42l-.06-.31" transform="translate(0)"/><path class="cls-41" d="M27.08,105.42,77.43,70.68c0,.12,0,.24.08.37L27.15,105.79c0-.13,0-.25-.07-.37" transform="translate(0)"/><path class="cls-40" d="M27.15,105.79,77.51,71.05c0,.12,0,.24.07.36L27.23,106.15c0-.12-.05-.24-.08-.36" transform="translate(0)"/><path class="cls-39" d="M27.23,106.15,77.58,71.41c0,.13.06.26.08.39L27.31,106.54c0-.13-.06-.26-.08-.39" transform="translate(0)"/><path class="cls-38" d="M27.31,106.54,77.66,71.8c0,.15.07.3.1.45L27.41,107c0-.15-.07-.3-.1-.45" transform="translate(0)"/><path class="cls-37" d="M27.41,107,77.76,72.25c0,.16.07.31.11.46L27.51,107.45c0-.15-.07-.3-.1-.46" transform="translate(0)"/><path class="cls-36" d="M27.51,107.45,77.87,72.71c0,.19.08.37.13.55L27.64,108c0-.18-.08-.36-.13-.55" transform="translate(0)"/><path class="cls-35" d="M27.64,108,78,73.26c0,.2.09.39.14.58L27.78,108.58c-.05-.19-.09-.38-.14-.58" transform="translate(0)"/><path class="cls-34" d="M27.78,108.58,78.14,73.84c0,.23.11.46.17.69L28,109.27l-.18-.69" transform="translate(0)"/><path class="cls-33" d="M28,109.27,78.31,74.53c.06.25.13.51.2.76L28.15,110c-.06-.26-.13-.51-.19-.76" transform="translate(0)"/><path class="cls-32" d="M28.15,110,78.51,75.29c.07.28.15.55.22.83L28.38,110.86l-.23-.83" transform="translate(0)"/><path class="cls-31" d="M28.38,110.86,78.73,76.12l.27.94L28.65,111.8l-.27-.94" transform="translate(0)"/><path class="cls-30" d="M28.65,111.8,79,77.06l.3,1L29,112.78l-.3-1" transform="translate(0)"/><path class="cls-29" d="M29,112.78,79.3,78l.33,1L29.27,113.79c-.11-.33-.22-.67-.32-1" transform="translate(0)"/><path class="cls-21" d="M29.27,113.79,79.63,79.05a2.76,2.76,0,0,0,.08.27L29.36,114.06l-.09-.27" transform="translate(0)"/></g></g></g><g class="cls-2"><g class="cls-60"><g class="cls-2"><path class="cls-4" d="M140.71,62.38l-41-17.94a8.78,8.78,0,0,1,2.05-.15l1.92.84,1.94.84,1.95.86,2,.86,2,.86,2,.87,2,.88,2,.88,2,.89,2,.89,2.06.9,2.07.91,2.08.91,2.1.92,2.11.92,2.13.93,2.13.94,2.15.94,2.17.94,2.17,1a9.4,9.4,0,0,0-2,.15" transform="translate(0)"/><path class="cls-5" d="M142.76,62.23h0l-2.17-1-2.17-.94-2.15-.94-2.13-.94L132,57.52l-2.11-.92-2.1-.92-2.08-.91-2.07-.91-2.06-.9-2-.89-2-.89-2-.88-2-.88-2-.87-2-.86-2-.86L105.62,46l-1.94-.84-1.92-.84a9.89,9.89,0,0,1,1.42.14l41,17.94a9.62,9.62,0,0,0-1.42-.14" transform="translate(0)"/><path class="cls-6" d="M144.18,62.37l-41-17.94c.36.06.73.14,1.09.23l41,18a10.82,10.82,0,0,0-1.1-.24" transform="translate(0)"/><path class="cls-7" d="M145.28,62.61l-41-18c.36.1.71.21,1.07.34l41,18a10.85,10.85,0,0,0-1.06-.34" transform="translate(0)"/><path class="cls-8" d="M146.34,63l-41-18,.71.29,1.69.74,1.72.75h0l1.76.77,1.8.79h0l1.84.81,1.88.82,1.91.84,2,.85,2,.87,2,.89,2.07.91,2.11.92,2.15.94,2.18,1,2.22,1,2.27,1,2.3,1,2.33,1,2.38,1,2.42,1c-.24-.1-.48-.2-.72-.28" transform="translate(0)"/></g></g></g><g class="cls-2"><g class="cls-61"><g class="cls-2"><path class="cls-13" d="M80.77,82.49l41,17.94c1.52,4.55,3.07,7.36,4.13,7.82l-2.41-1-2.38-1-2.34-1-2.3-1-2.26-1-2.22-1-2.19-1-2.14-.94-2.11-.92-2.07-.91-2-.89-2-.87-1.95-.85L95.59,95l-1.87-.82-1.84-.81-1.8-.78-1.76-.78-1.73-.75-1.68-.74c-1.07-.46-2.61-3.27-4.14-7.82" transform="translate(0)"/></g></g></g><g class="cls-2"><g class="cls-62"><g class="cls-2"><path class="cls-21" d="M121.78,100.43l35.06-24.19c.09.25.16.5.23.74l-35,24.18c-.08-.24-.17-.48-.25-.73" transform="translate(0)"/><path class="cls-22" d="M122,101.16l35-24.18c.1.34.18.67.25,1l-2,1.38-1.92,1.33L151.55,82l-1.79,1.24L148,84.39l-1.69,1.17-1.65,1.14-1.63,1.13-1.61,1.11-1.6,1.1-1.61,1.11-1.61,1.11L135,93.38l-1.66,1.14-1.69,1.17-1.73,1.19-1.79,1.24-1.85,1.27-1.92,1.33-2,1.38c-.11-.3-.23-.62-.34-.94" transform="translate(0)"/><path class="cls-23" d="M122.37,102.1,157.32,78c.07.33.13.66.18,1l-34.8,24q-.17-.42-.33-.87" transform="translate(0)"/><path class="cls-24" d="M122.7,103l34.8-24c.05.32.08.64.11,1L123,103.77l-.33-.8" transform="translate(0)"/><path class="cls-25" d="M123,103.77l34.58-23.86c0,.31,0,.61,0,.91l-34.31,23.67c-.1-.23-.21-.47-.31-.72" transform="translate(0)"/><path class="cls-26" d="M123.34,104.49l34.31-23.67c0,.3,0,.59,0,.88l-34,23.45-.31-.66" transform="translate(0)"/><path class="cls-4" d="M123.65,105.15l34-23.45c0,.29,0,.57-.07.84l-33.62,23.19-.29-.58" transform="translate(0)"/><path class="cls-5" d="M123.94,105.73l33.62-23.19c0,.27-.07.54-.12.8l-1.88,1.3-1.81,1.24L152,87.09l-1.69,1.17-1.65,1.14-1.61,1.11-1.58,1.09-1.56,1.07-1.54,1.07-1.54,1.06-1.53,1.06-1.55,1.06L136.19,98l-1.58,1.09L133,100.2l-1.65,1.14-1.69,1.17-1.75,1.2L126.1,105l-1.87,1.29c-.1-.16-.19-.33-.29-.52" transform="translate(0)"/><path class="cls-6" d="M124.23,106.25l33.21-22.91c-.05.26-.11.51-.18.76L124.5,106.71c-.09-.14-.18-.3-.27-.46" transform="translate(0)"/><path class="cls-7" d="M124.5,106.71,157.26,84.1c-.06.25-.13.49-.21.73l-32.29,22.28-.26-.4" transform="translate(0)"/><path class="cls-8" d="M124.76,107.11l32.29-22.28c-.08.23-.17.46-.26.69L125,107.45c-.08-.11-.17-.22-.25-.34" transform="translate(0)"/><path class="cls-9" d="M125,107.45h0l1.77-1.23L128.5,105l1.66-1.15,1.62-1.11,1.58-1.09,1.55-1.07,1.52-1.05,1.5-1,1.49-1,1.48-1,1.48-1,1.49-1,1.5-1,1.52-1.05,1.55-1.07L150,90.19l1.62-1.11,1.66-1.15L155,86.74l1.77-1.22c-.09.23-.2.45-.31.67l-31.23,21.55-.24-.29" transform="translate(0)"/><path class="cls-10" d="M125.25,107.74l31.23-21.55c-.11.22-.23.44-.35.65L125.49,108l-.24-.23" transform="translate(0)"/><path class="cls-11" d="M125.49,108l30.64-21.13c-.14.22-.28.44-.43.65l-30,20.67-.24-.19" transform="translate(0)"/><path class="cls-12" d="M125.73,108.16l30-20.67c-.18.24-.36.47-.56.69L126,108.29a1.32,1.32,0,0,1-.27-.13" transform="translate(0)"/><path class="cls-13" d="M126,108.29l29.14-20.11a9,9,0,0,1-1.53,1.36h0l-1.44,1-1.41,1h0l-1.39,1-1.37,1-1.35.93-1.33.92-1.32.91-1.32.91-1.31.9-1.3.9-1.31.9-1.3.9-1.32.91-1.32.91-1.34.92-1.35.93-1.36,1-1.39,1-1.41,1-1.44,1a.58.58,0,0,1-.53.07" transform="translate(0)"/></g></g></g><path class="cls-63" d="M150.06,9.7,99.71,44.44l41,17.94-23.13,16-41-18L26.22,95.13,7.39,86.89,57.74,52.15l-41-17.94,23.13-16,41,18L131.22,1.46Z" transform="translate(0)"/><polygon class="cls-18" points="120.72 97.26 121.78 100.43 80.78 82.49 79.71 79.32 120.72 97.26"/><polygon class="cls-27" points="155.78 73.07 156.84 76.24 121.78 100.43 120.72 97.26 155.78 73.07"/><g class="cls-2"><g class="cls-64"><g class="cls-2"><path class="cls-4" d="M76.58,60.39l41,18v0l-41-17.94v0" transform="translate(0)"/><path class="cls-5" d="M76.57,60.44l41,17.94c0,.22-.06.47-.09.73l-41-17.94a7.28,7.28,0,0,1,.09-.73" transform="translate(0)"/><path class="cls-6" d="M76.48,61.17l41,17.94c0,.2,0,.4,0,.62l-41-18c0-.21,0-.42,0-.61" transform="translate(0)"/><path class="cls-7" d="M76.44,61.78l41,18c0,.19,0,.4,0,.61l-41-18c0-.21,0-.41,0-.61" transform="translate(0)"/><path class="cls-8" d="M76.43,62.39l41,18c0,.21,0,.43,0,.66l-41-18c0-.22,0-.44,0-.66" transform="translate(0)"/><path class="cls-9" d="M76.44,63.05l41,18c0,.24,0,.5,0,.76l-41-17.94c0-.26,0-.52,0-.77" transform="translate(0)"/><path class="cls-10" d="M76.48,63.82l41,17.94c0,.31,0,.63.07,1l-41-17.94c0-.33,0-.65-.07-1" transform="translate(0)"/><path class="cls-11" d="M76.55,64.78l41,17.94c0,.42.09.86.14,1.3l-41-17.94c-.06-.45-.1-.88-.14-1.3" transform="translate(0)"/><path class="cls-12" d="M76.69,66.08l41,17.94c.08.66.17,1.34.29,2L77,68.12c-.11-.7-.21-1.38-.28-2" transform="translate(0)"/><path class="cls-13" d="M77,68.12l41,17.94a71.31,71.31,0,0,0,2.74,11.2l-41-17.94A72.44,72.44,0,0,1,77,68.12" transform="translate(0)"/></g></g></g><g class="cls-2"><g class="cls-65"><g class="cls-2"><path class="cls-4" d="M117.58,78.34l23.13-16,.22,0L117.56,78.47s0-.09,0-.13" transform="translate(0)"/><path class="cls-26" d="M117.56,78.47l23.37-16.13.24,0-23.63,16.3s0-.1,0-.14" transform="translate(0)"/><path class="cls-25" d="M117.54,78.61l23.63-16.3.23,0L117.52,78.76c0-.05,0-.1,0-.15" transform="translate(0)"/><path class="cls-24" d="M117.52,78.76,141.4,62.28l.24,0L117.5,78.91s0-.1,0-.15" transform="translate(0)"/><path class="cls-23" d="M117.5,78.91l24.14-16.65.25,0-24.4,16.83s0-.11,0-.16" transform="translate(0)"/><path class="cls-22" d="M117.49,79.07l24.4-16.83h.24l-24.66,17c0-.06,0-.11,0-.17" transform="translate(0)"/><path class="cls-21" d="M117.47,79.24l24.66-17h.25L117.46,79.41a1,1,0,0,0,0-.17" transform="translate(0)"/><path class="cls-29" d="M117.46,79.41l24.92-17.19h.25L117.45,79.6a1.28,1.28,0,0,0,0-.19" transform="translate(0)"/><path class="cls-30" d="M117.45,79.6l25.18-17.38h.26L117.45,79.79V79.6" transform="translate(0)"/><path class="cls-31" d="M117.45,79.79l25.44-17.56.26,0L117.44,80a1.21,1.21,0,0,1,0-.19" transform="translate(0)"/><path class="cls-32" d="M117.44,80l25.71-17.73.26,0-26,17.92V80" transform="translate(0)"/><path class="cls-33" d="M117.44,80.19l26-17.92.22,0L117.44,80.36v-.17" transform="translate(0)"/><path class="cls-34" d="M117.44,80.36l26.19-18.07.21,0-26.4,18.21v-.17" transform="translate(0)"/><path class="cls-35" d="M117.44,80.53l26.4-18.21.21,0L117.44,80.7v-.17" transform="translate(0)"/><path class="cls-36" d="M117.44,80.7l26.61-18.35.21,0-26.81,18.5a1.09,1.09,0,0,1,0-.18" transform="translate(0)"/><path class="cls-37" d="M117.45,80.88l26.81-18.5.18,0L117.45,81v-.15" transform="translate(0)"/><path class="cls-38" d="M117.45,81l27-18.62.15,0L117.45,81.17V81" transform="translate(0)"/><path class="cls-39" d="M117.45,81.17l27.14-18.73.16,0L117.46,81.3v-.13" transform="translate(0)"/><path class="cls-40" d="M117.46,81.3l27.29-18.82.15,0L117.47,81.44V81.3" transform="translate(0)"/><path class="cls-41" d="M117.47,81.44,144.9,62.51l.16,0-27.59,19v-.14" transform="translate(0)"/><path class="cls-42" d="M117.47,81.58l27.59-19,.15,0L117.48,81.72v-.14" transform="translate(0)"/><path class="cls-43" d="M117.48,81.72l27.73-19.13.15,0L117.49,81.86v-.14" transform="translate(0)"/><path class="cls-44" d="M117.49,81.86l27.87-19.23.14,0L117.5,82v-.13" transform="translate(0)"/><path class="cls-45" d="M117.5,82l28-19.32.15,0L117.51,82.13V82" transform="translate(0)"/><path class="cls-46" d="M117.51,82.13l28.14-19.42.14,0L117.52,82.27v-.14" transform="translate(0)"/><path class="cls-47" d="M117.52,82.27l28.27-19.51.15,0L117.53,82.4v-.13" transform="translate(0)"/><path class="cls-48" d="M117.53,82.4l28.41-19.6.14.05L117.54,82.54V82.4" transform="translate(0)"/><path class="cls-49" d="M117.54,82.54l28.54-19.69.18.07-28.71,19.8c0-.06,0-.12,0-.18" transform="translate(0)"/><path class="cls-50" d="M117.55,82.72l28.71-19.8.21.07-28.9,19.94a1.49,1.49,0,0,0,0-.21" transform="translate(0)"/><path class="cls-51" d="M117.57,82.93,146.47,63l.22.09-29.1,20.07a1.64,1.64,0,0,0,0-.22" transform="translate(0)"/><path class="cls-52" d="M117.59,83.15l29.1-20.07.21.09-29.28,20.2,0-.22" transform="translate(0)"/><path class="cls-53" d="M117.62,83.37l29.28-20.2.42.18L117.67,83.81c0-.15,0-.3,0-.44" transform="translate(0)"/><path class="cls-54" d="M117.67,83.81l29.65-20.46c.3.14.6.29.9.46l-30.43,21c-.05-.34-.09-.66-.12-1" transform="translate(0)"/><path class="cls-53" d="M117.79,84.8l30.43-21,.46.26L117.86,85.33c0-.18,0-.35-.07-.53" transform="translate(0)"/><path class="cls-52" d="M117.86,85.33l30.82-21.26.29.19-31,21.42-.06-.35" transform="translate(0)"/><path class="cls-51" d="M117.92,85.68,149,64.26l.25.16L118,86c0-.1,0-.2,0-.3" transform="translate(0)"/><path class="cls-50" d="M118,86l31.26-21.56.24.16L118,86.28c0-.1,0-.2-.05-.3" transform="translate(0)"/><path class="cls-49" d="M118,86.28l31.45-21.7.24.17L118.06,86.57c0-.09,0-.19,0-.29" transform="translate(0)"/><path class="cls-48" d="M118.06,86.57,149.7,64.75l.21.16-31.8,21.94c0-.09,0-.18,0-.28" transform="translate(0)"/><path class="cls-47" d="M118.11,86.85l31.8-21.94.22.16-32,22.06a2.74,2.74,0,0,1,0-.28" transform="translate(0)"/><path class="cls-46" d="M118.16,87.13l32-22.06.21.17L118.21,87.41c0-.1,0-.19,0-.28" transform="translate(0)"/><path class="cls-45" d="M118.21,87.41l32.13-22.17.22.18L118.26,87.7a2.93,2.93,0,0,1-.05-.29" transform="translate(0)"/><path class="cls-44" d="M118.26,87.7l32.3-22.28.22.18L118.32,88l-.06-.3" transform="translate(0)"/><path class="cls-43" d="M118.32,88l32.46-22.4.22.2L118.37,88.31c0-.1,0-.2-.05-.31" transform="translate(0)"/><path class="cls-42" d="M118.37,88.31,151,65.8l.23.2L118.44,88.62c0-.1,0-.21-.07-.31" transform="translate(0)"/><path class="cls-41" d="M118.44,88.62,151.23,66l.25.24L118.51,89c0-.12-.05-.25-.07-.37" transform="translate(0)"/><path class="cls-40" d="M118.51,89l33-22.75c.08.08.17.16.25.25L118.59,89.35c0-.12,0-.24-.08-.36" transform="translate(0)"/><path class="cls-39" d="M118.59,89.35l33.14-22.86c.09.08.17.17.26.26l-33.32,23c0-.13-.06-.26-.08-.39" transform="translate(0)"/><path class="cls-38" d="M118.67,89.74l33.32-23,.29.32L118.77,90.19c0-.15-.07-.3-.1-.45" transform="translate(0)"/><path class="cls-37" d="M118.77,90.19l33.51-23.12.29.33-33.7,23.25c0-.15-.07-.3-.1-.46" transform="translate(0)"/><path class="cls-36" d="M118.87,90.65l33.7-23.25.34.41L119,91.21c0-.19-.09-.37-.13-.56" transform="translate(0)"/><path class="cls-35" d="M119,91.21l33.91-23.4c.12.14.23.29.34.44L119.14,91.78c0-.19-.09-.38-.14-.57" transform="translate(0)"/><path class="cls-34" d="M119.14,91.78l34.11-23.53.39.54L119.31,92.47c0-.23-.11-.46-.17-.69" transform="translate(0)"/><path class="cls-33" d="M119.31,92.47l34.33-23.68c.14.2.27.41.4.61L119.51,93.23c-.07-.25-.13-.5-.2-.76" transform="translate(0)"/><path class="cls-32" d="M119.51,93.23,154,69.4c.15.23.29.47.42.71l-34.72,24c-.08-.27-.15-.55-.23-.83" transform="translate(0)"/><path class="cls-31" d="M119.74,94.06l34.72-24c.16.27.3.54.44.82L120,95l-.27-.94" transform="translate(0)"/><path class="cls-30" d="M120,95,154.9,70.93c.15.29.28.6.42.9L120.31,96l-.3-1" transform="translate(0)"/><path class="cls-29" d="M120.31,96l35-24.16c.13.32.26.65.37,1L120.63,97c-.11-.33-.22-.67-.32-1" transform="translate(0)"/><path class="cls-21" d="M120.63,97,155.69,72.8l.09.27L120.72,97.26l-.09-.27" transform="translate(0)"/></g></g></g></g></g></g></svg>